<?xml version="1.0" standalone="no"?>
<!DOCTYPE svg PUBLIC "-//W3C//DTD SVG 20010904//EN"
 "http://www.w3.org/TR/2001/REC-SVG-20010904/DTD/svg10.dtd">
<svg version="1.0" xmlns="http://www.w3.org/2000/svg"
 width="128.000000pt" height="128.000000pt" viewBox="0 0 128.000000 128.000000"
 preserveAspectRatio="xMidYMid meet">

<g transform="translate(0.000000,128.000000) scale(0.100000,-0.100000)"
fill="#000000" stroke="none">
<path d="M230 1010 c0 -40 0 -40 -40 -40 l-39 0 -3 -330 -3 -330 43 0 42 0 0
-40 0 -40 165 0 165 0 0 40 c0 40 0 40 39 40 41 0 51 -11 51 -56 l0 -24 246 0
245 0 -3 51 -3 52 -80 1 c-79 1 -80 1 -83 29 l-3 27 -165 0 -164 0 0 85 0 84
-120 -1 -120 0 0 -84 0 -84 -85 0 -85 0 0 250 0 250 40 0 40 0 0 40 0 40 210
0 210 0 0 -40 0 -40 40 0 c38 0 40 -2 40 -30 l0 -30 85 0 c84 0 85 0 85 -25 0
-25 1 -25 80 -25 l80 0 0 55 0 55 -125 0 -125 0 0 40 0 40 -40 0 -40 0 0 40 0
40 -290 0 -290 0 0 -40z"/>
<path d="M400 765 l0 -125 120 0 120 0 0 125 0 125 -120 0 -120 0 0 -125z
m168 25 l27 0 -23 -18 c-19 -15 -22 -24 -16 -47 7 -28 7 -28 -17 -12 -21 15
-25 15 -47 1 -25 -16 -25 -16 -19 14 5 25 2 34 -16 47 l-21 15 27 0 c21 0 30
7 38 28 l11 27 14 -27 c10 -20 22 -28 42 -28z"/>
<path d="M810 705 l0 -55 85 0 c84 0 85 0 85 -25 0 -25 1 -25 80 -25 l80 0 0
50 0 49 -82 3 c-82 3 -83 3 -86 31 -3 27 -4 27 -83 27 l-79 0 0 -55z"/>
<path d="M810 515 l0 -55 90 0 c89 0 90 0 90 -25 0 -24 2 -25 75 -25 l75 0 0
55 0 54 -82 3 c-77 3 -83 5 -86 26 -3 21 -8 22 -83 22 l-79 0 0 -55z"/>
</g>
</svg>
