<?xml version="1.0" encoding="UTF-8"?>
<svg version="1.1" xmlns="http://www.w3.org/2000/svg" width="512" height="512">
<path d="M0 0 C1.02056488 0.00087616 2.04112976 0.00175232 3.09262085 0.00265503 C18.97310399 0.04761579 34.22994877 0.71431497 49.75 4.375 C50.78769531 4.61637695 51.82539063 4.85775391 52.89453125 5.10644531 C107.04069891 18.11920326 152.93776212 52.13820171 182.18530273 99.32568359 C201.94939025 131.99313959 211.93904213 168.41682226 211.93530273 206.50634766 C211.9374775 208.97446258 211.95566234 211.4421206 211.97460938 213.91015625 C212.03047512 229.07192972 210.53116079 243.59447087 207 258.375 C206.73687012 259.48875 206.47374023 260.6025 206.20263672 261.75 C203.98289267 270.88810056 201.28526306 279.66514675 197.75 288.375 C197.47494629 289.06899902 197.19989258 289.76299805 196.91650391 290.47802734 C189.55592703 308.83172749 179.46609763 326.21804153 166.75 341.375 C166.28239258 341.9412207 165.81478516 342.50744141 165.33300781 343.09082031 C155.47919832 355.01022732 145.02643979 365.89450331 132.75 375.375 C132.20923828 375.79749023 131.66847656 376.21998047 131.11132812 376.65527344 C103.63647702 398.00207886 71.12895007 411.96912928 36.75 417.375 C35.75653564 417.5500708 34.76307129 417.7251416 33.73950195 417.90551758 C28.42101172 418.65217158 23.06371041 418.55755124 17.703125 418.578125 C16.53730896 418.58382507 15.37149292 418.58952515 14.17034912 418.59539795 C11.70260518 418.60482546 9.23484877 418.61137297 6.76708984 418.61523438 C3.05412703 418.62485968 -0.65826253 418.655872 -4.37109375 418.6875 C-22.42927895 418.76946352 -39.23468879 417.26156615 -56.625 412.25 C-57.67461914 411.9499707 -58.72423828 411.64994141 -59.80566406 411.34082031 C-70.35654128 408.21475249 -80.33989972 404.13672811 -90.25 399.375 C-91.13171875 398.95202637 -92.0134375 398.52905273 -92.921875 398.09326172 C-121.0785731 384.38619861 -146.21361731 364.35595707 -165.25 339.375 C-166.02601563 338.36566406 -166.80203125 337.35632813 -167.6015625 336.31640625 C-179.75345499 320.12847103 -188.95666442 302.208573 -196.25 283.375 C-196.50861816 282.70839355 -196.76723633 282.04178711 -197.03369141 281.35498047 C-200.00174708 273.52449679 -202.04085223 265.51791326 -203.9375 257.375 C-204.14020508 256.5094751 -204.34291016 255.6439502 -204.55175781 254.75219727 C-207.95280906 239.47727554 -208.65768288 224.5845258 -208.625 209 C-208.62412384 207.98065369 -208.62324768 206.96130737 -208.62234497 205.91107178 C-208.57835363 190.39476172 -208.00689264 175.50439789 -204.25 160.375 C-203.88793457 158.8904834 -203.88793457 158.8904834 -203.51855469 157.37597656 C-194.78363077 122.64504009 -177.96132514 91.28590403 -153.25 65.375 C-152.07523169 64.00691538 -150.90765184 62.6325984 -149.75 61.25 C-129.88117913 38.59583041 -102.0008793 23.14182985 -74.25 12.375 C-73.25806641 11.98707275 -73.25806641 11.98707275 -72.24609375 11.59130859 C-60.65835371 7.153647 -48.42454552 4.62696209 -36.25 2.375 C-35.24372559 2.18518555 -34.23745117 1.99537109 -33.20068359 1.79980469 C-22.17229891 -0.03853348 -11.15425308 -0.02333125 0 0 Z M-100.55615234 114.19311523 C-124.69675703 139.57369271 -134.4736281 173.95848491 -134.5 208.25 C-134.50067474 209.03534119 -134.50134949 209.82068237 -134.50204468 210.62982178 C-134.48629745 222.15179092 -134.08944278 233.15406951 -131.25 244.375 C-131.07839355 245.07109375 -130.90678711 245.7671875 -130.72998047 246.484375 C-122.63286112 278.67024352 -103.98299996 307.92915268 -75.25 325.375 C-37.04336995 347.38100759 6.93606986 349.8068311 48.9765625 338.5078125 C76.8495412 330.01819904 101.08618222 310.68993732 116.75 286.375 C117.14461426 285.7655957 117.53922852 285.15619141 117.94580078 284.52832031 C124.71863575 273.85614372 132.75 259.26764179 132.75 246.375 C89.19 246.375 45.63 246.375 0.75 246.375 C0.75 221.955 0.75 197.535 0.75 172.375 C44.31 172.375 87.87 172.375 132.75 172.375 C128.57893808 143.17756653 109.53000757 116.72708952 86.45263672 99.109375 C78.7531125 93.52738555 70.42184017 89.23174833 61.75 85.375 C60.82743408 84.95758545 60.82743408 84.95758545 59.88623047 84.53173828 C6.75773076 61.01212193 -59.89717084 73.23363749 -100.55615234 114.19311523 Z " fill="#FBC201" transform="translate(254.25,46.625)"/>
<path d="M0 0 C0 3 0 3 -2.5 5.6875 C-3.325 6.450625 -4.15 7.21375 -5 8 C-5.66 7.67 -6.32 7.34 -7 7 C-4.69 4.69 -2.38 2.38 0 0 Z " fill="#AC8601" transform="translate(357,350)"/>
</svg>
