<?xml version="1.0" encoding="UTF-8"?>
<svg version="1.1" xmlns="http://www.w3.org/2000/svg" width="1000" height="1000">
<path d="M0 0 C330 0 660 0 1000 0 C1000 330 1000 660 1000 1000 C670 1000 340 1000 0 1000 C0 670 0 340 0 0 Z " fill="#000100" transform="translate(0,0)"/>
<path d="M0 0 C0.96615234 0.45922852 1.93230469 0.91845703 2.92773438 1.39160156 C30.0625303 14.36431082 55.16003876 30.10824379 79.9934082 46.96386719 C81.48167114 47.97175293 81.48167114 47.97175293 83 49 C84.03535889 49.76731445 85.07071777 50.53462891 86.13745117 51.32519531 C88.72691304 53.1549046 88.72691304 53.1549046 90.94335938 53.03051758 C94.10562839 51.44600458 96.99700787 49.50982852 99.90625 47.51171875 C101.29417094 46.57386583 102.68211114 45.63604142 104.07006836 44.69824219 C104.79354462 44.20626343 105.51702087 43.71428467 106.26242065 43.20739746 C119.26313698 34.37653487 132.34039564 25.78654702 146 18 C147.1439624 17.34451172 147.1439624 17.34451172 148.31103516 16.67578125 C158.05227636 11.11518154 167.92321746 5.85809723 178.015625 0.96337891 C179.33797553 0.32140115 180.65830299 -0.32476064 181.9765625 -0.97509766 C206.52650335 -13.07557095 232.24279498 -22.27815377 259 -28 C260.12535156 -28.24878906 261.25070312 -28.49757812 262.41015625 -28.75390625 C285.56853712 -33.11707946 309.97067363 -30.38373559 330.203125 -18.046875 C342.1995218 -9.72150673 350.71949284 1.8481767 353.64038086 16.37280273 C354.39915556 21.91603055 354.38320054 27.4761524 354.375 33.0625 C354.37368576 34.04917664 354.37368576 34.04917664 354.37234497 35.05578613 C354.28064052 56.09386602 351.51592994 81.96814013 342 101 C342.61166016 101.16943115 343.22332031 101.3388623 343.85351562 101.51342773 C349.96775198 103.26828842 355.7176048 105.42021731 361.5 108.0625 C362.35875732 108.4538916 363.21751465 108.8452832 364.10229492 109.24853516 C382.98024969 117.99343185 399.91360096 128.59222791 415 143 C415.74507812 143.6703125 416.49015625 144.340625 417.2578125 145.03125 C430.99088544 157.8551648 439.90298497 174.74305251 441.25390625 193.53125 C441.79050107 210.28685588 436.47515172 222.83517761 425.5 235.25 C424.0072165 236.84013895 422.50783283 238.42412418 421 240 C420.47148438 240.59167969 419.94296875 241.18335938 419.3984375 241.79296875 C409.61752435 252.3513391 396.42235828 259.97189505 384 267 C383.39091797 267.35239746 382.78183594 267.70479492 382.15429688 268.06787109 C372.5309125 273.60561778 362.48923738 278.05602633 352.25 282.3125 C351.04263184 282.81628174 349.83526367 283.32006348 348.59130859 283.83911133 C321.28842309 295 321.28842309 295 311 295 C311.6290625 296.11375 312.258125 297.2275 312.90625 298.375 C318.2094904 307.81143385 323.3233202 317.30103623 328.04541016 327.04199219 C328.97799419 328.95486276 329.9310621 330.85638701 330.88671875 332.7578125 C340.5952845 352.37803135 348.39433051 373.39222571 353.44628906 394.69091797 C353.93559233 396.73140751 354.47575202 398.75955612 355.0234375 400.78515625 C357.2631151 410.22673293 357.28328759 419.66557855 357.3125 429.3125 C357.31626648 430.00454529 357.32003296 430.69659058 357.32391357 431.40960693 C357.38210882 452.51570768 352.68886239 471.84713373 337.76171875 487.48828125 C329.70307181 494.81743257 320.41210277 498.31020679 310 501 C309.39196533 501.176521 308.78393066 501.35304199 308.1574707 501.53491211 C253.98247472 513.21346449 186.31814936 474.61609914 143.1328125 446.90625 C135.32403068 441.80665437 127.70677289 436.42965108 120.125 431 C119.36912598 430.45980225 118.61325195 429.91960449 117.83447266 429.36303711 C114.28058292 426.78705517 110.98304274 424.24854916 108 421 C112.25082242 422.45876932 115.56287572 424.70872378 119.125 427.375 C150.10879356 449.93420961 185.00278157 467.9749589 221 481 C221.79696289 481.28955566 222.59392578 481.57911133 223.41503906 481.87744141 C248.70784274 490.95485447 283.73742612 501.38680575 310 491 C311.45019531 490.52433594 311.45019531 490.52433594 312.9296875 490.0390625 C323.76053122 486.15318727 332.25601048 478.83745048 337.7890625 468.71484375 C351.49323242 437.99097893 341.38701302 403.78609739 330 374 C319.97032268 348.85361079 307.14148797 325.41964281 292 303 C289.68944866 305.89660955 288.06039114 308.80170649 286.4375 312.125 C274.02926802 335.02548696 239.71603661 354.57619296 215.57421875 363.02734375 C205.55230684 365.75461814 195.92915042 366.36950484 185.5625 366.3125 C184.85724182 366.31034485 184.15198364 366.3081897 183.425354 366.30596924 C159.01623651 366.18660419 136.52192344 361.15171694 113.99414062 351.76879883 C101.09850804 346.46941889 86.55275414 343.15973066 73 348 C69.697621 350.798199 68.00712111 353.57231751 66.25 357.5 C65.73953125 358.63824219 65.2290625 359.77648437 64.703125 360.94921875 C63.41752798 363.94818532 62.22111945 366.97534272 61.046875 370.01953125 C60.7075293 370.89351562 60.36818359 371.7675 60.01855469 372.66796875 C59.35586671 374.3885431 58.70481901 376.1136614 58.06738281 377.84375 C55.87091268 383.57050529 53.12557494 388.41981844 49 393 C48.67 393 48.34 393 48 393 C46.88406527 377.37691377 53.76615277 362.92024138 60 349 C56.24427721 349.50753011 54.41952698 350.07244545 52 353 C48.3954215 360.71406863 46.49247367 369.22526253 44.375 377.4375 C43.7826798 379.72891114 43.1864883 382.01932597 42.5859375 384.30859375 C42.19994385 385.80604126 42.19994385 385.80604126 41.80615234 387.33374023 C41.07858665 389.74008336 40.20473736 391.80110946 39 394 C38.01 394 37.02 394 36 394 C35.34610313 380.6677694 36.58474847 367.36726363 42 355 C38.42666271 356.60123187 37.20519999 357.46503772 35.77734375 361.1875 C35.50019531 362.445625 35.22304688 363.70375 34.9375 365 C34.61828013 366.34723546 34.29532247 367.69359041 33.96875 369.0390625 C33.81019531 369.70583008 33.65164063 370.37259766 33.48828125 371.05957031 C32.77776193 373.88317408 31.89036142 376.62469546 30.9375 379.375 C30.63714844 380.24898437 30.33679688 381.12296875 30.02734375 382.0234375 C29 384 29 384 26 385 C25.90255986 376.27369392 25.83288905 367.66996704 27 359 C26.20722656 359.144375 25.41445313 359.28875 24.59765625 359.4375 C4.85033082 362.57961587 -14.61578417 361.81342393 -34 357 C-34.75748535 356.81808105 -35.5149707 356.63616211 -36.29541016 356.44873047 C-51.7505422 352.65195928 -65.62022965 346.08367693 -78 336 C-79.32837891 334.93458984 -79.32837891 334.93458984 -80.68359375 333.84765625 C-85.9389858 329.40439016 -89.27947246 325.17924445 -92.56640625 319.1640625 C-94.82099595 315.76067641 -97.32978682 314.69917277 -101 313 C-101.66 312.4225 -102.32 311.845 -103 311.25 C-106.35878301 309.15076062 -108.0948578 309.24429366 -112 310 C-115.1218643 313.18847707 -117.34788323 316.90472299 -119.6875 320.6875 C-120.38302979 321.77442139 -121.07855957 322.86134277 -121.79516602 323.98120117 C-123.89918454 327.30014486 -125.95833441 330.6423936 -128 334 C-128.87108398 335.43134277 -128.87108398 335.43134277 -129.75976562 336.89160156 C-150.38363367 371.16180145 -170.68516162 415.2697967 -162.6875 456.2578125 C-159.49957472 468.97328719 -152.51161942 478.79777636 -141.27734375 485.6640625 C-114.12959972 500.18578065 -79.02970109 492.40296283 -51 484 C-20.54485558 474.37292162 7.6470355 460.48507951 34.90014648 443.94506836 C39.79233725 441 39.79233725 441 42 441 C42 441.66 42 442.32 42 443 C41.175 443.46148438 40.35 443.92296875 39.5 444.3984375 C33.75475934 447.63572782 28.06620911 450.92036901 22.51293945 454.47900391 C-20.2528786 481.85399413 -77.29503909 510.51954042 -129.6953125 501.3125 C-144.92439239 497.55995465 -157.7778702 489.06340653 -166.40625 475.8359375 C-181.30554709 449.32395297 -179.26001541 417.29912298 -171.4375 388.875 C-162.43418629 357.94379523 -147.05667363 330.11412074 -130 303 C-137.84767827 298.95496623 -145.76938199 295.34275566 -153.9375 292 C-183.88784174 279.50740249 -214.3037124 265.6905029 -238 243 C-238.76957031 242.29359375 -239.53914063 241.5871875 -240.33203125 240.859375 C-251.47977883 230.30035004 -260.25351525 216.30264289 -261.203125 200.65234375 C-261.50264998 176.9149891 -250.4246806 158.40982222 -234.25 141.8125 C-218.36808284 126.15663284 -197.83868166 116.04331072 -177.8125 106.75 C-177.18728455 106.45942719 -176.56206909 106.16885437 -175.91790771 105.86947632 C-165.39520573 101 -165.39520573 101 -163 101 C-164.24606721 94.16346909 -165.93154469 87.58591668 -167.9375 80.9375 C-172.19611648 66.15790031 -174.26974094 52.65837714 -174.375 37.25 C-174.38901855 35.94691895 -174.40303711 34.64383789 -174.41748047 33.30126953 C-174.33278668 16.18660987 -170.26123788 1.67641926 -158.19921875 -10.82421875 C-157.11060547 -11.90123047 -157.11060547 -11.90123047 -156 -13 C-155.47019531 -13.56332031 -154.94039063 -14.12664062 -154.39453125 -14.70703125 C-115.31320828 -52.78369296 -40.03162634 -19.19636365 0 0 Z " fill="#00FA21" transform="translate(410,264)"/>
<path d="M0 0 C5.07633174 -0.05744322 10.15256901 -0.09834453 15.22913551 -0.12815857 C17.11579842 -0.14170702 19.00243318 -0.16047531 20.88898277 -0.18519592 C36.93806707 -0.38927 53.06170859 0.60238022 68.22650146 6.31982422 C69.05649658 6.62355957 69.8864917 6.92729492 70.74163818 7.24023438 C85.25660621 12.72756582 98.20974273 21.17076814 105.78900146 35.06982422 C106.27497803 35.92833984 106.76095459 36.78685547 107.26165771 37.67138672 C113.19090741 49.66201423 112.17832675 63.45391816 108.03509521 75.89794922 C100.40833859 95.31151155 85.11454735 105.60410536 66.83197021 114.19628906 C62.56246792 116.02184824 58.16858411 117.5319215 53.78900146 119.06982422 C55.04035889 119.2411084 56.29171631 119.41239258 57.58099365 119.58886719 C62.22620267 120.22659889 66.87007896 120.87361601 71.51361084 121.5234375 C73.52302511 121.80331557 75.53279133 122.08067878 77.54290771 122.35546875 C80.43319512 122.75102686 83.32209349 123.15563042 86.21087646 123.56201172 C87.55795685 123.74339188 87.55795685 123.74339188 88.93225098 123.92843628 C89.77282043 124.04840973 90.61338989 124.16838318 91.47943115 124.29199219 C92.21667419 124.39414032 92.95391724 124.49628845 93.71350098 124.60153198 C95.97180586 125.11107011 97.76643728 125.95796673 99.78900146 127.06982422 C96.85019843 130.23227754 93.88201819 133.36314159 90.88397217 136.46923828 C89.86999958 137.52827991 88.86427274 138.59528425 87.86737061 139.67041016 C79.66678625 148.49739961 79.66678625 148.49739961 75.418396 149.79248047 C73.09420593 149.82121852 71.06590939 149.52565564 68.78900146 149.06982422 C67.18031966 148.9361989 65.57086723 148.81162591 63.96087646 148.69482422 C51.04289312 147.28867866 38.41118263 144.89061072 25.72650146 142.13232422 C24.94730347 141.96337646 24.16810547 141.79442871 23.36529541 141.62036133 C13.09235992 139.37909197 2.92307179 136.87394423 -7.21099854 134.06982422 C-8.11406738 133.82304932 -9.01713623 133.57627441 -9.9475708 133.32202148 C-35.95261258 126.12403448 -67.20832981 115.1094344 -82.46099854 91.31982422 C-89.51234718 78.56574552 -91.38025679 65.05730982 -88.55084229 50.72607422 C-86.09698035 43.33262007 -81.73312676 35.59195244 -76.21099854 30.06982422 C-73.41415057 29.89457367 -70.71771774 29.83839233 -67.92193604 29.87451172 C-66.69430038 29.87875656 -66.69430038 29.87875656 -65.44186401 29.88308716 C-62.8230946 29.8942989 -60.2046649 29.91940493 -57.58599854 29.94482422 C-55.81256597 29.95485275 -54.03912805 29.96397882 -52.26568604 29.97216797 C-47.91399228 29.99424144 -43.56255304 30.02877778 -39.21099854 30.06982422 C-39.21099854 29.07982422 -39.21099854 28.08982422 -39.21099854 27.06982422 C-40.39689575 27.10124512 -40.39689575 27.10124512 -41.60675049 27.13330078 C-45.24553317 27.217287 -48.88411097 27.2687451 -52.52349854 27.31982422 C-54.38844971 27.37009766 -54.38844971 27.37009766 -56.29107666 27.42138672 C-68.78675193 27.55257491 -78.01109472 24.6317785 -87.21099854 16.06982422 C-92.0429868 11.28782204 -95.15583557 7.60400232 -97.21099854 1.06982422 C-86.12329039 0.93627553 -75.03555035 0.80577268 -63.9477663 0.67867279 C-58.79354972 0.61950434 -53.63934706 0.55946576 -48.48516846 0.49707031 C-36.4277991 0.35165978 -24.37044206 0.2257132 -12.31262207 0.12402344 C-8.20832395 0.08902412 -4.10417648 0.04711161 0 0 Z " fill="#000200" transform="translate(572.2109985351563,425.93017578125)"/>
<path d="M0 0 C0 4.41003294 -2.29205861 6.97103681 -4.6875 10.5625 C-5.12255859 11.24763672 -5.55761719 11.93277344 -6.00585938 12.63867188 C-9.35040874 17.6877027 -11.7707081 19.28289363 -17.7265625 20.60546875 C-18.68304688 20.79753906 -19.63953125 20.98960937 -20.625 21.1875 C-32.78884901 24.1648751 -41.95675492 31.87137279 -48.43286133 42.33740234 C-51.4987111 47.41680531 -54.19551107 52.36905545 -56.4375 57.875 C-58.34351829 61.71245016 -58.34351829 61.71245016 -60.890625 62.828125 C-63.64685624 63.18437258 -66.21944699 63.11041907 -69 63 C-70.55080619 63.00238953 -72.10161063 63.01210084 -73.65234375 63.02734375 C-78.10265018 63.0650545 -82.5497763 63.04362964 -87 63 C-86.60053569 69.19169676 -85.46225125 73.91552489 -82.83984375 79.54296875 C-81.16696346 84.4371162 -81.75469086 87.83134573 -83.8984375 92.42578125 C-84.71247213 94.06045793 -85.53836502 95.68927416 -86.375 97.3125 C-89.56613988 103.53023661 -91.74079727 109.10205978 -93 116 C-93.66 116 -94.32 116 -95 116 C-94.96003906 117.00546875 -94.92007813 118.0109375 -94.87890625 119.046875 C-95.00403175 123.131617 -95.77008449 126.34476662 -96.9375 130.25 C-98.731041 136.48918327 -99.73023999 142.51227183 -100 149 C-99.01 149.33 -98.02 149.66 -97 150 C-97.144375 150.76441406 -97.28875 151.52882813 -97.4375 152.31640625 C-99.12832993 162.07390398 -100.69388154 172.80578737 -97.9375 182.5 C-96.66069312 187.26674568 -96.88560657 190.81426341 -99.1628418 195.28076172 C-100.67396656 197.79363764 -102.25377806 200.24427677 -103.875 202.6875 C-104.41769531 203.52861328 -104.96039063 204.36972656 -105.51953125 205.23632812 C-106.99220857 207.50655564 -108.47324302 209.76579161 -110 212 C-110.74032471 213.10637817 -110.74032471 213.10637817 -111.49560547 214.23510742 C-113 216 -113 216 -115.953125 216.5390625 C-121.57061091 216.18980397 -126.66343709 213.59894396 -131.75 211.375 C-133.45397949 210.63890503 -133.45397949 210.63890503 -135.19238281 209.88793945 C-161.44814085 198.34744191 -187.03469411 184.60125003 -209 166 C-210.45599609 164.78957031 -210.45599609 164.78957031 -211.94140625 163.5546875 C-223.97846732 153.14154148 -236.47331083 138.35427083 -238.21972656 121.93408203 C-238.7334469 112.34823316 -238.46512746 103.693784 -234 95 C-233.57589844 94.16339844 -233.15179688 93.32679688 -232.71484375 92.46484375 C-229.03256045 85.82852816 -224.22669604 80.45878734 -219 75 C-218.20529297 74.11054688 -218.20529297 74.11054688 -217.39453125 73.203125 C-202.58568324 57.21413743 -181.12976366 47.07091671 -161.5625 38.3125 C-159.8295166 37.53628296 -159.8295166 37.53628296 -158.06152344 36.74438477 C-152.99028495 34.53105193 -148.51473048 32.74396595 -143 32 C-142.54786133 32.91998779 -142.09572266 33.83997559 -141.62988281 34.7878418 C-130.25903812 57.8883232 -118.49805341 80.36715691 -104.4543457 101.98535156 C-103.88804443 102.85901367 -103.32174316 103.73267578 -102.73828125 104.6328125 C-101.98091675 105.79127686 -101.98091675 105.79127686 -101.20825195 106.97314453 C-100 109 -100 109 -99 112 C-99 108.06386815 -100.4168226 106.41272784 -102.52734375 103.1015625 C-103.26867779 101.92388724 -104.00938557 100.74581756 -104.74951172 99.56738281 C-105.12710632 98.97026489 -105.50470093 98.37314697 -105.89373779 97.75793457 C-115.76560392 82.0707904 -124.2605691 65.99815843 -131.625 49 C-131.96467804 48.22839539 -132.30435608 47.45679077 -132.65432739 46.6618042 C-133.61382884 44.4694861 -134.54942782 42.26867076 -135.4765625 40.0625 C-135.76418961 39.40641754 -136.05181671 38.75033508 -136.34815979 38.07437134 C-137.48094579 35.2992 -138.16374847 33.5762469 -137.32885742 30.63818359 C-135.23141867 28.05251135 -132.83725028 27.59574271 -129.6875 26.625 C-129.02508301 26.41858887 -128.36266602 26.21217773 -127.68017578 25.99951172 C-125.45842283 25.31530759 -123.22995139 24.65695076 -121 24 C-120.24251465 23.77054687 -119.4850293 23.54109375 -118.70458984 23.3046875 C-79.93083326 11.57020619 -40.21647952 4.44214879 0 0 Z " fill="#000200" transform="translate(397,346)"/>
<path d="M0 0 C34.24172677 11.77835885 71.75458033 30.22652268 90 63 C95.47480802 74.40458623 96.876763 86.27824543 93.5 98.625 C82.00828438 131.17832412 44.15891865 151.05197269 14.94140625 165.06445312 C-17.0559815 179.86056062 -17.0559815 179.86056062 -29 178 C-31.32928645 175.6638131 -32.80318504 172.94416076 -34.375 170.0625 C-35.23677265 168.57409916 -36.0987415 167.08581189 -36.9609375 165.59765625 C-37.51467041 164.60004272 -37.51467041 164.60004272 -38.07958984 163.58227539 C-38.90278808 162.01198785 -38.90278808 162.01198785 -40 161 C-39.96004854 159.03930522 -39.8387729 157.08025872 -39.6875 155.125 C-39.58953125 153.85011719 -39.4915625 152.57523438 -39.390625 151.26171875 C-39.13928339 148.36115549 -38.83077811 145.47272725 -38.484375 142.58203125 C-37.46549561 134.02799293 -36.77445399 125.55671826 -36.6875 116.9375 C-36.67001709 116.09372803 -36.65253418 115.24995605 -36.63452148 114.38061523 C-36.64092419 107.15907709 -38.42583593 100.92424589 -41.1015625 94.25390625 C-43.52679858 88.16972703 -44.62536713 81.8455391 -42.02197266 75.68603516 C-39.22091446 70.41314165 -35.91208118 65.46067239 -32.61474609 60.48876953 C-30.23220656 56.81661833 -28.10165516 53.02539908 -26 49.1875 C-25.60200195 48.46667236 -25.20400391 47.74584473 -24.79394531 47.00317383 C-20.37224545 38.94333309 -16.14930582 30.77801706 -11.91796875 22.6171875 C-9.22200494 17.41801996 -6.4944893 12.23619202 -3.75 7.0625 C-3.36706787 6.34054443 -2.98413574 5.61858887 -2.58959961 4.87475586 C-1.72699518 3.24952106 -0.86360165 1.62470512 0 0 Z " fill="#000100" transform="translate(747,378)"/>
<path d="M0 0 C11.75683393 11.02203181 16.11121248 25.57627623 16.86328125 41.2421875 C17.40181903 62.14084966 13.30278041 82.39938228 6.625 102.12109375 C-0.28639984 101.64229195 -5.7521483 100.07118045 -12.125 97.43359375 C-22.70485517 93.2421595 -33.37729071 90.01430116 -44.375 87.12109375 C-45.31182617 86.87117676 -46.24865234 86.62125977 -47.21386719 86.36376953 C-61.8289288 82.48755827 -76.5222507 79.40997455 -91.39111328 76.68261719 C-94.02807887 76.18637919 -96.65272017 75.65483891 -99.27734375 75.09765625 C-128.12948744 69.06008913 -158.41734919 65.67961717 -187.8671875 64.85546875 C-188.60217468 64.83466248 -189.33716187 64.8138562 -190.09442139 64.79241943 C-193.74448359 64.69252047 -197.39396032 64.6084741 -201.04492188 64.54980469 C-203.01428711 64.50774902 -203.01428711 64.50774902 -205.0234375 64.46484375 C-206.20083496 64.44615234 -207.37823242 64.42746094 -208.59130859 64.40820312 C-211.375 64.12109375 -211.375 64.12109375 -213.375 62.12109375 C-170.23640433 31.18440374 -121.4839287 1.09938469 -69 -10.06640625 C-68.25878906 -10.23076172 -67.51757812 -10.39511719 -66.75390625 -10.56445312 C-43.9355872 -15.53458082 -19.07547048 -15.09095609 0 0 Z " fill="#000200" transform="translate(741.375,258.87890625)"/>
<path d="M0 0 C-0.33 0.66 -0.66 1.32 -1 2 C-1.78608643 2.01458252 -2.57217285 2.02916504 -3.38208008 2.04418945 C-71.39819136 3.43147302 -147.06355676 10.69709537 -209.88671875 38.7109375 C-213.18199063 40.07535371 -215.47159646 40.25817587 -219 40 C-223.88310422 27.54808423 -226.97176745 15.18351157 -229 2 C-229.1340625 1.18015625 -229.268125 0.3603125 -229.40625 -0.484375 C-232.1723415 -20.30803072 -229.69790236 -39.66295685 -218.375 -56.40234375 C-168.98113936 -118.26340479 -43.23615752 -31.83062173 0 0 Z " fill="#000200" transform="translate(472,321)"/>
<path d="M0 0 C42.24 0 84.48 0 128 0 C123.50769231 14.6 123.50769231 14.6 121.78125 20.15625 C121.40613281 21.36410156 121.03101563 22.57195312 120.64453125 23.81640625 C119.88151042 26.27213542 119.11848958 28.72786458 118.35546875 31.18359375 C116.56348766 36.95364969 114.77511333 42.72473031 113 48.5 C110.46937124 56.73331297 107.91122982 64.95805555 105.35546875 73.18359375 C101.32092262 86.174555 97.33066223 99.17835213 93.38085938 112.1953125 C93.08630859 113.1646875 92.79175781 114.1340625 92.48828125 115.1328125 C92.22571533 115.99793457 91.96314941 116.86305664 91.69262695 117.75439453 C91.15110653 119.51008887 90.58100835 121.25697496 90 123 C64.59 123 39.18 123 13 123 C14.2332828 116.83358602 15.36295891 111.41451433 17.265625 105.54296875 C17.71080654 104.1529985 18.15544575 102.76285445 18.59960938 101.37255859 C18.82962646 100.6572699 19.05964355 99.9419812 19.29663086 99.20501709 C20.49302271 95.45440545 21.64351645 91.68980389 22.796875 87.92578125 C23.28150775 86.34836785 23.76620926 84.77097557 24.25097656 83.19360352 C24.49593872 82.3959256 24.74090088 81.59824768 24.99328613 80.77639771 C30.29689865 63.50757355 35.63714002 46.25053294 41 29 C52.88 28.67 64.76 28.34 77 28 C77.33 27.34 77.66 26.68 78 26 C77.43560715 26.00888245 76.87121429 26.01776489 76.28971863 26.0269165 C70.36781027 26.1160276 64.44609512 26.17599612 58.52368164 26.21972656 C56.31917574 26.23973086 54.11472214 26.26694322 51.91040039 26.30175781 C48.72529117 26.35077058 45.54088884 26.37308127 42.35546875 26.390625 C41.38417526 26.41127014 40.41288177 26.43191528 39.41215515 26.45318604 C27.45496641 26.45702859 17.08750071 21.86770084 8.51171875 13.6015625 C4.13470736 8.95229681 2.08257162 6.24771487 0 0 Z " fill="#000200" transform="translate(333,427)"/>
<path d="M0 0 C7.96701513 -0.33590658 15.38547819 0.92597183 23.1875 2.4375 C24.20987259 2.63232468 24.20987259 2.63232468 25.25289917 2.83108521 C50.33022609 7.62778056 75.33957456 13.3398473 99.63085938 21.24121094 C103.73519042 22.5557473 107.86789069 23.77611691 112 25 C115.77428923 41.11805736 94.70747559 71.19300064 86.9375 85.375 C86.29518433 86.54905396 86.29518433 86.54905396 85.63989258 87.74682617 C83.03957982 92.39907246 80.28713741 96.79822908 77 101 C76.34 101 75.68 101 75 101 C74.79955078 100.3922876 74.59910156 99.7845752 74.39257812 99.15844727 C64.83788091 70.40498345 52.49214119 48.0432096 30.875 26.5625 C30.3242984 26.01262421 29.7735968 25.46274841 29.20620728 24.89620972 C15.92709044 11.18007839 15.92709044 11.18007839 0 1 C0 0.67 0 0.34 0 0 Z " fill="#000300" transform="translate(628,350)"/>
<path d="M0 0 C0.99 0 1.98 0 3 0 C1.92037378 3.24390018 0.83639404 6.48623079 -0.25390625 9.7265625 C-0.69012068 11.02603612 -1.1263184 12.32551536 -1.5625 13.625 C-1.78357422 14.27984375 -2.00464844 14.9346875 -2.23242188 15.609375 C-8.24774547 33.56447988 -5.27978525 52.21233624 3 69 C4.15281093 70.71771384 5.31902851 72.42652415 6.5 74.125 C8.26089166 76.92355996 9.06071542 78.27900443 8.78125 81.59765625 C8.00859365 84.15901205 7.07285053 86.55074046 6 89 C4.17576014 94.6754129 3.45226643 100.08483123 3 106 C0.93722893 105.85805236 -1.12521031 105.71127784 -3.1875 105.5625 C-4.91033203 105.44068359 -4.91033203 105.44068359 -6.66796875 105.31640625 C-9.51598171 105.04596188 -12.21210482 104.62478253 -15 104 C-15.33140621 98.36609435 -15.36155652 94.76220507 -12 90 C-12 89.01 -12 88.02 -12 87 C-13.88658874 86.96474868 -13.88658874 86.96474868 -16 88 C-19.44471559 92.59295412 -20.44404358 95.99624837 -20.43359375 101.69140625 C-19.36596615 107.37580185 -15.95495788 111.54628194 -12.3125 115.875 C-11.10013672 117.32519531 -11.10013672 117.32519531 -9.86328125 118.8046875 C-9.24839844 119.52914062 -8.63351562 120.25359375 -8 121 C-13.42812492 126.42812492 -24.37626877 125.24332917 -31.66360474 125.27575684 C-33.2196728 125.27420042 -34.77574099 125.26915063 -36.33178711 125.26074219 C-38.66612201 125.25009748 -40.99967391 125.2606508 -43.33398438 125.2734375 C-52.18888317 125.28074111 -60.72912467 124.67988188 -69.49731445 123.45458984 C-74.45948303 122.81058358 -79.38800372 122.67441958 -84.38671875 122.69726562 C-88.10533479 122.58830807 -89.70979777 122.26784389 -92.484375 119.70703125 C-94 117 -94 117 -94 113 C-74.53 112.67 -55.06 112.34 -35 112 C-31.95795123 102.27095268 -28.91618362 92.54181775 -25.875 82.8125 C-25.64929195 82.09043491 -25.42358391 81.36836983 -25.19103622 80.62442398 C-18.46135829 59.09506496 -11.7432465 37.56217001 -5.05224609 16.02075195 C-4.78110489 15.14814728 -4.50996368 14.2755426 -4.23060608 13.37649536 C-3.73246497 11.77321145 -3.23459033 10.16984472 -2.73704529 8.56637573 C-1.84728127 5.70260889 -0.94833884 2.84501651 0 0 Z " fill="#000700" transform="translate(471,455)"/>
<path d="M0 0 C3.94137256 2.8574951 6.68121576 6.30440231 8.5 10.8125 C10.05650586 25.38211879 6.62681342 40.55036117 -1.5 52.8125 C-6.62427255 58.59133292 -12.25497809 63.11842191 -20.09765625 64.15625 C-25.87394021 64.4740648 -29.87540522 63.7142379 -34.74609375 60.58984375 C-39.15434291 56.12268702 -40.99059639 51.76589187 -41.10693359 45.60913086 C-41.09227051 44.87186768 -41.07760742 44.13460449 -41.0625 43.375 C-41.05299316 42.59584229 -41.04348633 41.81668457 -41.03369141 41.01391602 C-40.58398517 28.17129357 -36.39472293 15.82925343 -27.29296875 6.56640625 C-19.22249955 -0.94194072 -10.85480189 -3.68287921 0 0 Z " fill="#00FB21" transform="translate(598.5,456.1875)"/>
<path d="M0 0 C-2.22706435 4.21930219 -5.06378528 7.10100182 -8.625 10.1875 C-13.36827099 14.40781709 -17.70510797 18.80648744 -21.8671875 23.61328125 C-22.92292969 24.79470703 -22.92292969 24.79470703 -24 26 C-24.60255615 26.8029248 -24.60255615 26.8029248 -25.21728516 27.62207031 C-27.38894297 30.24593215 -28.91965701 31.81028288 -32.34814453 32.41235352 C-35.12727799 32.44720239 -37.85231053 32.31490059 -40.625 32.125 C-54.04857612 31.68363775 -63.53550441 34.22653507 -74 43 C-77.56844637 46.75625934 -79.32902356 50.32579123 -82 55 C-89.26 55 -96.52 55 -104 55 C-100.16965172 47.88649606 -96.21585187 40.89187133 -92 34 C-91.01 34.33 -90.02 34.66 -89 35 C-87.8125 38.0625 -87.8125 38.0625 -87 41 C-86.01 40.505 -86.01 40.505 -85 40 C-84.4740625 38.2984375 -84.4740625 38.2984375 -83.9375 36.5625 C-81.12830902 28.67406473 -74.14803253 21.73279003 -66.87890625 17.70703125 C-62.78217904 16.16543536 -59.21532559 17.67691758 -55.1640625 18.75390625 C-46.13947109 21.01551693 -36.24822306 22.83926422 -27.0625 20.25 C-22.90153608 17.19296528 -21.08981089 13.46945705 -18.7734375 8.91015625 C-14.91880849 2.5848289 -7.51944653 -2.50648218 0 0 Z " fill="#000500" transform="translate(451,353)"/>
<path d="M0 0 C3.57272589 1.50838849 6.5363135 3.51178666 9.67578125 5.7421875 C14.63887823 9.15352885 18.65699908 10.90476047 24.67578125 11.9921875 C34.35551431 14.10708716 41.44661016 21.53322296 47.23828125 29.3671875 C47.23828125 30.0271875 47.23828125 30.6871875 47.23828125 31.3671875 C39.30214338 31.39031514 31.36601949 31.40810473 23.4298563 31.41899967 C19.74513627 31.42422758 16.06043922 31.43132355 12.37573242 31.44262695 C8.82257294 31.45345912 5.26943562 31.45946503 1.71626091 31.46206474 C0.35782459 31.4639184 -1.00061046 31.46753788 -2.3590374 31.47291756 C-4.25554098 31.48013225 -6.15206668 31.48059559 -8.04858398 31.48071289 C-9.67074074 31.48404381 -9.67074074 31.48404381 -11.32566833 31.48744202 C-13.76171875 31.3671875 -13.76171875 31.3671875 -14.76171875 30.3671875 C-15.37922163 20.95026864 -14.05115341 10.76652239 -7.76171875 3.3671875 C-3.74719906 -0.8586227 -3.74719906 -0.8586227 0 0 Z " fill="#000200" transform="translate(518.76171875,376.6328125)"/>
<path d="M0 0 C2.67328095 1.26838494 5.0271619 2.64839405 7.390625 4.42578125 C8.01445068 4.88984375 8.63827637 5.35390625 9.28100586 5.83203125 C10.61094688 6.83200179 11.93986126 7.83333899 13.26782227 8.8359375 C16.72542878 11.42018103 20.03762742 13.61657859 23.9375 15.5 C27 18 27 18 27.578125 20.52734375 C27.77955989 25.88695066 27.38542364 30.691279 24 35 C18.80549495 39.12053565 13.90875143 40.74170428 7.296875 40.3515625 C3.9600386 39.84082223 1.73005962 38.9976046 -1 37 C-5.71574956 29.51984553 -6.09746088 20.50868351 -4.3984375 11.98046875 C-3.27832687 7.75459682 -2.06302867 3.86593634 0 0 Z " fill="#000600" transform="translate(484,540)"/>
<path d="M0 0 C3.98948179 3.53354101 7.23612925 7.51044387 10.1875 11.9375 C12.80802254 12.37379007 12.80802254 12.37379007 15.8125 12.375 C22.29685904 12.78658207 27.19319508 13.85723417 31.8203125 18.6171875 C33.20855643 20.38473305 34.34965658 21.84975903 35.1875 23.9375 C34.80859375 26.15625 34.80859375 26.15625 34.1875 27.9375 C33.6394873 27.77685059 33.09147461 27.61620117 32.52685547 27.45068359 C29.88890652 26.87199765 27.45798893 26.77667645 24.7578125 26.7265625 C23.71496094 26.69820313 22.67210937 26.66984375 21.59765625 26.640625 C19.41553254 26.58873145 17.23321518 26.54440421 15.05078125 26.5078125 C8.13266176 26.30308393 3.04736229 25.87907264 -2 20.6875 C-4.08731592 17.52053792 -5.42918986 14.46494085 -6.8125 10.9375 C-8.4625 10.9375 -10.1125 10.9375 -11.8125 10.9375 C-11.8125 13.2475 -11.8125 15.5575 -11.8125 17.9375 C-16.66253976 16.75608006 -20.00397162 15.82303108 -23.4375 12.0625 C-24.8125 8.9375 -24.8125 8.9375 -24.8125 6.25 C-23.18962824 2.49710906 -20.86474199 1.42512434 -17.25 -0.25 C-11.54010487 -1.59961158 -5.5609457 -2.10080171 0 0 Z " fill="#000500" transform="translate(610.8125,368.0625)"/>
<path d="M0 0 C5.09107297 0.39929984 9.95310638 1.39954946 14.9375 2.5 C25.42916025 4.77837961 35.28452542 5.12706096 46 5 C46 5.66 46 6.32 46 7 C35.35691046 11.8506116 25.0418298 13.02638947 13.4987793 13.53369141 C8.59537828 13.79058567 4.04614209 14.50329008 -0.75 15.5625 C-10.0603308 17.5688664 -21.37832627 19.18716715 -30 14 C-32.24609375 11.38671875 -32.24609375 11.38671875 -34 9 C-32.18628906 9.01353516 -32.18628906 9.01353516 -30.3359375 9.02734375 C-19.65350348 8.90478356 -8.08863073 8.08863073 0 0 Z " fill="#000901" transform="translate(410,600)"/>
<path d="M0 0 C-3.625 4.875 -3.625 4.875 -7 6 C-9.31205076 6.07735486 -11.62469862 6.13737737 -13.9375 6.1875 C-21.54669102 6.57920375 -27.79553501 8.33730718 -34 13 C-36.12042349 15.43925528 -37.84240738 17.86152484 -39.5 20.6328125 C-41.11649747 23.18384756 -42.66493569 25.08064789 -45 27 C-46.32 27 -47.64 27 -49 27 C-48.58035072 22.10409172 -46.42160801 20.33606781 -43 17 C-42.13880866 14.82653432 -42.13880866 14.82653432 -42 13 C-46.94779524 14.58329448 -49.0840993 15.77823724 -51.8125 20.25 C-53.25390625 22.3828125 -53.25390625 22.3828125 -55 24 C-58.52797215 24.51256473 -61.61406031 24.08398789 -65 23 C-65.66 22.34 -66.32 21.68 -67 21 C-60.49355115 11.289618 -51.73954772 4.24180235 -40.125 1.8125 C-26.89904584 -0.254627 -13.35222213 -0.16371934 0 0 Z " fill="#000B01" transform="translate(466,341)"/>
<path d="M0 0 C9.93692499 1.47709418 19.66136392 3.66289055 29.4375 5.9375 C30.95890765 6.28874397 32.48039174 6.63965697 34.00195312 6.99023438 C37.64920529 7.83133991 41.29554626 8.6763149 44.94158936 9.52264404 C48.15969341 10.26893883 51.37867595 11.01140003 54.59765625 11.75390625 C56.16978882 12.11657593 56.16978882 12.11657593 57.77368164 12.48657227 C58.5083667 12.65600342 59.24305176 12.82543457 60 13 C57.99579834 18.25535402 55.49240961 21.57856568 51 25 C48.125 25.875 48.125 25.875 45 25 C43.59826962 23.88702607 42.2262052 22.73629876 40.875 21.5625 C36.32085611 17.76611716 33.19394621 17.4458598 27.3984375 17.296875 C23.2332497 16.93301951 19.53423549 15.88669024 15.5625 14.625 C14.88823975 14.41536621 14.21397949 14.20573242 13.51928711 13.98974609 C9.69816177 12.7410373 6.21042944 11.44297276 3 9 C1.54154209 6.11792789 0.85510966 3.10539825 0 0 Z " fill="#000800" transform="translate(562,577)"/>
<path d="M0 0 C-1.02987104 3.43290346 -2.23561875 6.46166579 -4 9.5625 C-6.46217801 14.42412537 -6.8748894 19.12341474 -7.25 24.5 C-7.36601562 25.87671875 -7.36601562 25.87671875 -7.484375 27.28125 C-7.67090917 29.51966004 -7.83753653 31.75971427 -8 34 C-12.95 34 -17.9 34 -23 34 C-23.10957031 32.88882813 -23.21914063 31.77765625 -23.33203125 30.6328125 C-24.11415856 23.16185847 -24.86431602 16.06948555 -27.51171875 8.98046875 C-28.08693556 6.64738938 -27.75457243 5.2535888 -27 3 C-17.92550815 1.08718365 -9.33175289 -0.5338079 0 0 Z " fill="#000400" transform="translate(502,374)"/>
<path d="M0 0 C19.54655119 -1.12768565 38.2905075 9.93937724 52.8203125 21.984375 C55 24 55 24 57 27 C57 27.99 57 28.98 57 30 C50.27715134 30.84035608 50.27715134 30.84035608 46.8984375 28.6171875 C44.86521884 26.80377626 42.92625177 24.92625177 41 23 C35.97671432 18.5209981 32.99454642 16.88155684 26.09692383 17.1171875 C12.11747834 17.54746219 12.11747834 17.54746219 7 13 C3.39136993 9.17581017 0.33944532 5.43112514 0 0 Z " fill="#000901" transform="translate(583,344)"/>
<path d="M0 0 C5.52966802 0.44237344 8.50484004 1.84382386 13 5 C20.79710534 8.17701279 30.7865155 8.54099711 38.75 5.625 C42.03359274 4.06718548 42.03359274 4.06718548 45 2 C46.33819498 4.6226232 47.6707151 7.24786599 49 9.875 C49.57234375 10.99455078 49.57234375 10.99455078 50.15625 12.13671875 C50.69765625 13.20986328 50.69765625 13.20986328 51.25 14.3046875 C51.58515625 14.96452637 51.9203125 15.62436523 52.265625 16.30419922 C53 18 53 18 53 20 C43.09874004 22.55315508 28.36483241 23.06408197 19.1328125 18.3984375 C12.47464588 14.03282642 6.89382558 9.27021402 2 3 C1.34 2.67 0.68 2.34 0 2 C0 1.34 0 0.68 0 0 Z " fill="#000901" transform="translate(333,581)"/>
<path d="M0 0 C7.65590185 1.47759718 14.7567703 3.92698095 22.0625 6.625 C23.21427734 7.04523437 24.36605469 7.46546875 25.55273438 7.8984375 C28.37036794 8.92728295 31.18601184 9.96123455 34 11 C34 14.3 34 17.6 34 21 C23.42469033 24.25394144 15.24269733 24.14928468 5.375 19.0625 C2.89515792 17.74201266 0.44713156 16.38125684 -2 15 C-2.66 14.67 -3.32 14.34 -4 14 C-3.69255859 13.11248047 -3.69255859 13.11248047 -3.37890625 12.20703125 C-2.0002429 8.16339184 -0.68249153 4.23144751 0 0 Z " fill="#000700" transform="translate(522,564)"/>
<path d="M0 0 C20.24915972 7.30714741 33.12915932 29.01819446 41.8671875 47.55786133 C45.84001168 56.40976538 48.48689819 65.64731915 51 75 C50.01 75.495 50.01 75.495 49 76 C44.582676 69.35159104 40.74507994 62.91537191 37.9375 55.4375 C32.88883274 42.13558142 25.67052688 32.10143194 15.23046875 22.51171875 C14.23176758 21.59398682 14.23176758 21.59398682 13.21289062 20.65771484 C11.89413245 19.45627146 10.56637777 18.26460579 9.22851562 17.08447266 C4.59085572 12.90018149 0.30508666 8.58476825 -0.25 2.0625 C-0.1675 1.381875 -0.085 0.70125 0 0 Z " fill="#000A01" transform="translate(645,380)"/>
<path d="M0 0 C3.79124747 -0.14714061 7.58174654 -0.23467827 11.375 -0.3125 C12.96634766 -0.3753418 12.96634766 -0.3753418 14.58984375 -0.43945312 C24.70424186 -0.59458193 32.19081358 2.66087999 39.58984375 9.53515625 C41.59158949 11.61453202 42.94354879 13.29284379 44 16 C43.67857143 22.32142857 43.67857143 22.32142857 41 25 C36.88761797 25 34.62219801 23.85224932 31.5625 21.3125 C27.90432693 18.34679181 24.14476941 16.8500061 19.75 15.3125 C11.53443611 12.36157833 5.84182234 7.38575366 0 1 C0 0.67 0 0.34 0 0 Z " fill="#000700" transform="translate(537,342)"/>
<path d="M0 0 C2.41573661 2.01209454 4.14170031 4.47938324 6 7 C10.48682956 12.53942701 15.11296744 16.96317767 21 21 C15.03975171 24.67351937 6.58809767 23.91442225 -0.10205078 22.58105469 C-8.49740048 20.46603086 -16.45925246 17.25979729 -24 13 C-24 12.01 -24 11.02 -24 10 C-23.11248047 9.88785156 -23.11248047 9.88785156 -22.20703125 9.7734375 C-17.89801002 9.05643886 -14.91871573 8.52437985 -12.125 5 C-11.42375 4.01 -10.7225 3.02 -10 2 C-6.19871623 -0.53418918 -4.50303968 -0.68690436 0 0 Z " fill="#000801" transform="translate(558,590)"/>
<path d="M0 0 C4.875 4.625 4.875 4.625 6 8 C5.35084127 10.75670145 4.62862495 13.41803402 3.8125 16.125 C2.02729532 22.26071387 0.39520302 28.38911864 -1 34.625 C-2.87191588 42.90242357 -5.35347456 50.9411131 -8 59 C-8.99 58.67 -9.98 58.34 -11 58 C-12.73498877 46.72257298 -12.13443558 36.55222546 -9.3125 25.5 C-9.04284424 24.41009766 -8.77318848 23.32019531 -8.49536133 22.19726562 C-3.80500402 3.80500402 -3.80500402 3.80500402 0 0 Z " fill="#000801" transform="translate(319,442)"/>
<path d="M0 0 C3 2 3 2 3.73046875 3.890625 C5.15311282 11.23487301 5.44675543 18.52983362 5 26 C3.40698157 27.59301843 1.76633118 27.17030943 -0.4375 27.1875 C-13.92914244 27.07085756 -13.92914244 27.07085756 -17 24 C-17.79115479 17.44471744 -17.79115479 17.44471744 -16.01171875 14.1953125 C-11.76828443 9.00756463 -6.27481458 5.07283235 -1 1 C-0.67 0.67 -0.34 0.34 0 0 Z " fill="#000600" transform="translate(468,383)"/>
<path d="M0 0 C4.86545354 0.29330748 7.27510049 2.634891 10.75 5.875 C12.19632813 7.20144531 12.19632813 7.20144531 13.671875 8.5546875 C16 11 16 11 17 14 C16.43152344 14.18175781 15.86304688 14.36351562 15.27734375 14.55078125 C14.11912109 14.92783203 14.11912109 14.92783203 12.9375 15.3125 C12.18339844 15.55613281 11.42929687 15.79976563 10.65234375 16.05078125 C7.87872182 16.97969693 7.87872182 16.97969693 4.9375 18.5625 C-0.12923259 20.76688887 -5.49467815 20.56925123 -10.9375 20.6875 C-12.53561523 20.73874023 -12.53561523 20.73874023 -14.16601562 20.79101562 C-16.77723846 20.87298226 -19.38814721 20.94229887 -22 21 C-21.07458849 19.72864733 -20.14384406 18.46117561 -19.2109375 17.1953125 C-18.69321777 16.48906738 -18.17549805 15.78282227 -17.64208984 15.05517578 C-13.50319982 9.875102 -7.90638169 6.10102592 -2.6015625 2.19921875 C-1.04712221 1.09452035 -1.04712221 1.09452035 0 0 Z " fill="#000801" transform="translate(504,348)"/>
<path d="M0 0 C9.61030737 -0.36494838 16.7819562 0.14959238 24.5 6.25 C27.12050513 8.68852561 28.47870836 10.36810032 29 13.9375 C29 14.948125 29 15.95875 29 17 C21.67872592 16.28418236 14.65044553 14.63081979 7.5 12.9375 C6.29601562 12.65583984 5.09203125 12.37417969 3.8515625 12.08398438 C0.90018154 11.39298645 -2.05002942 10.69699449 -5 10 C-3.35 6.7 -1.7 3.4 0 0 Z " fill="#000901" transform="translate(620,399)"/>
<path d="M0 0 C4.03875676 0.88293167 6.74873626 2.38485308 10 5 C11.73615872 8.70906636 12.53480467 11.93901068 12 16 C10.37912055 18.26278288 8.80369277 20.21313547 6.9375 22.25 C5.92547719 23.39311131 4.91506415 24.53764976 3.90625 25.68359375 C3.40996094 26.24288574 2.91367187 26.80217773 2.40234375 27.37841797 C-0.11531227 30.2896769 -2.38341437 33.38768168 -4.66015625 36.48828125 C-5.10230469 36.98714844 -5.54445313 37.48601562 -6 38 C-6.66 38 -7.32 38 -8 38 C-7.23496195 33.91555945 -6.46187775 29.83267924 -5.6875 25.75 C-5.47416016 24.61046875 -5.26082031 23.4709375 -5.04101562 22.296875 C-3.61246016 14.7916284 -1.93848375 7.38999542 0 0 Z " fill="#000A01" transform="translate(330,456)"/>
<path d="M0 0 C-0.65129797 1.34090759 -1.32280046 2.67198532 -2 4 C-2.45890625 4.92296875 -2.9178125 5.8459375 -3.390625 6.796875 C-5.53954977 10.20987316 -7.41600277 13.07811962 -11 15 C-18.20690392 16.40805722 -25.73512211 15.67573666 -33 15 C-29.55943449 7.78302202 -23.220965 3.36201525 -15.80859375 0.64453125 C-10.57877773 -0.55563515 -5.32751535 -0.30061215 0 0 Z " fill="#000700" transform="translate(412,393)"/>
<path d="M0 0 C4.29154022 -0.0867562 8.58285668 -0.1403089 12.875 -0.1875 C14.70998047 -0.22520508 14.70998047 -0.22520508 16.58203125 -0.26367188 C18.33193359 -0.27817383 18.33193359 -0.27817383 20.1171875 -0.29296875 C21.73536377 -0.31653442 21.73536377 -0.31653442 23.38623047 -0.34057617 C24.68004639 -0.17199097 24.68004639 -0.17199097 26 0 C28 3 28 3 27.875 5.4375 C26.81746141 8.5345773 25.51105579 9.9320717 23 12 C17.30106938 13.89964354 12.31121132 13.23645528 6.8671875 10.98046875 C3.91318613 9.42930904 2.01260467 7.64154363 0 5 C-0.125 2.3359375 -0.125 2.3359375 0 0 Z " fill="#000600" transform="translate(341,569)"/>
<path d="M0 0 C3.71937466 0.51809038 7.40747984 1.2208972 11.07983398 2.00317383 C5.74380118 9.46854988 -2.97614365 13.14523179 -11.87329102 14.76879883 C-14.92370936 15.11808337 -17.85294773 15.13369376 -20.92016602 15.00317383 C-20.25988649 13.666666 -19.59122947 12.33429969 -18.92016602 11.00317383 C-18.47543945 10.06860352 -18.03071289 9.1340332 -17.57250977 8.17114258 C-12.78499227 -0.14975913 -8.95854267 -0.99038673 0 0 Z " fill="#000901" transform="translate(640.920166015625,590.996826171875)"/>
<path d="M0 0 C2.75920585 2.356598 5.0005373 4.97345768 7 8 C7 8.66 7 9.32 7 10 C2.58847304 9.9555475 -1.82171198 9.88540811 -6.23242188 9.79248047 C-7.72970447 9.7644306 -9.22713075 9.74313726 -10.72460938 9.72900391 C-26.32967725 9.57295323 -26.32967725 9.57295323 -33 5 C-33.33 4.34 -33.66 3.68 -34 3 C-28.37190853 1.92798258 -22.80889371 1.65930435 -17.1015625 1.39453125 C-11.30062285 1.09625598 -5.73170656 -0.87432812 0 0 Z " fill="#000D01" transform="translate(466,583)"/>
<path d="M0 0 C2.99664638 1.47393435 5.93965395 3.0329479 8.875 4.625 C9.65875 5.04523437 10.4425 5.46546875 11.25 5.8984375 C13.16892057 6.9281022 15.08477603 7.96347567 17 9 C13.10249127 12.89750873 7.87070512 12.24490071 2.625 12.3125 C1.8825 12.34150391 1.14 12.37050781 0.375 12.40039062 C-4.8906837 12.46086226 -7.82718743 11.48366625 -12 8 C-13.875 5.25 -13.875 5.25 -15 3 C-13.64114298 2.10013468 -12.26193195 1.2309613 -10.875 0.375 C-10.10929687 -0.11226562 -9.34359375 -0.59953125 -8.5546875 -1.1015625 C-4.950329 -2.36915035 -3.47893653 -1.53876039 0 0 Z " fill="#000901" transform="translate(518,583)"/>
<path d="M0 0 C0.99 0 1.98 0 3 0 C3.309375 1.010625 3.61875 2.02125 3.9375 3.0625 C8.42071342 13.21086492 21.58217626 17.5510894 31 22 C31.1328125 24.3515625 31.1328125 24.3515625 31 27 C28.875 29.375 28.875 29.375 26 31 C22.9375 31.125 22.9375 31.125 20 30 C18.1875 27.5625 18.1875 27.5625 17.25 25.93359375 C15.62808679 23.42469675 13.70031166 21.33161279 11.6875 19.125 C10.90761719 18.26777344 10.12773438 17.41054688 9.32421875 16.52734375 C7.8548464 14.92955566 6.37907747 13.33760584 4.89453125 11.75390625 C4.26933594 11.07199219 3.64414062 10.39007813 3 9.6875 C2.1646875 8.79611328 2.1646875 8.79611328 1.3125 7.88671875 C-0.27779912 5.60066376 -0.70491989 3.75254414 -1 1 C-0.67 0.67 -0.34 0.34 0 0 Z " fill="#000B01" transform="translate(579,378)"/>
<path d="M0 0 C2.27156921 0.06001504 4.54239274 0.14879968 6.8125 0.25 C8.07707031 0.29640625 9.34164063 0.3428125 10.64453125 0.390625 C14 1 14 1 15.84375 2.75 C17.02987157 5.05812846 17.92188326 7.27086008 18.6875 9.75 C18.93886719 10.54921875 19.19023437 11.3484375 19.44921875 12.171875 C19.63097656 12.77515625 19.81273437 13.3784375 20 14 C17.42144468 16.4268756 15.49723314 17.86246743 12.0625 18.8125 C7.73920494 17.66550335 6.58021685 15.33195306 4.32421875 11.6015625 C2.41860931 7.85779881 1.0914726 4.04993781 0 0 Z " fill="#000700" transform="translate(385,583)"/>
<path d="M0 0 C1.2065625 0.0309375 1.2065625 0.0309375 2.4375 0.0625 C2.75411893 5.71009808 1.79110367 9.88001232 -0.25 15.125 C-0.49427734 15.80626953 -0.73855469 16.48753906 -0.99023438 17.18945312 C-2.79855365 21.95517558 -4.96160116 25.42757692 -8.5625 29.0625 C-9.5525 29.0625 -10.5425 29.0625 -11.5625 29.0625 C-12.17962449 18.31996251 -9.90739544 9.80384876 -3.5625 1.0625 C-2.5625 0.0625 -2.5625 0.0625 0 0 Z " fill="#000D01" transform="translate(587.5625,472.9375)"/>
<path d="M0 0 C8.46624747 4.01032775 14.08881475 12.69939883 17.20703125 21.34765625 C17.59955078 22.66056641 17.59955078 22.66056641 18 24 C4.66076635 18.92294877 4.66076635 18.92294877 1.4375 13.25 C0.84378723 8.83956228 0.33329839 4.43813126 0 0 Z " fill="#000A01" transform="translate(655,405)"/>
<path d="M0 0 C0.54785156 0.18175781 1.09570312 0.36351562 1.66015625 0.55078125 C8.2576002 2.64265372 14.86075781 3.94544198 21.6796875 5.05859375 C25.27579127 6.07819494 26.74601201 7.06075435 29 10 C29 10.66 29 11.32 29 12 C12.1591727 13.0334144 12.1591727 13.0334144 7.1875 9.25 C6.08892448 8.20326737 5.02085389 7.12266411 4 6 C3.175 5.2575 2.35 4.515 1.5 3.75 C0 2 0 2 0 0 Z " fill="#000A01" transform="translate(570,594)"/>
<path d="M0 0 C-0.31526586 7.40874763 -3.68325881 12.7628606 -8.953125 17.90625 C-10.59401381 19.3203493 -12.29198808 20.6677507 -14 22 C-15.37591466 10.85678989 -15.37591466 10.85678989 -12.06640625 6.390625 C-4.77782847 0 -4.77782847 0 0 0 Z " fill="#000700" transform="translate(692,563)"/>
<path d="M0 0 C4.95 0.33 9.9 0.66 15 1 C19 9.75 19 9.75 19 12 C12.53850999 11.83547132 6.70838601 10.75355038 2 6 C1.34 4.02 0.68 2.04 0 0 Z " fill="#000E01" transform="translate(406,585)"/>
<path d="M0 0 C2.31 0 4.62 0 7 0 C7.268125 0.79664063 7.53625 1.59328125 7.8125 2.4140625 C10.60001109 9.95134576 13.18050148 13.84780534 20 18 C21.67344761 19.32481269 23.34348188 20.65407903 25 22 C19.45424718 22.87564518 15.92489058 20.7330878 11.40234375 17.8359375 C5.24216174 13.12815613 2.32906147 7.24596902 0 0 Z " fill="#001002" transform="translate(468,571)"/>
<path d="M0 0 C4.25045286 1.45864249 7.56377118 3.70771654 11.125 6.375 C22.90175923 14.99167283 35.4153095 22.6238832 48 30 C47.505 31.485 47.505 31.485 47 33 C35.87996727 26.59019948 25.38827493 19.53072797 15 12 C13.90534424 11.21181885 13.90534424 11.21181885 12.78857422 10.40771484 C10.66814601 8.88061098 8.55183285 7.34802916 6.4375 5.8125 C5.7878125 5.34279785 5.138125 4.8730957 4.46875 4.38916016 C2.96035551 3.28468202 1.47710236 2.14599063 0 1 C0 0.67 0 0.34 0 0 Z " fill="#00DE1D" transform="translate(518,685)"/>
<path d="M0 0 C1.1238497 3.37154909 0.95261747 5.45373054 0.66015625 8.98046875 C0.56669922 10.14384766 0.47324219 11.30722656 0.37695312 12.50585938 C0.27318359 13.72080078 0.16941406 14.93574219 0.0625 16.1875 C-0.03740234 17.41404297 -0.13730469 18.64058594 -0.24023438 19.90429688 C-0.48801765 22.93669217 -0.74149534 25.96850293 -1 29 C-1.66 29 -2.32 29 -3 29 C-5.49334725 25.25997912 -5.42256242 22.21763534 -5.4375 17.875 C-5.44136719 17.11324463 -5.44523438 16.35148926 -5.44921875 15.56665039 C-5.322712 9.38824497 -3.90810925 4.8990941 0 0 Z " fill="#000E01" transform="translate(704,501)"/>
<path d="M0 0 C0 0.66 0 1.32 0 2 C-0.825 2.46148438 -1.65 2.92296875 -2.5 3.3984375 C-9.90242053 7.56948771 -17.16746939 11.90361149 -24.31640625 16.49755859 C-28.74858187 19.31793014 -33.26902604 21.71318775 -38 24 C-37.07964481 20.09360352 -36.13477177 19.08556182 -32.68359375 16.89453125 C-31.2753764 16.18613077 -29.85942195 15.49297434 -28.4375 14.8125 C-26.90172906 14.04287555 -25.36793093 13.26930417 -23.8359375 12.4921875 C-23.0428418 12.0909668 -22.24974609 11.68974609 -21.43261719 11.27636719 C-16.62494519 8.75383515 -11.99774246 5.91699412 -7.35913086 3.09887695 C-2.20337356 0 -2.20337356 0 0 0 Z " fill="#00DD1D" transform="translate(452,705)"/>
<path d="M0 0 C-2.51007288 3.76510932 -5.22746662 4.53632269 -9.3125 6 C-10.02148438 6.26055176 -10.73046875 6.52110352 -11.4609375 6.78955078 C-17.86738422 9.08022795 -24.31967972 10.69596488 -31 12 C-31 11.34 -31 10.68 -31 10 C-31.66 9.67 -32.32 9.34 -33 9 C-32.44650879 8.83918945 -31.89301758 8.67837891 -31.32275391 8.51269531 C-17.8183026 4.69352502 -17.8183026 4.69352502 -4.77734375 -0.43359375 C-3 -1 -3 -1 0 0 Z " fill="#00D31C" transform="translate(758,546)"/>
<path d="M0 0 C0.99 0 1.98 0 3 0 C3.41773682 0.76030518 3.83547363 1.52061035 4.26586914 2.30395508 C5.84909283 5.18137184 7.43558466 8.05693867 9.02416992 10.93139648 C9.70513156 12.16506905 10.38486266 13.39942181 11.06323242 14.63452148 C15.44096064 22.60257011 20.00776193 30.3953293 25 38 C24.01 38.495 24.01 38.495 23 39 C9.38861724 17.77275914 9.38861724 17.77275914 3.625 8.25 C3.06341187 7.33142212 3.06341187 7.33142212 2.49047852 6.39428711 C0 2.24029128 0 2.24029128 0 0 Z " fill="#00D41C" transform="translate(275,419)"/>
<path d="M0 0 C1 3 1 3 -0.1081543 5.5402832 C-0.67445557 6.53374756 -1.24075684 7.52721191 -1.82421875 8.55078125 C-2.44103516 9.64197266 -3.05785156 10.73316406 -3.69335938 11.85742188 C-4.68045898 13.56768555 -4.68045898 13.56768555 -5.6875 15.3125 C-6.32623047 16.44107422 -6.96496094 17.56964844 -7.62304688 18.73242188 C-10.59146174 23.94786846 -13.63328737 29.03457166 -17 34 C-17.66 33.67 -18.32 33.34 -19 33 C-17.7505402 29.6758558 -16.33126136 26.74980432 -14.4375 23.75 C-11.02190533 18.19227928 -8.03244556 12.4351569 -5.07202148 6.62597656 C-2.21487441 1.10743721 -2.21487441 1.10743721 0 0 Z " fill="#00E81E" transform="translate(725,417)"/>
<path d="M0 0 C2.58276535 0.99337129 3.90098085 1.63272127 5.4375 3.9375 C5.1075 5.2575 4.7775 6.5775 4.4375 7.9375 C1.1375 7.6075 -2.1625 7.2775 -5.5625 6.9375 C-5.8925 5.9475 -6.2225 4.9575 -6.5625 3.9375 C-3.27554348 -0.0798913 -3.27554348 -0.0798913 0 0 Z " fill="#001102" transform="translate(676.5625,536.0625)"/>
<path d="M0 0 C0.66 0 1.32 0 2 0 C1.38221953 2.60607392 0.75612789 5.20965697 0.125 7.8125 C-0.04902344 8.55048828 -0.22304688 9.28847656 -0.40234375 10.04882812 C-1.24492511 13.49717037 -2.01285575 16.01928362 -4 19 C-6.10900443 15.57286781 -6.47895471 12.99128926 -6 9 C-4.125 5.8125 -4.125 5.8125 -2 3 C-1.34 2.01 -0.68 1.02 0 0 Z " fill="#001202" transform="translate(331,528)"/>
<path d="M0 0 C0.99 0 1.98 0 3 0 C1.94678637 3.17914484 0.87822889 6.35126281 -0.21875 9.515625 C-2.44935275 16.01701594 -4.50915996 22.28723967 -5.34765625 29.14453125 C-6 31 -6 31 -8.04077148 32.1159668 C-9.0105896 32.55356323 -9.0105896 32.55356323 -10 33 C-7.98456286 25.36339 -5.73688696 17.8286057 -3.3125 10.3125 C-2.99216797 9.31283203 -2.67183594 8.31316406 -2.34179688 7.28320312 C-1.5633079 4.85478228 -0.78268758 2.42707018 0 0 Z " fill="#002604" transform="translate(471,455)"/>
<path d="M0 0 C5.31685454 1.74006148 8.02695681 5.84018051 11.4375 10.125 C10.4475 10.62 10.4475 10.62 9.4375 11.125 C6.90625 10.05078125 6.90625 10.05078125 3.9375 8.4375 C2.9578125 7.91800781 1.978125 7.39851563 0.96875 6.86328125 C-1.61432035 5.08941349 -2.50282 4.02019714 -3.5625 1.125 C-2.5625 0.125 -2.5625 0.125 0 0 Z " fill="#001302" transform="translate(530.5625,370.875)"/>
<path d="M0 0 C0.99 0.33 1.98 0.66 3 1 C4.72805471 7.62420971 2.84964058 11.92158211 0 18 C-0.33 18 -0.66 18 -1 18 C-1.02717692 15.93757383 -1.0464758 13.87504297 -1.0625 11.8125 C-1.07410156 10.66394531 -1.08570313 9.51539063 -1.09765625 8.33203125 C-1.01192832 5.40699414 -0.67849023 2.83683709 0 0 Z " fill="#000E01" transform="translate(306,501)"/>
<path d="M0 0 C5.46737191 1.74807129 10.75824848 3.65794081 16 6 C15.67 6.99 15.34 7.98 15 9 C6.585 5.535 6.585 5.535 -2 2 C-1.34 1.34 -0.68 0.68 0 0 Z " fill="#00E21E" transform="translate(253,552)"/>
<path d="M0 0 C-2.3350558 3.5025837 -3.56150721 3.87049659 -7.4375 5.25 C-8.88962891 5.78367187 -8.88962891 5.78367187 -10.37109375 6.328125 C-13 7 -13 7 -16 6 C-13.63078826 3.28787603 -11.32893261 2.07761003 -8 0.75 C-7.13375 0.39421875 -6.2675 0.0384375 -5.375 -0.328125 C-3 -1 -3 -1 0 0 Z " fill="#00E51E" transform="translate(758,546)"/>
<path d="M0 0 C0.99 0 1.98 0 3 0 C4.98 3.96 6.96 7.92 9 12 C5 11 5 11 3.515625 9.00390625 C2.88914062 7.79541016 2.88914062 7.79541016 2.25 6.5625 C1.82203125 5.75941406 1.3940625 4.95632813 0.953125 4.12890625 C0 2 0 2 0 0 Z " fill="#00E51E" transform="translate(275,419)"/>
</svg>
