<?xml version="1.0" encoding="UTF-8"?>
<svg version="1.1" xmlns="http://www.w3.org/2000/svg" width="128" height="128">
<path d="M0 0 C42.24 0 84.48 0 128 0 C128 42.24 128 84.48 128 128 C85.76 128 43.52 128 0 128 C0 85.76 0 43.52 0 0 Z " fill="#FEC922" transform="translate(0,0)"/>
<path d="M0 0 C1.70458374 0.07988159 1.70458374 0.07988159 3.44360352 0.16137695 C11.56009407 0.71000535 19.23537432 2.22160059 25.00366211 8.38745117 C28.42089172 12.74448582 31.27434396 16.91582461 31.37109375 22.5703125 C31.39623047 23.36050781 31.42136719 24.15070312 31.44726562 24.96484375 C31.48258675 26.62101193 31.51379908 28.27727256 31.54101562 29.93359375 C31.5806543 31.11501953 31.5806543 31.11501953 31.62109375 32.3203125 C31.64127563 33.39756592 31.64127563 33.39756592 31.66186523 34.49658203 C31.9340866 36.72739442 31.9340866 36.72739442 35.0625 38.3125 C35.50390625 40.40625 35.50390625 40.40625 35.625 42.8125 C35.72661746 46.50694584 35.72661746 46.50694584 38.0625 49.3125 C37.9375 51.75 37.9375 51.75 37.0625 54.3125 C35 56.125 35 56.125 33.0625 57.3125 C32.4025 56.9825 31.7425 56.6525 31.0625 56.3125 C30.5675 57.3025 30.5675 57.3025 30.0625 58.3125 C29.4025 58.3125 28.7425 58.3125 28.0625 58.3125 C27.835625 59.385 27.60875 60.4575 27.375 61.5625 C25.63459615 66.53508243 23.31268287 68.02668122 18.875 70.5625 C14.62551236 71.6956967 10.43411944 71.46529447 6.0625 71.3125 C6.3925 72.9625 6.7225 74.6125 7.0625 76.3125 C7.55234375 75.82136719 8.0421875 75.33023438 8.546875 74.82421875 C12.06628434 72.70929419 15.3394391 72.98811893 19.3125 73.125 C20.43011719 73.14530273 20.43011719 73.14530273 21.5703125 73.16601562 C23.40135416 73.20122796 25.23202169 73.25503149 27.0625 73.3125 C27.0625 74.3025 27.0625 75.2925 27.0625 76.3125 C28.5475 77.3025 28.5475 77.3025 30.0625 78.3125 C25.15625661 81.79114403 21.70769778 81.44462645 15.90234375 81.02734375 C12.91654464 81.01820901 12.91654464 81.01820901 11.06640625 83.37890625 C10.40511719 84.01699219 9.74382812 84.65507813 9.0625 85.3125 C7.0825 84.9825 5.1025 84.6525 3.0625 84.3125 C3.0625 90.9125 3.0625 97.5125 3.0625 104.3125 C-5.8475 104.3125 -14.7575 104.3125 -23.9375 104.3125 C-24.5975 98.3725 -25.2575 92.4325 -25.9375 86.3125 C-27.4225 87.3025 -27.4225 87.3025 -28.9375 88.3125 C-31.99718981 88.05210087 -34.34048775 87.62856531 -37.0625 86.1875 C-38.89052996 85.13067984 -38.89052996 85.13067984 -40.875 85.5625 C-42.98939674 86.2912061 -42.98939674 86.2912061 -45.125 87.375 C-49.07433462 88.69144487 -52.8117519 88.47429404 -56.9375 88.3125 C-56.9375 87.3225 -56.9375 86.3325 -56.9375 85.3125 C-55.4525 84.8175 -55.4525 84.8175 -53.9375 84.3125 C-53.6075 83.3225 -53.2775 82.3325 -52.9375 81.3125 C-49.3506728 79.44222581 -45.93827741 78.9095062 -41.9375 78.5625 C-40.926875 78.46453125 -39.91625 78.3665625 -38.875 78.265625 C-35.75327732 78.31543972 -33.73429031 78.97579875 -30.9375 80.3125 C-30.834375 79.549375 -30.73125 78.78625 -30.625 78 C-29.55653594 73.82327684 -27.45780527 72.65937018 -23.9375 70.3125 C-24.95070312 70.27511719 -25.96390625 70.23773438 -27.0078125 70.19921875 C-28.35940939 70.13351612 -29.71097029 70.06707029 -31.0625 70 C-31.72765625 69.97744141 -32.3928125 69.95488281 -33.078125 69.93164062 C-39.17037466 69.60313697 -43.15092513 67.896055 -47.6875 63.875 C-52.0622076 58.89269413 -52.15383229 55.80246876 -51.9375 49.3125 C-53.2575 48.6525 -54.5775 47.9925 -55.9375 47.3125 C-56.33602399 37.15013838 -56.33602399 37.15013838 -53.9375 33.3125 C-51.859375 32.6875 -51.859375 32.6875 -49.9375 32.3125 C-49.97230469 31.55066406 -50.00710937 30.78882812 -50.04296875 30.00390625 C-50.28533981 20.75918151 -49.12707728 13.28083929 -43.39453125 5.81640625 C-32.96589065 -4.94774021 -13.42223707 -0.80224234 0 0 Z " fill="#E7DAD1" transform="translate(73.9375,23.6875)"/>
<path d="M0 0 C11.12189221 -0.1052545 22.20047773 -0.00818772 33.3125 0.5 C45.54601206 1.05737467 57.75594212 1.10756369 70 1 C69 4 69 4 66.0625 5.6875 C61.46349544 7.52710182 56.87368665 7.26476769 52 7 C52.495 9.475 52.495 9.475 53 12 C53.48984375 11.50886719 53.9796875 11.01773438 54.484375 10.51171875 C58.00378434 8.39679419 61.2769391 8.67561893 65.25 8.8125 C65.99507813 8.82603516 66.74015625 8.83957031 67.5078125 8.85351562 C69.33885416 8.88872796 71.16952169 8.94253149 73 9 C73 9.99 73 10.98 73 12 C73.99 12.66 74.98 13.32 76 14 C71.09375661 17.47864403 67.64519778 17.13212645 61.83984375 16.71484375 C58.85404464 16.70570901 58.85404464 16.70570901 57.00390625 19.06640625 C56.01197266 20.02353516 56.01197266 20.02353516 55 21 C53.02 20.67 51.04 20.34 49 20 C49 26.6 49 33.2 49 40 C40.09 40 31.18 40 22 40 C21.34 34.06 20.68 28.12 20 22 C19.01 22.66 18.02 23.32 17 24 C13.94031019 23.73960087 11.59701225 23.31606531 8.875 21.875 C7.04697004 20.81817984 7.04697004 20.81817984 5.0625 21.25 C2.94810326 21.9787061 2.94810326 21.9787061 0.8125 23.0625 C-3.13683462 24.37894487 -6.8742519 24.16179404 -11 24 C-11 23.01 -11 22.02 -11 21 C-10.01 20.67 -9.02 20.34 -8 20 C-7.67 19.01 -7.34 18.02 -7 17 C-3.4131728 15.12972581 -0.00077741 14.5970062 4 14.25 C5.5159375 14.10304688 5.5159375 14.10304688 7.0625 13.953125 C10.18422268 14.00293972 12.20320969 14.66329875 15 16 C15.103125 15.236875 15.20625 14.47375 15.3125 13.6875 C16.38096406 9.51077684 18.47969473 8.34687018 22 6 C20.98679688 5.96261719 19.97359375 5.92523438 18.9296875 5.88671875 C17.57809061 5.82101612 16.22652971 5.75457029 14.875 5.6875 C14.20984375 5.66494141 13.5446875 5.64238281 12.859375 5.61914062 C8.24657715 5.37041133 4.93309026 4.42082303 1 2 C0.67 1.34 0.34 0.68 0 0 Z " fill="#B26842" transform="translate(28,88)"/>
<path d="M0 0 C1.70458374 0.07988159 1.70458374 0.07988159 3.44360352 0.16137695 C11.56009407 0.71000535 19.23537432 2.22160059 25.00366211 8.38745117 C28.42089172 12.74448582 31.27434396 16.91582461 31.37109375 22.5703125 C31.39623047 23.36050781 31.42136719 24.15070312 31.44726562 24.96484375 C31.48258675 26.62101193 31.51379908 28.27727256 31.54101562 29.93359375 C31.5806543 31.11501953 31.5806543 31.11501953 31.62109375 32.3203125 C31.64127563 33.39756592 31.64127563 33.39756592 31.66186523 34.49658203 C31.9340866 36.72739442 31.9340866 36.72739442 35.0625 38.3125 C35.50390625 40.40625 35.50390625 40.40625 35.625 42.8125 C35.72661746 46.50694584 35.72661746 46.50694584 38.0625 49.3125 C37.9375 51.75 37.9375 51.75 37.0625 54.3125 C35 56.125 35 56.125 33.0625 57.3125 C32.4025 56.9825 31.7425 56.6525 31.0625 56.3125 C30.5675 57.3025 30.5675 57.3025 30.0625 58.3125 C29.4025 58.3125 28.7425 58.3125 28.0625 58.3125 C28.0625 56.9925 28.0625 55.6725 28.0625 54.3125 C30.0425 54.6425 32.0225 54.9725 34.0625 55.3125 C33.4025 54.3225 32.7425 53.3325 32.0625 52.3125 C32.4375 49.625 32.4375 49.625 33.0625 47.3125 C31.5775 46.8175 31.5775 46.8175 30.0625 46.3125 C30.0625 45.3225 30.0625 44.3325 30.0625 43.3125 C29.4025 43.3125 28.7425 43.3125 28.0625 43.3125 C28.00642578 42.41724609 28.00642578 42.41724609 27.94921875 41.50390625 C27.48521232 35.380841 26.65877374 29.36120352 25.625 23.3125 C25.44167114 22.19983765 25.44167114 22.19983765 25.25463867 21.06469727 C24.63508949 17.55713909 24.06501148 15.31626722 22.0625 12.3125 C12.25361828 7.77637683 -0.0679721 8.59289481 -10.60888672 8.37988281 C-12.87635001 8.3339814 -15.14363066 8.27824745 -17.41064453 8.21386719 C-20.83623434 8.11922971 -24.26106324 8.05480897 -27.6875 8 C-28.75250732 7.97010986 -29.81751465 7.94021973 -30.91479492 7.90942383 C-36.43462102 7.81234351 -36.43462102 7.81234351 -41.47265625 9.74609375 C-43.64294779 13.54844453 -44.61980541 17.44693635 -45.625 21.6875 C-45.83705078 22.52539062 -46.04910156 23.36328125 -46.26757812 24.2265625 C-47.34909486 28.56627636 -48.28125259 32.88463288 -48.9375 37.3125 C-49.5975 37.3125 -50.2575 37.3125 -50.9375 37.3125 C-50.11996323 12.75820602 -50.11996323 12.75820602 -41.9375 4.3125 C-30.43869959 -4.1888603 -13.41749071 -0.80195866 0 0 Z " fill="#B5896F" transform="translate(73.9375,23.6875)"/>
<path d="M0 0 C0.9583374 0.04713135 1.9166748 0.0942627 2.90405273 0.14282227 C3.93852539 0.19116211 4.97299805 0.23950195 6.03881836 0.28930664 C7.12743164 0.34538086 8.21604492 0.40145508 9.33764648 0.45922852 C10.43012695 0.51143555 11.52260742 0.56364258 12.64819336 0.61743164 C15.35743724 0.74756999 18.06635442 0.88254906 20.77514648 1.02172852 C21.06389648 1.82610352 21.35264648 2.63047852 21.65014648 3.45922852 C22.50777216 6.15437531 22.50777216 6.15437531 24.77514648 7.02172852 C24.77514648 12.30172852 24.77514648 17.58172852 24.77514648 23.02172852 C16.19514648 23.02172852 7.61514648 23.02172852 -1.22485352 23.02172852 C-1.57547852 19.41235352 -1.92610352 15.80297852 -2.28735352 12.08422852 C-2.45763062 10.37505249 -2.45763062 10.37505249 -2.63134766 8.63134766 C-2.71505615 7.7405249 -2.79876465 6.84970215 -2.88500977 5.93188477 C-2.97403564 5.01544189 -3.06306152 4.09899902 -3.15478516 3.15478516 C-3.17790771 2.45087646 -3.20103027 1.74696777 -3.22485352 1.02172852 C-2.22485352 0.02172852 -2.22485352 0.02172852 0 0 Z " fill="#D9C2B3" transform="translate(51.224853515625,104.978271484375)"/>
<path d="M0 0 C11.12189221 -0.1052545 22.20047773 -0.00818772 33.3125 0.5 C45.54601206 1.05737467 57.75594212 1.10756369 70 1 C69 4 69 4 66.0625 5.6875 C61.46349544 7.52710182 56.87368665 7.26476769 52 7 C52.495 8.98 52.495 8.98 53 11 C51.02 11 49.04 11 47 11 C47.495 14.465 47.495 14.465 48 18 C47.34 17.67 46.68 17.34 46 17 C45.375 14.4375 45.375 14.4375 45 12 C43.98631348 12.02356567 43.98631348 12.02356567 42.95214844 12.04760742 C39.88485103 12.11003867 36.81768741 12.14901647 33.75 12.1875 C32.15478516 12.22520508 32.15478516 12.22520508 30.52734375 12.26367188 C29.50253906 12.27333984 28.47773437 12.28300781 27.421875 12.29296875 C26.47924805 12.3086792 25.53662109 12.32438965 24.56542969 12.34057617 C21.57689826 11.94383071 20.22310783 10.98295729 18 9 C19.32 8.01 20.64 7.02 22 6 C20.98679687 5.96261719 19.97359375 5.92523438 18.9296875 5.88671875 C17.57809061 5.82101612 16.22652971 5.75457029 14.875 5.6875 C14.20984375 5.66494141 13.5446875 5.64238281 12.859375 5.61914062 C8.24657715 5.37041133 4.93309026 4.42082303 1 2 C0.67 1.34 0.34 0.68 0 0 Z " fill="#A66842" transform="translate(28,88)"/>
<path d="M0 0 C0.33 0 0.66 0 1 0 C1 2.31 1 4.62 1 7 C1.66 7.33 2.32 7.66 3 8 C3.99 8.66 4.98 9.32 6 10 C6 9.34 6 8.68 6 8 C7.60379341 7.94583812 9.20811406 7.90713362 10.8125 7.875 C11.70582031 7.85179688 12.59914063 7.82859375 13.51953125 7.8046875 C16 8 16 8 19 10 C22.78446858 9.75584074 25.80740842 9.52073776 29.28125 8.00390625 C32.7494329 6.72326975 35.94205401 6.45990725 39.625 6.1875 C40.93726563 6.07792969 42.24953125 5.96835938 43.6015625 5.85546875 C47 6 47 6 48.9609375 7.30078125 C50 9 50 9 50 12 C52.5627992 11.68981396 55.1252211 11.37693109 57.6875 11.0625 C58.40873047 10.97548828 59.12996094 10.88847656 59.87304688 10.79882812 C63.62010584 10.33686195 67.30792911 9.80832321 71 9 C70.67 9.99 70.34 10.98 70 12 C73.34252724 12.07427838 75.8035914 12.06546953 79 11 C78.625 13.4375 78.625 13.4375 78 16 C75.19024372 17.40487814 72.84652682 17.14787414 69.703125 17.16796875 C69.05383026 17.17233948 68.40453552 17.17671021 67.73556519 17.18121338 C59.15632875 17.22234869 50.57801344 17.13961265 42 17 C41.13548218 16.98622314 40.27096436 16.97244629 39.38024902 16.95825195 C34.13676081 16.86684216 28.89762859 16.72605404 23.65710449 16.52700806 C21.97331253 16.46748723 20.28906979 16.41955424 18.60461426 16.38339233 C16.23643424 16.32907924 13.87398648 16.23084546 11.5078125 16.12109375 C10.80510223 16.11346008 10.10239197 16.10582642 9.37838745 16.09796143 C7.40283203 15.97827148 7.40283203 15.97827148 4 15 C-0.07578477 10.28946567 -0.41511788 5.91542972 0 0 Z " fill="#D4B9A8" transform="translate(22,73)"/>
<path d="M0 0 C4.87089857 0.09490267 9.7413774 0.20126134 14.61181641 0.31738281 C16.26214088 0.35521811 17.91253519 0.39014187 19.56298828 0.421875 C29.87099512 0.6223955 39.82025449 1.23672635 50 3 C50.33 2.01 50.66 1.02 51 0 C55.2215914 1.32104221 56.93842126 2.7528092 59.25 6.5 C59.75015625 7.2940625 60.2503125 8.088125 60.765625 8.90625 C62.5214875 11.88454842 63.12838688 13.62718257 63.2109375 17.0625 C63.23929688 17.85914062 63.26765625 18.65578125 63.296875 19.4765625 C63.34895141 21.15863063 63.39322511 22.84095848 63.4296875 24.5234375 C63.460625 25.32007812 63.4915625 26.11671875 63.5234375 26.9375 C63.5531665 28.03384766 63.5531665 28.03384766 63.58349609 29.15234375 C63.86949311 31.41111322 63.86949311 31.41111322 67 33 C67.44140625 35.09375 67.44140625 35.09375 67.5625 37.5 C67.66411746 41.19444584 67.66411746 41.19444584 70 44 C69.875 46.4375 69.875 46.4375 69 49 C66.9375 50.8125 66.9375 50.8125 65 52 C64.01 51.505 64.01 51.505 63 51 C62.505 51.99 62.505 51.99 62 53 C61.34 53 60.68 53 60 53 C60 51.68 60 50.36 60 49 C62.97 49.495 62.97 49.495 66 50 C65.34 49.01 64.68 48.02 64 47 C64.375 44.3125 64.375 44.3125 65 42 C63.515 41.505 63.515 41.505 62 41 C62 40.01 62 39.02 62 38 C61.34 38 60.68 38 60 38 C59.94392578 37.10474609 59.94392578 37.10474609 59.88671875 36.19140625 C59.42271232 30.068341 58.59627374 24.04870352 57.5625 18 C57.44028076 17.2582251 57.31806152 16.5164502 57.19213867 15.75219727 C56.57258949 12.24463909 56.00251148 10.00376722 54 7 C44.56003652 3.05060589 33.69180251 3.28759053 23.625 2.875 C21.1993144 2.76625737 18.77384479 2.65403998 16.34848022 2.5383606 C14.85278282 2.46797832 13.35686902 2.40199988 11.86074829 2.34127808 C7.83637403 2.16246853 3.95812393 1.74983814 0 1 C0 0.67 0 0.34 0 0 Z " fill="#76523E" transform="translate(42,29)"/>
<path d="M0 0 C11.12189221 -0.1052545 22.20047773 -0.00818772 33.3125 0.5 C45.54601206 1.05737467 57.75594212 1.10756369 70 1 C69 4 69 4 65.75 5.6875 C62.40075427 6.85973601 60.45728968 7.46720131 57 7 C56.38679901 6.66725571 55.77359802 6.33451141 55.14181519 5.99168396 C52.69152834 4.85717423 51.10547011 4.77468582 48.41845703 4.82055664 C47.51717072 4.83039078 46.6158844 4.84022491 45.68728638 4.85035706 C44.72056 4.87009079 43.75383362 4.88982452 42.7578125 4.91015625 C40.7018253 4.93057983 38.64583561 4.95075438 36.58984375 4.97070312 C33.35519816 5.01417558 30.12071955 5.06257131 26.88623047 5.11645508 C23.76009681 5.16483175 20.63418531 5.19464103 17.5078125 5.22265625 C16.54513458 5.24441422 15.58245667 5.26617218 14.59060669 5.28858948 C9.30276273 5.3275203 5.54533333 5.0439065 1 2 C0.67 1.34 0.34 0.68 0 0 Z " fill="#AE7650" transform="translate(28,88)"/>
<path d="M0 0 C0.66 0 1.32 0 2 0 C1.625 2.4375 1.625 2.4375 1 5 C-3.69205502 7.34602751 -10.51396841 6.19264921 -15.75 6.1875 C-16.4887738 6.1882251 -17.22754761 6.1889502 -17.9887085 6.18969727 C-36.35857862 6.18772715 -54.67121781 5.14118598 -73 4 C-73 3.34 -73 2.68 -73 2 C-66.55176902 1.90359788 -60.17706272 1.93384435 -53.75 2.5 C-46.91677249 3.03096025 -40.10278421 3.14743695 -33.25 3.1875 C-32.19651367 3.20039062 -31.14302734 3.21328125 -30.05761719 3.2265625 C-24.1990283 3.23393411 -18.8615876 2.7319791 -13.14794922 1.44311523 C-10.54066968 0.90524159 -8.09330158 0.8309269 -5.4375 0.9375 C-3.959138 0.99054575 -2.47916548 1.02091749 -1 1 C-0.67 0.67 -0.34 0.34 0 0 Z " fill="#C3A189" transform="translate(99,84)"/>
<path d="M0 0 C0.99 0.33 1.98 0.66 3 1 C3 3.64 3 6.28 3 9 C-2.625 9.25 -2.625 9.25 -6 7 C-8.32387947 6.60612212 -10.65793749 6.26513915 -13 6 C-13 6.66 -13 7.32 -13 8 C-17.62 8.66 -22.24 9.32 -27 10 C-26 8 -26 8 -23 7 C-22.67 6.01 -22.34 5.02 -22 4 C-18.4131728 2.12972581 -15.00077741 1.5970062 -11 1.25 C-9.4840625 1.10304688 -9.4840625 1.10304688 -7.9375 0.953125 C-4.81577732 1.00293972 -2.79679031 1.66329875 0 3 C0 2.01 0 1.02 0 0 Z " fill="#F3D4C3" transform="translate(43,101)"/>
<path d="M0 0 C2.39642114 3.11534748 2.65141602 5.56204437 2.875 9.4375 C-0.125 8.4375 -0.125 8.4375 -2.125 5.4375 C-4.65194252 4.99605757 -4.65194252 4.99605757 -7.5 5.125 C-8.45648438 5.12886719 -9.41296875 5.13273437 -10.3984375 5.13671875 C-13.15790498 5.44112992 -14.69645656 6.18325226 -17.125 7.4375 C-18.445 7.4375 -19.765 7.4375 -21.125 7.4375 C-21 4.625 -21 4.625 -20.125 1.4375 C-14.54870564 -2.96483766 -6.21819858 -3.10909929 0 0 Z " fill="#9C7650" transform="translate(94.125,47.5625)"/>
<path d="M0 0 C0.71115967 0.15847412 1.42231934 0.31694824 2.1550293 0.48022461 C4.97891634 0.99614802 7.65298992 1.20430687 10.51953125 1.31640625 C11.54111328 1.35830078 12.56269531 1.40019531 13.61523438 1.44335938 C14.67033203 1.48267578 15.72542969 1.52199219 16.8125 1.5625 C18.42415039 1.62727539 18.42415039 1.62727539 20.06835938 1.69335938 C22.71212082 1.79910983 25.3559711 1.90120233 28 2 C28.495 3.98 28.495 3.98 29 6 C28.34 5.67 27.68 5.34 27 5 C25.26131256 4.84733388 23.51752499 4.75067404 21.7734375 4.68359375 C20.7421875 4.64169922 19.7109375 4.59980469 18.6484375 4.55664062 C17.56820312 4.51732422 16.48796875 4.47800781 15.375 4.4375 C14.28703125 4.39431641 13.1990625 4.35113281 12.078125 4.30664062 C9.3855483 4.2003547 6.69287747 4.09831943 4 4 C4.05027344 5.670625 4.05027344 5.670625 4.1015625 7.375 C4 11 4 11 2.375 13 C-0.83189759 14.35027267 -2.67384603 13.90083337 -6 13 C-6.70125 12.62875 -7.4025 12.2575 -8.125 11.875 C-9.95302996 10.81817984 -9.95302996 10.81817984 -11.9375 11.25 C-14.05189674 11.9787061 -14.05189674 11.9787061 -16.1875 13.0625 C-20.13683462 14.37894487 -23.8742519 14.16179404 -28 14 C-27.67 13.34 -27.34 12.68 -27 12 C-23.01624339 10.82830688 -19.12560776 10.91910573 -15 11 C-15 10.34 -15 9.68 -15 9 C-8.375 8.75 -8.375 8.75 -5 11 C-3.0103005 11.39013716 -1.00980131 11.73202649 1 12 C0.835 10.7625 0.67 9.525 0.5 8.25 C0.12290556 5.42179168 0 2.88435938 0 0 Z " fill="#BB7A4E" transform="translate(45,98)"/>
<path d="M0 0 C3.11693069 1.2127131 5.66130456 2.5864663 8 5 C8.5 8.3125 8.5 8.3125 8 11 C5.12054901 10.06250433 2.31426426 9.14504504 -0.4375 7.875 C-3.78950528 6.73041283 -6.48302893 6.67435453 -10 7 C-11.81476003 8.39585785 -11.81476003 8.39585785 -13 10 C-13.66 10 -14.32 10 -15 10 C-14.75210718 6.36423871 -14.37473207 4.44499433 -12 1.625 C-7.85374729 -0.62088688 -4.61486451 -0.87865798 0 0 Z " fill="#B18A65" transform="translate(44,43)"/>
<path d="M0 0 C3.74959217 -0.14528105 7.49846105 -0.23406281 11.25 -0.3125 C12.84521484 -0.3753418 12.84521484 -0.3753418 14.47265625 -0.43945312 C22.40091207 -0.56411124 22.40091207 -0.56411124 25.609375 2.45703125 C26.06828125 3.29621094 26.5271875 4.13539062 27 5 C27.66 5.33 28.32 5.66 29 6 C28.67 12.6 28.34 19.2 28 26 C27.67 26 27.34 26 27 26 C26.80327635 24.27185839 26.61803201 22.54240803 26.4375 20.8125 C26.33308594 19.84957031 26.22867188 18.88664062 26.12109375 17.89453125 C26.00241249 15.05766623 26.32234361 12.74576329 27 10 C25.68 9.34 24.36 8.68 23 8 C23 6.68 23 5.36 23 4 C21.75863281 4.01160156 20.51726562 4.02320312 19.23828125 4.03515625 C17.59635568 4.04453868 15.95442847 4.0536384 14.3125 4.0625 C13.08756836 4.07506836 13.08756836 4.07506836 11.83789062 4.08789062 C7.75500916 4.10442051 3.98348293 4.03035098 0 3 C0 2.01 0 1.02 0 0 Z " fill="#CA9573" transform="translate(49,102)"/>
<path d="M0 0 C2.375 -0.4375 2.375 -0.4375 5 0 C7.79035429 2.2477854 8.85910005 3.57730016 10 7 C10.66 6.67 11.32 6.34 12 6 C10.66666667 8.66666667 9.33333333 11.33333333 8 14 C4.0914828 13.72731275 2.21403214 13.16393951 -0.9375 10.75 C-3 8 -3 8 -2.9375 5.375 C-2 3 -2 3 0 0 Z " fill="#C4CBD0" transform="translate(81,62)"/>
<path d="M0 0 C11.12189221 -0.1052545 22.20047773 -0.00818772 33.3125 0.5 C45.54601206 1.05737467 57.75594212 1.10756369 70 1 C69.67 1.99 69.34 2.98 69 4 C62.375 5.125 62.375 5.125 59 4 C56.30608577 3.85813807 53.63318688 3.76673978 50.9375 3.71875 C50.14980225 3.70034058 49.36210449 3.68193115 48.55053711 3.66296387 C46.03376677 3.60425169 43.51692937 3.55141494 41 3.5 C37.68735677 3.4323305 34.3749282 3.35866535 31.0625 3.28125 C30.29993896 3.26767456 29.53737793 3.25409912 28.75170898 3.2401123 C25.58983344 3.16575107 23.02047663 3.00682554 20 2 C18.51876453 1.9193378 17.03417796 1.89238807 15.55078125 1.90234375 C14.70322266 1.90556641 13.85566406 1.90878906 12.98242188 1.91210938 C11.66081055 1.92467773 11.66081055 1.92467773 10.3125 1.9375 C8.97348633 1.94426758 8.97348633 1.94426758 7.60742188 1.95117188 C5.40488013 1.96295017 3.20247401 1.97939836 1 2 C0.67 1.34 0.34 0.68 0 0 Z " fill="#B78A6C" transform="translate(28,88)"/>
<path d="M0 0 C4.87089857 0.09490267 9.7413774 0.20126134 14.61181641 0.31738281 C16.26214088 0.35521811 17.91253519 0.39014187 19.56298828 0.421875 C29.87099512 0.6223955 39.82025449 1.23672635 50 3 C50.33 2.01 50.66 1.02 51 0 C56.29500913 1.36157378 58.23745533 4.60343955 61 9 C60.01 9.33 59.02 9.66 58 10 C57.505 9.0409375 57.505 9.0409375 57 8.0625 C54.5249525 5.51010727 52.6081486 5.41428471 49.1328125 5.17578125 C47 5 47 5 44.8762207 4.52026367 C41.21132771 3.85734143 37.56024184 3.67717208 33.84765625 3.5 C33.06990341 3.45939453 32.29215057 3.41878906 31.49082947 3.37695312 C29.01488376 3.2478222 26.5387392 3.1233662 24.0625 3 C20.80316867 2.83727181 17.54411871 2.66993717 14.28515625 2.5 C13.54435318 2.46455078 12.80355011 2.42910156 12.04029846 2.39257812 C7.96176044 2.17978636 4.01349229 1.75793304 0 1 C0 0.67 0 0.34 0 0 Z " fill="#906449" transform="translate(42,29)"/>
<path d="M0 0 C2.84304621 0.32193984 5.64826135 0.68766851 8.44921875 1.27734375 C8.44921875 1.60734375 8.44921875 1.93734375 8.44921875 2.27734375 C7.5571875 2.303125 6.66515625 2.32890625 5.74609375 2.35546875 C4.575625 2.4121875 3.40515625 2.46890625 2.19921875 2.52734375 C0.45898438 2.59695312 0.45898438 2.59695312 -1.31640625 2.66796875 C-5.24582086 3.40829324 -6.29094682 3.99123104 -8.55078125 7.27734375 C-9.70446288 10.34588365 -10.48284182 13.46540958 -11.23828125 16.65234375 C-11.45033203 17.49023438 -11.66238281 18.328125 -11.88085938 19.19140625 C-12.96237611 23.53112011 -13.89453384 27.84947663 -14.55078125 32.27734375 C-15.21078125 32.27734375 -15.87078125 32.27734375 -16.55078125 32.27734375 C-15.90266102 12.81138786 -15.90266102 12.81138786 -12.55078125 6.27734375 C-12.23496094 5.66117188 -11.91914063 5.045 -11.59375 4.41015625 C-8.49530939 -0.34151592 -5.17007906 -0.31685088 0 0 Z " fill="#AE7F5E" transform="translate(39.55078125,28.72265625)"/>
<path d="M0 0 C1.9375 0.375 1.9375 0.375 4 1 C4.33 1.66 4.66 2.32 5 3 C5.66 2.34 6.32 1.68 7 1 C8.54163175 4.0832635 8.29747535 6.60878099 8 10 C6.4375 11.9375 6.4375 11.9375 4 13 C-0.38939738 13.38503486 -2.28986601 13.47342266 -6 11 C-5.67 10.34 -5.34 9.68 -5 9 C-2.36 9.66 0.28 10.32 3 11 C3 10.34 3 9.68 3 9 C2.21625 8.87625 1.4325 8.7525 0.625 8.625 C-2 8 -2 8 -4 6 C-4 4.68 -4 3.36 -4 2 C-2.68 2 -1.36 2 0 2 C0 1.34 0 0.68 0 0 Z " fill="#DFC6B8" transform="translate(40,59)"/>
<path d="M0 0 C1.09054688 0.02320312 2.18109375 0.04640625 3.3046875 0.0703125 C4.40039062 0.08835937 5.49609375 0.10640625 6.625 0.125 C7.46804687 0.14820312 8.31109375 0.17140625 9.1796875 0.1953125 C9.1796875 1.1853125 9.1796875 2.1753125 9.1796875 3.1953125 C10.1696875 3.8553125 11.1596875 4.5153125 12.1796875 5.1953125 C7.67971731 8.57029014 4.6092506 8.54560689 -0.8203125 8.1953125 C-1.8103125 7.8653125 -2.8003125 7.5353125 -3.8203125 7.1953125 C-4.4453125 4.8203125 -4.4453125 4.8203125 -4.8203125 2.1953125 C-2.8203125 0.1953125 -2.8203125 0.1953125 0 0 Z " fill="#D79764" transform="translate(91.8203125,96.8046875)"/>
<path d="M0 0 C2.475 0.99 2.475 0.99 5 2 C5.04898438 2.62648437 5.09796875 3.25296875 5.1484375 3.8984375 C5.22320312 4.71570313 5.29796875 5.53296875 5.375 6.375 C5.44460937 7.18710938 5.51421875 7.99921875 5.5859375 8.8359375 C5.82892588 11.20334191 5.82892588 11.20334191 8 13 C7.875 15.4375 7.875 15.4375 7 18 C4.9375 19.8125 4.9375 19.8125 3 21 C2.34 20.67 1.68 20.34 1 20 C0.67 20.66 0.34 21.32 0 22 C-0.66 22 -1.32 22 -2 22 C-2 20.68 -2 19.36 -2 18 C-0.02 18.33 1.96 18.66 4 19 C3.34 18.01 2.68 17.02 2 16 C2.375 13.3125 2.375 13.3125 3 11 C2.01 10.67 1.02 10.34 0 10 C0 9.01 0 8.02 0 7 C-0.66 6.67 -1.32 6.34 -2 6 C-1.34 6 -0.68 6 0 6 C0 4.02 0 2.04 0 0 Z " fill="#D4B184" transform="translate(104,60)"/>
<path d="M0 0 C0.72896484 0.00064453 1.45792969 0.00128906 2.20898438 0.00195312 C6.38578863 0.03578862 10.32451397 0.37529897 14.4375 1.1875 C14.4375 1.8475 14.4375 2.5075 14.4375 3.1875 C8.86769403 4.35370728 3.41306043 4.37110786 -2.25 4.375 C-3.19939453 4.38724609 -4.14878906 4.39949219 -5.12695312 4.41210938 C-6.49303711 4.41500977 -6.49303711 4.41500977 -7.88671875 4.41796875 C-9.1255481 4.42413208 -9.1255481 4.42413208 -10.3894043 4.43041992 C-12.5625 4.1875 -12.5625 4.1875 -15.5625 2.1875 C-10.21963831 0.4065461 -5.61184749 -0.09477787 0 0 Z " fill="#97421C" transform="translate(63.5625,93.8125)"/>
<path d="M0 0 C0.66 0 1.32 0 2 0 C2.495 1.98 2.495 1.98 3 4 C1.02 4 -0.96 4 -3 4 C-2.67 6.31 -2.34 8.62 -2 11 C-2.66 10.67 -3.32 10.34 -4 10 C-4.625 7.4375 -4.625 7.4375 -5 5 C-5.67579102 5.01571045 -6.35158203 5.0314209 -7.04785156 5.04760742 C-10.11514897 5.11003867 -13.18231259 5.14901647 -16.25 5.1875 C-17.84521484 5.22520508 -17.84521484 5.22520508 -19.47265625 5.26367188 C-20.49746094 5.27333984 -21.52226563 5.28300781 -22.578125 5.29296875 C-23.52075195 5.3086792 -24.46337891 5.32438965 -25.43457031 5.34057617 C-28.42310174 4.94383071 -29.77689217 3.98295729 -32 2 C-31.34 1.67 -30.68 1.34 -30 1 C-29.01 1.33 -28.02 1.66 -27 2 C-24.93501108 2.08315752 -22.8674211 2.10735878 -20.80078125 2.09765625 C-18.98803711 2.09282227 -18.98803711 2.09282227 -17.13867188 2.08789062 C-15.87603516 2.07951172 -14.61339844 2.07113281 -13.3125 2.0625 C-12.03826172 2.05798828 -10.76402344 2.05347656 -9.45117188 2.04882812 C-6.30073436 2.03702873 -3.15039051 2.02056597 0 2 C0 1.34 0 0.68 0 0 Z " fill="#B05D39" transform="translate(78,95)"/>
<path d="M0 0 C0.99 0.33 1.98 0.66 3 1 C3 3.64 3 6.28 3 9 C-2.625 9.25 -2.625 9.25 -6 7 C-7.65549531 6.61500109 -9.3222433 6.27206865 -11 6 C-9.4375 3.9375 -9.4375 3.9375 -7 2 C-3.25 2.25 -3.25 2.25 0 3 C0 2.01 0 1.02 0 0 Z " fill="#D6A081" transform="translate(43,101)"/>
<path d="M0 0 C0.98484375 0.01804688 1.9696875 0.03609375 2.984375 0.0546875 C4.10585937 0.08949219 4.10585937 0.08949219 5.25 0.125 C4.60546875 0.41117188 3.9609375 0.69734375 3.296875 0.9921875 C1.05115872 1.93918662 1.05115872 1.93918662 0.5 4.25 C0.4175 4.86875 0.335 5.4875 0.25 6.125 C-6.375 8.125 -6.375 8.125 -9.75 8.125 C-9.42 7.135 -9.09 6.145 -8.75 5.125 C-10.4 4.795 -12.05 4.465 -13.75 4.125 C-12.41666667 3.45833333 -11.08333333 2.79166667 -9.75 2.125 C-9.1621875 1.774375 -8.574375 1.42375 -7.96875 1.0625 C-5.18263288 -0.11473259 -3.01291751 -0.07173613 0 0 Z " fill="#D8B6A2" transform="translate(86.75,51.875)"/>
<path d="M0 0 C0 0.66 0 1.32 0 2 C-1.32 2 -2.64 2 -4 2 C-4.16677282 5.41656024 -4.16677282 5.41656024 -4 9 C-1.8614515 11.1385485 -0.86724686 11.42655063 2 12 C2 12.66 2 13.32 2 14 C-1.69212837 14.3434538 -3.60790131 14.221621 -6.875 12.375 C-9 10 -9 10 -9.5625 7 C-8.50551427 1.36274275 -5.61589497 -0.62398833 0 0 Z " fill="#DDE8EE" transform="translate(41,56)"/>
<path d="M0 0 C0.75410156 0.00322266 1.50820313 0.00644531 2.28515625 0.00976562 C3.06246094 0.01814453 3.83976562 0.02652344 4.640625 0.03515625 C5.43339844 0.03966797 6.22617187 0.04417969 7.04296875 0.04882812 C8.99222008 0.0605706 10.94143238 0.07850479 12.890625 0.09765625 C12.890625 0.42765625 12.890625 0.75765625 12.890625 1.09765625 C11.99859375 1.1234375 11.1065625 1.14921875 10.1875 1.17578125 C9.01703125 1.2325 7.8465625 1.28921875 6.640625 1.34765625 C4.90039062 1.41726562 4.90039062 1.41726562 3.125 1.48828125 C-0.63616073 2.19690574 -1.64340133 3.28251816 -4.109375 6.09765625 C-7.58262681 7.25540685 -10.47004948 7.16632277 -14.109375 7.09765625 C-14.439375 6.43765625 -14.769375 5.77765625 -15.109375 5.09765625 C-9.9412196 2.01664053 -6.12063845 -0.04636847 0 0 Z " fill="#C29875" transform="translate(47.109375,22.90234375)"/>
<path d="M0 0 C2.75283701 0.0444006 4.10600957 0.21029953 6.625 1.4375 C8.60069987 3.72931185 9.03696418 5.23928361 9.1875 8.25 C8.1975 9.735 8.1975 9.735 7.1875 11.25 C6.5275 10.92 5.8675 10.59 5.1875 10.25 C4.84407551 8.91923011 4.51130126 7.58568021 4.1875 6.25 C2.36278109 4.03103864 2.36278109 4.03103864 -0.25 3.875 C-2.96776007 3.99530409 -2.96776007 3.99530409 -4.625 6.25 C-5.016875 6.91 -5.40875 7.57 -5.8125 8.25 C-4.80258115 0.31492335 -4.80258115 0.31492335 0 0 Z " fill="#CAD3DA" transform="translate(83.8125,58.75)"/>
<path d="M0 0 C0.71115967 0.15847412 1.42231934 0.31694824 2.1550293 0.48022461 C4.97891634 0.99614802 7.65298992 1.20430687 10.51953125 1.31640625 C11.54111328 1.35830078 12.56269531 1.40019531 13.61523438 1.44335938 C14.67033203 1.48267578 15.72542969 1.52199219 16.8125 1.5625 C18.42415039 1.62727539 18.42415039 1.62727539 20.06835938 1.69335938 C22.71212082 1.79910983 25.3559711 1.90120233 28 2 C28.33 3.32 28.66 4.64 29 6 C28.34 5.67 27.68 5.34 27 5 C25.26131256 4.84733388 23.51752499 4.75067404 21.7734375 4.68359375 C20.7421875 4.64169922 19.7109375 4.59980469 18.6484375 4.55664062 C17.56820312 4.51732422 16.48796875 4.47800781 15.375 4.4375 C14.28703125 4.39431641 13.1990625 4.35113281 12.078125 4.30664062 C9.3855483 4.2003547 6.69287747 4.09831943 4 4 C3.67 4.66 3.34 5.32 3 6 C0 2.25 0 2.25 0 0 Z " fill="#BB714F" transform="translate(45,98)"/>
<path d="M0 0 C2.5625 0.1875 2.5625 0.1875 4.5625 2.1875 C4.1875 4.8125 4.1875 4.8125 3.5625 7.1875 C1.1875 7.8125 1.1875 7.8125 -1.4375 8.1875 C-3.4375 6.1875 -3.4375 6.1875 -3.625 3.625 C-3.37291261 0.34786389 -3.27713611 0.25208739 0 0 Z " fill="#0C1115" transform="translate(83.4375,61.8125)"/>
<path d="M0 0 C0.99 0 1.98 0 3 0 C2.67 1.65 2.34 3.3 2 5 C2.66 5 3.32 5 4 5 C3.71125 5.556875 3.4225 6.11375 3.125 6.6875 C1.93364233 9.02189686 1.93364233 9.02189686 1.0625 11.6875 C0.711875 12.450625 0.36125 13.21375 0 14 C-0.99 14.33 -1.98 14.66 -3 15 C-3.37379162 5.46831364 -3.37379162 5.46831364 -1 1 C-0.67 0.67 -0.34 0.34 0 0 Z " fill="#F7DDBB" transform="translate(21,56)"/>
<path d="M0 0 C1.32 0.33 2.64 0.66 4 1 C4.04254356 2.99954746 4.04080783 5.00041636 4 7 C3 8 3 8 0.5625 8.1875 C-2 8 -2 8 -4 6 C-4 4.68 -4 3.36 -4 2 C-2.68 2 -1.36 2 0 2 C0 1.34 0 0.68 0 0 Z " fill="#0F1518" transform="translate(40,59)"/>
<path d="M0 0 C1.9453125 -0.29296875 1.9453125 -0.29296875 4.125 -0.1875 C5.40375 -0.125625 6.6825 -0.06375 8 0 C7.67 2.31 7.34 4.62 7 7 C2.25 6.125 2.25 6.125 0 5 C-0.33 5.66 -0.66 6.32 -1 7 C-1.625 5.1875 -1.625 5.1875 -2 3 C-1.34 2.01 -0.68 1.02 0 0 Z " fill="#BB7954" transform="translate(76,102)"/>
<path d="M0 0 C0.33 0 0.66 0 1 0 C1 2.31 1 4.62 1 7 C1.66 7.33 2.32 7.66 3 8 C3.99 8.66 4.98 9.32 6 10 C6 9.34 6 8.68 6 8 C7.60332791 7.91878076 9.20784026 7.86070866 10.8125 7.8125 C11.70582031 7.77769531 12.59914063 7.74289063 13.51953125 7.70703125 C16.41647515 8.04918998 17.22555028 8.75393573 19 11 C16.20775927 11.08071788 13.41783434 11.14035408 10.625 11.1875 C9.8309375 11.21263672 9.036875 11.23777344 8.21875 11.26367188 C6.14413852 11.29004405 4.06899135 11.15486462 2 11 C-0.67927341 6.98108988 -0.15601248 4.75838077 0 0 Z " fill="#E2CCB4" transform="translate(22,73)"/>
<path d="M0 0 C1.32 0.66 2.64 1.32 4 2 C3.01 4.31 2.02 6.62 1 9 C2.32 8.01 3.64 7.02 5 6 C5.66 6.33 6.32 6.66 7 7 C5.1875 9 5.1875 9 3 11 C2.01 11 1.02 11 0 11 C-0.66 12.32 -1.32 13.64 -2 15 C-2.19392201 9.47322267 -1.7479503 5.24385089 0 0 Z " fill="#F1E8E1" transform="translate(28,44)"/>
<path d="M0 0 C0.66 0 1.32 0 2 0 C1.67 1.65 1.34 3.3 1 5 C0.01 4.67 -0.98 4.34 -2 4 C-3.48123547 3.9193378 -4.96582204 3.89238807 -6.44921875 3.90234375 C-7.29677734 3.90556641 -8.14433594 3.90878906 -9.01757812 3.91210938 C-10.33918945 3.92467773 -10.33918945 3.92467773 -11.6875 3.9375 C-13.02651367 3.94426758 -13.02651367 3.94426758 -14.39257812 3.95117188 C-16.59511987 3.96295017 -18.79752599 3.97939836 -21 4 C-21 3.67 -21 3.34 -21 3 C-14.87849588 1.54125859 -9.232189 0.80134111 -2.93359375 1.02734375 C-0.9922203 1.22456616 -0.9922203 1.22456616 0 0 Z " fill="#C7A892" transform="translate(99,84)"/>
<path d="M0 0 C6.6 0.33 13.2 0.66 20 1 C16.58189003 2.70905498 14.92884181 3.32287711 11.3125 3.6875 C10.52488281 3.77386719 9.73726562 3.86023438 8.92578125 3.94921875 C8.29027344 3.96597656 7.65476562 3.98273438 7 4 C6.67 3.67 6.34 3.34 6 3 C3.66702567 2.95907063 1.33294775 2.95758277 -1 3 C-0.67 2.01 -0.34 1.02 0 0 Z " fill="#D3AC95" transform="translate(49,105)"/>
<path d="M0 0 C1.134375 0.020625 2.26875 0.04125 3.4375 0.0625 C3.4375 1.0525 3.4375 2.0425 3.4375 3.0625 C5.7475 3.0625 8.0575 3.0625 10.4375 3.0625 C10.4375 3.3925 10.4375 3.7225 10.4375 4.0625 C5.8175 4.3925 1.1975 4.7225 -3.5625 5.0625 C-3.8925 3.7425 -4.2225 2.4225 -4.5625 1.0625 C-3.5625 0.0625 -3.5625 0.0625 0 0 Z " fill="#DDAC96" transform="translate(93.5625,97.9375)"/>
<path d="M0 0 C0 0.33 0 0.66 0 1 C-0.93972656 1.12955078 -0.93972656 1.12955078 -1.8984375 1.26171875 C-4.36557057 1.68587885 -6.64503335 2.14561983 -9 3 C-10.38858872 5.42885788 -10.38858872 5.42885788 -11 8 C-13.125 9.3125 -13.125 9.3125 -15 10 C-14.75210718 6.36423871 -14.37473207 4.44499433 -12 1.625 C-7.92755247 -0.58090908 -4.53359033 -0.35557571 0 0 Z " fill="#C09D7C" transform="translate(44,43)"/>
<path d="M0 0 C1.32 0.33 2.64 0.66 4 1 C3.64950425 4.24208567 3.43778819 5.61527704 0.9375 7.8125 C0.298125 8.204375 -0.34125 8.59625 -1 9 C-1.66 8.67 -2.32 8.34 -3 8 C-3.33 8.66 -3.66 9.32 -4 10 C-4.66 10 -5.32 10 -6 10 C-6 8.68 -6 7.36 -6 6 C-3.03 6.495 -3.03 6.495 0 7 C-0.66 5.35 -1.32 3.7 -2 2 C-1.34 2 -0.68 2 0 2 C0 2.66 0 3.32 0 4 C0.99 4 1.98 4 3 4 C2.01 2.68 1.02 1.36 0 0 Z " fill="#64523B" transform="translate(108,72)"/>
<path d="M0 0 C5.02470674 2.37277818 6.56030983 5.21097855 9 10 C7.125 9.6875 7.125 9.6875 5 9 C4.34 8.01 3.68 7.02 3 6 C0.41619823 5.74969023 0.41619823 5.74969023 -2 6 C-1.34 5.67 -0.68 5.34 0 5 C0 3.35 0 1.7 0 0 Z " fill="#906C52" transform="translate(94,29)"/>
<path d="M0 0 C0.66 0 1.32 0 2 0 C2.33 1.32 2.66 2.64 3 4 C1.02 4 -0.96 4 -3 4 C-2.67 6.31 -2.34 8.62 -2 11 C-4 10 -4 10 -4.6328125 8.15234375 C-4.79523438 7.42144531 -4.95765625 6.69054687 -5.125 5.9375 C-5.29257813 5.20402344 -5.46015625 4.47054687 -5.6328125 3.71484375 C-5.75398438 3.14894531 -5.87515625 2.58304687 -6 2 C-4.02 2 -2.04 2 0 2 C0 1.34 0 0.68 0 0 Z " fill="#A1502D" transform="translate(78,95)"/>
<path d="M0 0 C0.99 0.33 1.98 0.66 3 1 C2.67 4.3 2.34 7.6 2 11 C-0.5625 8.75 -0.5625 8.75 -3 6 C-2.91236229 2.93268023 -2.18647619 2.18647619 0 0 Z " fill="#E4CABC" transform="translate(76,61)"/>
<path d="M0 0 C2.31 0.33 4.62 0.66 7 1 C6.34 2.32 5.68 3.64 5 5 C2.69 5 0.38 5 -2 5 C-1.34 3.35 -0.68 1.7 0 0 Z " fill="#A0765C" transform="translate(87,27)"/>
<path d="M0 0 C4.88135593 4.27118644 4.88135593 4.27118644 5.4375 7.6875 C5 10 5 10 3 12 C0.375 12.125 0.375 12.125 -2 12 C-0.68 11.67 0.64 11.34 2 11 C1.855625 9.741875 1.71125 8.48375 1.5625 7.1875 C1.44068359 6.12595703 1.44068359 6.12595703 1.31640625 5.04296875 C1.02829265 2.80603607 1.02829265 2.80603607 0 0 Z " fill="#C9825D" transform="translate(44,99)"/>
<path d="M0 0 C1.50433594 0.01353516 1.50433594 0.01353516 3.0390625 0.02734375 C3.80992188 0.03894531 4.58078125 0.05054687 5.375 0.0625 C1.20244729 3.64300131 -1.29364045 3.32906798 -6.625 3.0625 C-6.955 2.4025 -7.285 1.7425 -7.625 1.0625 C-4.98041621 -0.25979189 -2.94738699 -0.03427194 0 0 Z " fill="#B26F3C" transform="translate(97.625,101.9375)"/>
<path d="M0 0 C0 0.66 0 1.32 0 2 C-1.32 2 -2.64 2 -4 2 C-4.33 4.31 -4.66 6.62 -5 9 C-5.33 7.68 -5.66 6.36 -6 5 C-6.99 5.33 -7.98 5.66 -9 6 C-8.6875 4.125 -8.6875 4.125 -8 2 C-4.77208445 -0.1519437 -3.71599191 -0.20086443 0 0 Z " fill="#E5EFF4" transform="translate(41,56)"/>
<path d="M0 0 C5.94 0 11.88 0 18 0 C18 0.33 18 0.66 18 1 C17.26394531 1.06058594 16.52789062 1.12117188 15.76953125 1.18359375 C14.79371094 1.26738281 13.81789063 1.35117188 12.8125 1.4375 C11.84957031 1.51871094 10.88664062 1.59992188 9.89453125 1.68359375 C7.00977571 1.94727553 7.00977571 1.94727553 4.26171875 2.59765625 C2 3 2 3 0 2 C0 1.34 0 0.68 0 0 Z " fill="#B37F57" transform="translate(30,89)"/>
<path d="M0 0 C1.98 0 3.96 0 6 0 C6.33 1.32 6.66 2.64 7 4 C6.01 4.33 5.02 4.66 4 5 C1.3125 3.5625 1.3125 3.5625 -1 2 C-0.67 1.34 -0.34 0.68 0 0 Z " fill="#CDB19D" transform="translate(59,73)"/>
<path d="M0 0 C0 3.54823932 -0.67734388 4.41927097 -3 7 C-6.62326739 8.2077558 -7.64146369 7.54311128 -11 6 C-11 5.67 -11 5.34 -11 5 C-10.37351562 4.80664062 -9.74703125 4.61328125 -9.1015625 4.4140625 C-8.28429687 4.15367188 -7.46703125 3.89328125 -6.625 3.625 C-5.81289062 3.36976562 -5.00078125 3.11453125 -4.1640625 2.8515625 C-1.83540815 2.10145717 -1.83540815 2.10145717 0 0 Z " fill="#D3B9AA" transform="translate(92,68)"/>
<path d="M0 0 C1.9375 0.5625 1.9375 0.5625 4 2 C4.75 5.625 4.75 5.625 5 9 C3 6 3 6 2 4 C1.01 3.67 0.02 3.34 -1 3 C-1 3.66 -1 4.32 -1 5 C-1.99 5 -2.98 5 -4 5 C-4 4.01 -4 3.02 -4 2 C-2.68 2 -1.36 2 0 2 C0 1.34 0 0.68 0 0 Z " fill="#D0DBE2" transform="translate(41,56)"/>
<path d="M0 0 C0.99 0 1.98 0 3 0 C2.67 1.65 2.34 3.3 2 5 C2.66 5.33 3.32 5.66 4 6 C2.02 6 0.04 6 -2 6 C-1.125 1.125 -1.125 1.125 0 0 Z " fill="#EBD1BE" transform="translate(21,56)"/>
<path d="M0 0 C2.64 0 5.28 0 8 0 C6.37660195 1.70884005 4.70680947 3.37446717 3 5 C2.34 5 1.68 5 1 5 C0.67 3.35 0.34 1.7 0 0 Z " fill="#E9B227" transform="translate(80,95)"/>
<path d="M0 0 C0 0.33 0 0.66 0 1 C-4.62 1.66 -9.24 2.32 -14 3 C-10.77764692 -3.44470616 -5.65956046 -1.82257032 0 0 Z " fill="#E7B89A" transform="translate(30,108)"/>
<path d="M0 0 C2.375 -0.125 2.375 -0.125 5 0 C5.66 0.66 6.32 1.32 7 2 C6.625 4.125 6.625 4.125 6 6 C6 5.01 6 4.02 6 3 C3.69 3 1.38 3 -1 3 C-0.67 2.01 -0.34 1.02 0 0 Z " fill="#3C484F" transform="translate(81,62)"/>
<path d="M0 0 C2.66753731 0.36793618 3.81998328 0.81998328 5.75 2.75 C7.21079991 5.37943983 7.24687966 7.0374441 7 10 C6.01 9.67 5.02 9.34 4 9 C4.0825 8.2575 4.165 7.515 4.25 6.75 C3.92894816 3.21842973 2.64734383 2.23369636 0 0 Z " fill="#937252" transform="translate(90,47)"/>
<path d="M0 0 C3.16115776 1.36983503 3.9927092 1.9890638 6 5 C6 5.99 6 6.98 6 8 C4.68 7.34 3.36 6.68 2 6 C2 4.68 2 3.36 2 2 C1.34 2 0.68 2 0 2 C0 1.34 0 0.68 0 0 Z " fill="#C09176" transform="translate(70,104)"/>
<path d="M0 0 C1.67542976 0.28604898 3.34385343 0.61781233 5 1 C2.66666667 3.33333333 0.33333333 5.66666667 -2 8 C-1.125 1.125 -1.125 1.125 0 0 Z " fill="#D9E2E8" transform="translate(80,59)"/>
<path d="M0 0 C1.32 0.33 2.64 0.66 4 1 C4 1.66 4 2.32 4 3 C2.865625 3.12375 1.73125 3.2475 0.5625 3.375 C-1.2009375 3.684375 -1.2009375 3.684375 -3 4 C-3.33 4.66 -3.66 5.32 -4 6 C-4 4.68 -4 3.36 -4 2 C-2.68 2 -1.36 2 0 2 C0 1.34 0 0.68 0 0 Z " fill="#455259" transform="translate(40,59)"/>
<path d="M0 0 C-1.28965176 1.37562854 -2.62689293 2.70766393 -4 4 C-4.66 4 -5.32 4 -6 4 C-6 3.34 -6 2.68 -6 2 C-7.98 2 -9.96 2 -12 2 C-12 1.67 -12 1.34 -12 1 C-7.95858806 0.36605303 -4.0934693 -0.12404452 0 0 Z " fill="#EEC591" transform="translate(38,102)"/>
<path d="M0 0 C0.99 0.33 1.98 0.66 3 1 C4.1875 3.5625 4.1875 3.5625 5 6 C2.03 5.505 2.03 5.505 -1 5 C-0.67 3.35 -0.34 1.7 0 0 Z " fill="#D7B78F" transform="translate(103,73)"/>
<path d="M0 0 C1.32 0 2.64 0 4 0 C3.67 1.65 3.34 3.3 3 5 C1.35 4.67 -0.3 4.34 -2 4 C-1.34 3.67 -0.68 3.34 0 3 C0 2.01 0 1.02 0 0 Z " fill="#C59A81" transform="translate(104,63)"/>
<path d="M0 0 C8.57142857 -0.28571429 8.57142857 -0.28571429 12 2 C9.36 2.66 6.72 3.32 4 4 C4 3.34 4 2.68 4 2 C2.68 1.34 1.36 0.68 0 0 Z " fill="#E7B027" transform="translate(42,93)"/>
<path d="M0 0 C-1 1 -1 1 -3.06640625 1.09765625 C-3.89011719 1.08605469 -4.71382812 1.07445313 -5.5625 1.0625 C-6.38878906 1.05347656 -7.21507812 1.04445313 -8.06640625 1.03515625 C-8.70449219 1.02355469 -9.34257813 1.01195313 -10 1 C-6.56904601 -2.43095399 -3.9992023 -2.66613487 0 0 Z " fill="#9A4114" transform="translate(58,96)"/>
<path d="M0 0 C2 3 2 3 2 7 C-0.31 6.67 -2.62 6.34 -5 6 C-4.360625 5.7525 -3.72125 5.505 -3.0625 5.25 C-0.81258459 4.18437567 -0.81258459 4.18437567 -0.25 1.875 C-0.1675 1.25625 -0.085 0.6375 0 0 Z " fill="#B7B9BB" transform="translate(44,62)"/>
<path d="M0 0 C3.63 0.33 7.26 0.66 11 1 C11 1.33 11 1.66 11 2 C5.06 2.495 5.06 2.495 -1 3 C-0.67 2.01 -0.34 1.02 0 0 Z " fill="#D7BEAD" transform="translate(79,44)"/>
<path d="M0 0 C2.475 0.99 2.475 0.99 5 2 C5 3.65 5 5.3 5 7 C4.01 7.495 4.01 7.495 3 8 C3.33 6.35 3.66 4.7 4 3 C2.68 3 1.36 3 0 3 C0 2.01 0 1.02 0 0 Z " fill="#D4B49C" transform="translate(104,60)"/>
</svg>
