<?xml version="1.0" standalone="no"?>
<!DOCTYPE svg PUBLIC "-//W3C//DTD SVG 20010904//EN"
 "http://www.w3.org/TR/2001/REC-SVG-20010904/DTD/svg10.dtd">
<svg version="1.0" xmlns="http://www.w3.org/2000/svg"
 width="200.000000pt" height="200.000000pt" viewBox="0 0 200.000000 200.000000"
 preserveAspectRatio="xMidYMid meet">

<g transform="translate(0.000000,200.000000) scale(0.100000,-0.100000)"
fill="#000000" stroke="none">
<path d="M0 1000 l0 -1000 1000 0 1000 0 0 1000 0 1000 -1000 0 -1000 0 0
-1000z m1450 445 l54 -55 -68 -69 -67 -68 31 -65 c77 -165 41 -367 -90 -498
-135 -135 -350 -170 -514 -84 l-49 26 -68 -68 -69 -69 -57 58 -58 57 69 69 69
69 -23 39 c-29 48 -60 160 -60 214 0 107 54 234 135 314 80 81 207 135 314
135 54 0 166 -31 214 -60 l39 -23 66 66 c37 37 69 67 72 67 3 0 30 -25 60 -55z"/>
<path d="M905 1266 c-50 -16 -93 -49 -144 -111 -20 -24 -41 -102 -41 -150 0
-106 65 -211 157 -255 76 -36 217 -28 271 14 90 72 125 139 125 240 0 89 -27
150 -91 206 -72 64 -182 86 -277 56z"/>
</g>
</svg>
