<?xml version="1.0" encoding="UTF-8"?>
<svg version="1.1" xmlns="http://www.w3.org/2000/svg" width="1000" height="1000">
<path d="M0 0 C330 0 660 0 1000 0 C1000 330 1000 660 1000 1000 C670 1000 340 1000 0 1000 C0 670 0 340 0 0 Z " fill="#FEFEFE" transform="translate(0,0)"/>
<path d="M0 0 C2.750165 0.96196759 5.26626163 2.24360009 7.8203125 3.63671875 C8.7484375 3.96671875 9.6765625 4.29671875 10.6328125 4.63671875 C11.3546875 4.96671875 12.0765625 5.29671875 12.8203125 5.63671875 C13.1503125 6.62671875 13.4803125 7.61671875 13.8203125 8.63671875 C15.50235166 9.09222749 17.18591055 9.5430259 18.87744141 9.96191406 C22.34925835 11.1677575 24.813211 13.58242203 27.5078125 16.01171875 C28.06275391 16.49382812 28.61769531 16.9759375 29.18945312 17.47265625 C32.17022284 20.08127279 35.16055999 22.6986953 37.8203125 25.63671875 C37.8203125 26.29671875 37.8203125 26.95671875 37.8203125 27.63671875 C38.4803125 27.63671875 39.1403125 27.63671875 39.8203125 27.63671875 C42.60107133 32.58273247 45.36743641 37.51767299 47.8203125 42.63671875 C48.14523682 43.25111816 48.47016113 43.86551758 48.80493164 44.49853516 C51.87939391 50.68747128 52.53171653 56.1588655 52.6953125 63.01171875 C52.74171875 63.9759375 52.788125 64.94015625 52.8359375 65.93359375 C53.07302201 72.73609548 52.28888007 78.99814425 50.8203125 85.63671875 C50.1603125 85.63671875 49.5003125 85.63671875 48.8203125 85.63671875 C48.9028125 86.52359375 48.9853125 87.41046875 49.0703125 88.32421875 C48.53562436 95.40883662 41.30527242 100.3677322 36.2578125 104.88671875 C35.69964844 105.386875 35.14148438 105.88703125 34.56640625 106.40234375 C32.65633122 107.75264288 31.10498932 108.21677815 28.8203125 108.63671875 C28.32064232 110.8944271 28.32064232 110.8944271 28.8203125 113.63671875 C30.75262326 115.74822371 32.58498001 117.49766273 34.7578125 119.32421875 C35.96274289 120.38580623 37.16454992 121.45094882 38.36328125 122.51953125 C38.95544434 123.04579102 39.54760742 123.57205078 40.15771484 124.11425781 C44.03186467 127.66186402 47.42509105 131.63831693 50.8203125 135.63671875 C51.62726563 136.57902344 52.43421875 137.52132812 53.265625 138.4921875 C57.10841773 143.07017691 60.21025869 147.2410812 62.8203125 152.63671875 C63.3153125 153.11109375 63.8103125 153.58546875 64.3203125 154.07421875 C66.65161115 156.50265484 67.52402823 159.5580436 68.8203125 162.63671875 C69.3771875 163.35859375 69.9340625 164.08046875 70.5078125 164.82421875 C71.8203125 166.63671875 71.8203125 166.63671875 71.8203125 170.63671875 C72.4803125 170.63671875 73.1403125 170.63671875 73.8203125 170.63671875 C76.6953125 177.26171875 76.6953125 177.26171875 77.8203125 180.63671875 C78.2740625 181.07113281 78.7278125 181.50554687 79.1953125 181.953125 C85.12573277 188.09738254 87.49903543 198.13951242 89.1796875 206.2734375 C89.65508028 208.80313631 89.65508028 208.80313631 91.8203125 210.63671875 C92.30688477 212.63623047 92.30688477 212.63623047 92.63671875 215.06640625 C92.82331055 216.38318359 92.82331055 216.38318359 93.01367188 217.7265625 C93.19639648 219.10521484 93.19639648 219.10521484 93.3828125 220.51171875 C93.6324411 222.32184616 93.88368506 224.13175169 94.13671875 225.94140625 C94.24443604 226.74562012 94.35215332 227.54983398 94.46313477 228.37841797 C94.80006008 230.50867028 95.26240683 232.55462551 95.8203125 234.63671875 C96.4803125 234.63671875 97.1403125 234.63671875 97.8203125 234.63671875 C99.23857016 238.99279585 100.10335362 243.22450383 100.7578125 247.76171875 C101.58927254 253.48295568 102.76673521 259.04925948 104.13671875 264.6640625 C105.41300892 270.21410145 106.06223534 275.7022822 106.37109375 281.3828125 C106.41293289 282.15209579 106.45477203 282.92137909 106.49787903 283.713974 C106.99542224 293.90010966 107.00635137 304.09359852 107.00561523 314.28979492 C107.00782926 317.72521883 107.02614137 321.16033449 107.04492188 324.59570312 C107.04785211 326.80859267 107.04983938 329.02148371 107.05078125 331.234375 C107.05796677 332.2470192 107.06515228 333.25966339 107.07255554 334.30299377 C107.05154404 340.87478103 106.81394489 347.64945396 103.8203125 353.63671875 C103.52739065 356.00909572 103.26063297 358.38473379 103.0078125 360.76171875 C102.39277366 365.97478798 101.44315457 370.14405577 98.76171875 374.67578125 C97.17649455 377.97778352 96.87357763 381.52041573 96.3125 385.11328125 C95.69126281 388.29835446 94.31546803 390.76602013 92.8203125 393.63671875 C92.31526021 395.48400241 91.8385411 397.33915258 91.3828125 399.19921875 C90.26747911 403.51379791 89.09681142 406.46591334 85.8203125 409.63671875 C85.1603125 409.96671875 84.5003125 410.29671875 83.8203125 410.63671875 C83.13884681 412.04832626 82.52252622 413.49187337 81.9453125 414.94921875 C80.3671514 418.65497482 78.82638975 420.91246124 75.8203125 423.63671875 C75.2221875 424.56484375 74.6240625 425.49296875 74.0078125 426.44921875 C69.1147023 433.57917932 60.2197728 443.23926295 51.56640625 445.12890625 C50.99019531 445.29648437 50.41398437 445.4640625 49.8203125 445.63671875 C49.13521309 447.69201697 48.46335708 449.75258811 47.85546875 451.83203125 C43.3535129 464.02978331 35.00015566 474.82886073 23.1953125 480.32421875 C20.71037673 481.29058266 18.42307615 482.11616602 15.8203125 482.63671875 C15.8203125 483.29671875 15.8203125 483.95671875 15.8203125 484.63671875 C12.79923348 484.69104385 9.77914722 484.73054802 6.7578125 484.76171875 C5.91025391 484.77847656 5.06269531 484.79523438 4.18945312 484.8125 C-8.45956021 484.91017578 -20.89007147 479.22961358 -30.1796875 470.63671875 C-30.74606934 469.77997559 -31.31245117 468.92323242 -31.89599609 468.04052734 C-33.96625516 465.35764277 -33.96625516 465.35764277 -37.06689453 465.25268555 C-38.73534424 465.41764526 -38.73534424 465.41764526 -40.4375 465.5859375 C-42.31876587 465.74570068 -42.31876587 465.74570068 -44.23803711 465.90869141 C-45.23358109 466.01059784 -45.23358109 466.01059784 -46.24923706 466.11456299 C-49.72543178 466.46913454 -53.20828173 466.73905507 -56.69140625 467.015625 C-57.39787796 467.07369324 -58.10434967 467.13176147 -58.83222961 467.19158936 C-65.93175401 467.75037004 -72.99526061 467.81637936 -80.1171875 467.76171875 C-81.23561035 467.75358154 -82.3540332 467.74544434 -83.50634766 467.73706055 C-86.06436024 467.71208551 -88.62192167 467.6795624 -91.1796875 467.63671875 C-91.31890625 468.25417969 -91.458125 468.87164063 -91.6015625 469.5078125 C-92.59978484 473.18369884 -94.44222501 475.13213915 -97.5546875 477.26171875 C-100.1796875 478.63671875 -100.1796875 478.63671875 -102.9296875 479.63671875 C-103.6721875 479.96671875 -104.4146875 480.29671875 -105.1796875 480.63671875 C-105.5096875 481.62671875 -105.8396875 482.61671875 -106.1796875 483.63671875 C-109.50059752 485.34205092 -111.36461534 485.63671875 -115.1796875 485.63671875 C-115.5096875 486.62671875 -115.8396875 487.61671875 -116.1796875 488.63671875 C-129.52923799 494.4562577 -145.25745058 489.46847301 -158.1796875 484.63671875 C-161.72465642 482.85950767 -163.8833452 481.1654027 -166.1796875 477.94921875 C-166.6334375 477.32660156 -167.0871875 476.70398438 -167.5546875 476.0625 C-169.1796875 473.63671875 -169.1796875 473.63671875 -170.13110352 471.61425781 C-171.30610802 469.30387015 -172.37631857 467.50524689 -174.1796875 465.63671875 C-177.50106204 464.56246283 -180.65192893 464.65066895 -184.1171875 464.76171875 C-185.87627389 464.77201333 -187.63542264 464.77480199 -189.39453125 464.76953125 C-190.22331787 464.76800049 -191.05210449 464.76646973 -191.90600586 464.76489258 C-194.89254372 464.59653304 -197.4045637 463.71455701 -200.1796875 462.63671875 C-202.29158509 462.30777082 -202.29158509 462.30777082 -204.2421875 462.19921875 C-208.24387291 461.62754941 -209.84861079 460.74910886 -213.1796875 458.63671875 C-215.34101583 457.83702727 -217.52686341 457.14837667 -219.72265625 456.44921875 C-223.95734546 455.04887637 -228.06257708 453.34730333 -232.1796875 451.63671875 C-232.94410156 451.32863281 -233.70851563 451.02054688 -234.49609375 450.703125 C-248.22297925 444.94976951 -260.23385559 434.5528814 -271.1796875 424.63671875 C-272.78218861 423.19736225 -274.38639144 421.75989837 -275.9921875 420.32421875 C-277.08466797 419.34001953 -277.08466797 419.34001953 -278.19921875 418.3359375 C-280.27387791 416.48666993 -280.27387791 416.48666993 -283.1796875 414.63671875 C-283.6540625 413.52296875 -284.1284375 412.40921875 -284.6171875 411.26171875 C-286.1540713 407.69614833 -287.4637588 406.26777468 -290.1796875 403.63671875 C-291.19734677 401.64564627 -292.19546604 399.64453052 -293.1796875 397.63671875 C-294.05573943 396.37277636 -294.95230183 395.12284236 -295.8671875 393.88671875 C-298.1796875 390.63671875 -298.1796875 390.63671875 -298.1796875 388.63671875 C-302.52152952 388.82136241 -302.52152952 388.82136241 -306.1796875 390.63671875 C-308.63057632 390.76384567 -311.04079295 390.82192558 -313.4921875 390.82421875 C-314.16958984 390.83646484 -314.84699219 390.84871094 -315.54492188 390.86132812 C-319.36556374 390.87253235 -321.86706886 390.47864894 -325.1796875 388.63671875 C-327.46480398 388.36764939 -327.46480398 388.36764939 -329.8671875 388.32421875 C-335.35876634 387.87609288 -339.83796159 386.05867129 -344.1796875 382.63671875 C-344.6746875 381.15171875 -344.6746875 381.15171875 -345.1796875 379.63671875 C-347.15916819 378.91139079 -349.16416596 378.25487518 -351.1796875 377.63671875 C-353.2726937 376.59153201 -355.33612264 375.48519499 -357.3671875 374.32421875 C-358.39199219 373.75058594 -359.41679687 373.17695312 -360.47265625 372.5859375 C-363.37411807 370.49671752 -364.51801964 368.75422853 -366.1796875 365.63671875 C-367.4171875 364.39921875 -367.4171875 364.39921875 -368.6796875 363.13671875 C-373.21242543 358.60398082 -375.06559175 353.5385694 -377.1796875 347.63671875 C-377.69660156 346.46109375 -378.21351563 345.28546875 -378.74609375 344.07421875 C-380.6747965 338.91526771 -380.67332122 333.90496731 -380.6171875 328.44921875 C-380.61033936 327.42981201 -380.60349121 326.41040527 -380.59643555 325.36010742 C-380.42719924 317.39712695 -379.23593664 311.02691316 -376.1796875 303.63671875 C-375.88707031 302.67378906 -375.59445312 301.71085937 -375.29296875 300.71875 C-371.41933628 289.1284742 -361.52978381 278.92376072 -351.1796875 272.63671875 C-350.43847656 272.18167969 -349.69726562 271.72664063 -348.93359375 271.2578125 C-342.51040566 267.78860396 -336.33125465 266.43898603 -329.20703125 265.21484375 C-326.31139222 264.95572939 -326.31139222 264.95572939 -325.1796875 263.63671875 C-314.28348648 262.74024746 -302.43644332 262.51438627 -292.1796875 266.63671875 C-292.1796875 267.29671875 -292.1796875 267.95671875 -292.1796875 268.63671875 C-291.1071875 268.92546875 -290.0346875 269.21421875 -288.9296875 269.51171875 C-286.08568386 270.36491984 -283.74459767 271.20036905 -281.1796875 272.63671875 C-280.9528125 271.87359375 -280.7259375 271.11046875 -280.4921875 270.32421875 C-278.88060778 267.02431741 -277.49233008 266.13529515 -274.1796875 264.63671875 C-272.8596875 264.63671875 -271.5396875 264.63671875 -270.1796875 264.63671875 C-270.32018268 263.15703551 -270.46723576 261.67797359 -270.6171875 260.19921875 C-270.69839844 259.37550781 -270.77960938 258.55179688 -270.86328125 257.703125 C-270.96899565 255.6500985 -270.96899565 255.6500985 -272.1796875 254.63671875 C-275.53006089 241.86342021 -275.45041825 228.69735614 -275.4921875 215.57421875 C-275.49661362 214.34856201 -275.49661362 214.34856201 -275.50112915 213.09814453 C-275.52484342 184.23328284 -275.52484342 184.23328284 -268.1796875 172.63671875 C-267.45802559 170.31980421 -266.77909221 167.98822952 -266.1796875 165.63671875 C-265.5196875 165.63671875 -264.8596875 165.63671875 -264.1796875 165.63671875 C-263.8496875 163.98671875 -263.5196875 162.33671875 -263.1796875 160.63671875 C-262.5196875 160.63671875 -261.8596875 160.63671875 -261.1796875 160.63671875 C-261.0971875 159.83234375 -261.0146875 159.02796875 -260.9296875 158.19921875 C-259.70424356 152.37836002 -257.36126909 146.00837223 -253.1796875 141.63671875 C-252.5196875 141.63671875 -251.8596875 141.63671875 -251.1796875 141.63671875 C-251.0559375 140.56421875 -250.9321875 139.49171875 -250.8046875 138.38671875 C-250.27191028 135.19005542 -249.68131258 133.39580223 -248.1796875 130.63671875 C-249.07171875 130.44335938 -249.96375 130.25 -250.8828125 130.05078125 C-252.05328125 129.79039062 -253.22375 129.53 -254.4296875 129.26171875 C-255.58984375 129.00648438 -256.75 128.75125 -257.9453125 128.48828125 C-260.64021151 127.7787547 -262.77494582 127.00575486 -265.1796875 125.63671875 C-265.1796875 124.97671875 -265.1796875 124.31671875 -265.1796875 123.63671875 C-266.19804687 123.5903125 -267.21640625 123.54390625 -268.265625 123.49609375 C-273.01010953 122.81319361 -275.52096793 120.1861499 -278.8046875 116.88671875 C-279.35125 116.36078125 -279.8978125 115.83484375 -280.4609375 115.29296875 C-281.53831677 114.25167396 -282.60749417 113.20181677 -283.66772461 112.14306641 C-285.08052049 110.73551746 -286.5255356 109.36051594 -287.97265625 107.98828125 C-289.99304789 105.83558078 -290.97050311 104.51459695 -291.8671875 101.76171875 C-292.18236328 100.83746094 -292.18236328 100.83746094 -292.50390625 99.89453125 C-292.72691406 99.14945312 -292.94992187 98.404375 -293.1796875 97.63671875 C-293.53417969 96.61191406 -293.88867188 95.58710938 -294.25390625 94.53125 C-295.59647224 89.7990372 -295.39603903 85.07949863 -295.3046875 80.19921875 C-295.29566406 79.27689453 -295.28664063 78.35457031 -295.27734375 77.40429688 C-295.2539641 75.14816066 -295.22119666 72.89258191 -295.1796875 70.63671875 C-294.5196875 70.63671875 -293.8596875 70.63671875 -293.1796875 70.63671875 C-293.08171875 69.56292969 -292.98375 68.48914063 -292.8828125 67.3828125 C-292.73261264 65.9465263 -292.58152336 64.51033292 -292.4296875 63.07421875 C-292.3678125 62.36974609 -292.3059375 61.66527344 -292.2421875 60.93945312 C-291.50258805 54.25224146 -288.82844321 50.06135951 -285.0546875 44.51171875 C-283.14570156 41.82111751 -283.14570156 41.82111751 -282.3125 39.26171875 C-278.90457732 31.3647393 -271.40464579 25.67421075 -264.37890625 21.1015625 C-262.03311852 19.62939613 -262.03311852 19.62939613 -259.7421875 17.32421875 C-256.23052467 15.0116603 -252.7936917 14.81037828 -248.6796875 14.203125 C-246.00766265 13.8313959 -246.00766265 13.8313959 -244.1171875 11.57421875 C-240.79308299 8.25011424 -236.70543614 8.7616794 -232.1796875 8.63671875 C-231.48343262 8.61625488 -230.78717773 8.59579102 -230.06982422 8.57470703 C-227.71054076 8.51410985 -225.35207584 8.47710091 -222.9921875 8.44921875 C-222.23212402 8.43600586 -221.47206055 8.42279297 -220.68896484 8.40917969 C-215.84009552 8.40283715 -211.83053964 9.11258407 -207.1796875 10.63671875 C-206.37144531 10.83652344 -205.56320312 11.03632813 -204.73046875 11.2421875 C-195.26287643 13.70409196 -186.83426865 18.44257696 -180.1796875 25.63671875 C-177.90502769 27.43121782 -175.59574696 29.16887959 -173.265625 30.890625 C-169.07295272 34.40022146 -167.94766088 37.29523841 -166.78125 42.61328125 C-165.86744324 45.68699489 -164.0122109 48.03571779 -162.1796875 50.63671875 C-161.20437589 53.59969073 -161.07150369 56.28021956 -161.1171875 59.38671875 C-161.12621094 60.1859375 -161.13523437 60.98515625 -161.14453125 61.80859375 C-161.16193359 62.71351563 -161.16193359 62.71351563 -161.1796875 63.63671875 C-154.61796965 62.7342171 -149.04693032 61.84973268 -143.1796875 58.63671875 C-137.53682079 57.30377128 -131.85497837 57.50988084 -126.09375 57.5390625 C-125.03682953 57.54047745 -123.97990906 57.5418924 -122.89096069 57.54335022 C-119.52884034 57.54892935 -116.16678759 57.56147806 -112.8046875 57.57421875 C-110.51953221 57.57923644 -108.23437588 57.58379888 -105.94921875 57.58789062 C-100.3593521 57.59889196 -94.76952463 57.61560931 -89.1796875 57.63671875 C-89.1796875 58.29671875 -89.1796875 58.95671875 -89.1796875 59.63671875 C-84.8896875 59.63671875 -80.5996875 59.63671875 -76.1796875 59.63671875 C-76.21449219 58.59773438 -76.24929688 57.55875 -76.28515625 56.48828125 C-76.73133037 37.52132814 -76.73133037 37.52132814 -71.1796875 31.44921875 C-70.5196875 30.85109375 -69.8596875 30.25296875 -69.1796875 29.63671875 C-68.53193359 28.03570312 -68.53193359 28.03570312 -67.87109375 26.40234375 C-66.27859461 22.54459177 -63.96155089 19.59762932 -61.1171875 16.57421875 C-60.3902771 15.79606812 -60.3902771 15.79606812 -59.64868164 15.00219727 C-50.52314168 5.55588975 -39.83177783 2.34295023 -27.2109375 0.06640625 C-18.30733372 -1.8170484 -9.08484604 -2.43529143 0 0 Z " fill="#0D0F32" transform="translate(620.1796875,311.36328125)"/>
<path d="M0 0 C2.90359124 1.3697253 5.83771176 1.57998237 9.00390625 1.9453125 C9.00390625 2.6053125 9.00390625 3.2653125 9.00390625 3.9453125 C9.64457031 4.12707031 10.28523437 4.30882812 10.9453125 4.49609375 C16.14786522 6.00801295 21.07534952 7.69531921 26.00390625 9.9453125 C26.00390625 10.6053125 26.00390625 11.2653125 26.00390625 11.9453125 C26.74253906 12.19667969 27.48117187 12.44804687 28.2421875 12.70703125 C31.2099418 14.03769336 32.91511175 15.45510065 35.19140625 17.7578125 C35.86558594 18.42425781 36.53976562 19.09070313 37.234375 19.77734375 C39.00390625 21.9453125 39.00390625 21.9453125 40.0546875 24.58203125 C40.87470306 27.26748879 40.87470306 27.26748879 44.00390625 28.9453125 C47.95466813 37.12505893 49.8086044 44.87540958 49.00390625 53.9453125 C48.95878906 54.83347656 48.91367187 55.72164062 48.8671875 56.63671875 C48.52565983 61.72927573 47.69985213 65.49114105 45.00390625 69.9453125 C44.34390625 69.9453125 43.68390625 69.9453125 43.00390625 69.9453125 C43.00390625 71.2653125 43.00390625 72.5853125 43.00390625 73.9453125 C44.32390625 74.2753125 45.64390625 74.6053125 47.00390625 74.9453125 C47.00390625 75.6053125 47.00390625 76.2653125 47.00390625 76.9453125 C47.89078125 77.0071875 48.77765625 77.0690625 49.69140625 77.1328125 C53.90982533 78.16751907 55.11697498 79.71469894 58.00390625 82.9453125 C59.3304543 84.28539676 60.66431618 85.61826541 62.00390625 86.9453125 C63.33723958 88.27864583 64.67057292 89.61197917 66.00390625 90.9453125 C67.14472656 92.04166016 67.14472656 92.04166016 68.30859375 93.16015625 C71.80306325 96.77110806 74.9548433 100.61540898 78.12890625 104.5078125 C78.74894531 105.26255859 79.36898438 106.01730469 80.0078125 106.79492188 C81.68213592 108.83831659 83.35482519 110.88148781 85.00390625 112.9453125 C85.5644873 113.60394287 86.12506836 114.26257324 86.70263672 114.94116211 C88.00390625 116.9453125 88.00390625 116.9453125 88.00390625 120.9453125 C88.66390625 120.9453125 89.32390625 120.9453125 90.00390625 120.9453125 C91.6190256 124.54262379 92.96691622 127.79981839 93.94140625 131.6328125 C94.71873143 134.96147106 94.71873143 134.96147106 96.90234375 136.76171875 C102.60564506 142.68763963 104.28097945 151.99311769 105.00390625 159.9453125 C105.32278809 160.5758252 105.64166992 161.20633789 105.97021484 161.85595703 C111.11644509 172.25780834 110.3047766 188.45750264 110.50390625 199.8828125 C110.5495874 201.20224854 110.5495874 201.20224854 110.59619141 202.54833984 C110.60001997 209.21132285 108.51416253 213.38873144 105.00390625 218.9453125 C104.31076717 220.60114475 103.63916201 222.26642229 103.00390625 223.9453125 C99.75624106 231.09017592 95.27239167 238.1123465 90.00390625 243.9453125 C89.34390625 243.9453125 88.68390625 243.9453125 88.00390625 243.9453125 C87.98972656 242.82253906 87.97554687 241.69976563 87.9609375 240.54296875 C87.73004311 231.9577214 87.46353034 225.01663374 82.00390625 217.9453125 C80.44388197 217.8089997 78.88033449 217.71272124 77.31640625 217.6328125 C76.44628906 217.57480469 75.57617188 217.51679687 74.6796875 217.45703125 C70.76676239 218.17106868 69.36668735 219.80902703 67.00390625 222.9453125 C66.43586376 226.14135492 66.43586376 226.14135492 66.75390625 229.6328125 C66.80288237 230.97249251 66.84694243 232.31235904 66.88671875 233.65234375 C66.9115332 234.35311035 66.93634766 235.05387695 66.96191406 235.77587891 C67.07742268 241.74337629 66.59521572 247.71092258 66.16162109 253.65917969 C66.05636219 255.18494491 65.96556677 256.7117759 65.88916016 258.23925781 C65.43602366 267.15285428 64.63877862 274.26850356 58.203125 281.05078125 C51.43027247 286.88529897 45.81078909 287.56243714 37.00390625 286.9453125 C36.25496094 286.9246875 35.50601563 286.9040625 34.734375 286.8828125 C29.50440856 286.56281455 26.3897037 284.75852498 23.00390625 280.9453125 C17.96041051 274.88742946 14.27022648 269.73593478 13.00390625 261.9453125 C12.4869558 259.86101229 11.96573047 257.77777 11.44140625 255.6953125 C9.10770961 245.47654995 8.83721109 235.39154257 9.00390625 224.9453125 C8.34390625 224.9453125 7.68390625 224.9453125 7.00390625 224.9453125 C6.75640625 224.1409375 6.50890625 223.3365625 6.25390625 222.5078125 C5.29519571 219.87090327 5.29519571 219.87090327 3.31640625 219.1328125 C2.55328125 219.0709375 1.79015625 219.0090625 1.00390625 218.9453125 C-0.72859375 218.790625 -0.72859375 218.790625 -2.49609375 218.6328125 C-5.99824162 218.64251925 -5.99824162 218.64251925 -8.30859375 220.6328125 C-12.58664455 226.49532656 -12.14818571 231.65230913 -11.74609375 238.6328125 C-11.70613281 239.57576172 -11.66617188 240.51871094 -11.625 241.49023438 C-11.25185157 248.82713922 -10.32589217 255.95591724 -7.99609375 262.9453125 C-7.99609375 265.2553125 -7.99609375 267.5653125 -7.99609375 269.9453125 C-20.20609375 269.9453125 -32.41609375 269.9453125 -44.99609375 269.9453125 C-44.66609375 257.7353125 -44.33609375 245.5253125 -43.99609375 232.9453125 C-44.65609375 232.9453125 -45.31609375 232.9453125 -45.99609375 232.9453125 C-46.26873047 232.11386719 -46.26873047 232.11386719 -46.546875 231.265625 C-46.92392578 230.17894531 -46.92392578 230.17894531 -47.30859375 229.0703125 C-47.55222656 228.35101562 -47.79585937 227.63171875 -48.046875 226.890625 C-48.95944922 224.60536345 -48.95944922 224.60536345 -51.99609375 222.9453125 C-57.01983161 222.48015159 -59.93288957 222.92693225 -63.99609375 225.9453125 C-66.28619121 227.80136067 -66.28619121 227.80136067 -66.20727539 230.70410156 C-66.19043701 231.86135742 -66.17359863 233.01861328 -66.15625 234.2109375 C-66.14529297 235.49484375 -66.13433594 236.77875 -66.12304688 238.1015625 C-66.1023366 239.4661578 -66.08084925 240.83074153 -66.05859375 242.1953125 C-65.62270909 274.8705181 -65.62270909 274.8705181 -76.71875 286.796875 C-82.6470036 291.98220168 -88.86231173 293.27313388 -96.64453125 293.16796875 C-103.05273328 292.56121208 -110.154015 291.43465704 -114.99609375 286.9453125 C-116.15625 285.04296875 -116.15625 285.04296875 -117.05859375 283.0078125 C-118.12664572 280.69998255 -119.00983876 278.92839556 -120.62109375 276.9453125 C-122.72277334 273.88832401 -123.26584979 270.52016446 -123.99609375 266.9453125 C-124.26123779 265.80727173 -124.26123779 265.80727173 -124.53173828 264.64624023 C-126.38287897 255.93066416 -126.07661576 247.4011855 -125.72875977 238.53564453 C-125.65610703 236.56091936 -125.61668942 234.58505987 -125.578125 232.609375 C-125.51975464 230.86841553 -125.51975464 230.86841553 -125.46020508 229.09228516 C-126.16228978 224.9693367 -127.79004611 223.53078683 -130.99609375 220.9453125 C-133.50503995 220.20351622 -133.50503995 220.20351622 -136.05859375 220.3828125 C-136.89519531 220.38152344 -137.73179687 220.38023437 -138.59375 220.37890625 C-141.85819082 221.14857116 -142.9139514 222.32226434 -144.99609375 224.9453125 C-145.81934353 228.31599748 -145.81934353 228.31599748 -146.04296875 232.1171875 C-146.10389709 232.7996051 -146.16482544 233.48202271 -146.2276001 234.18511963 C-146.41736333 236.3541351 -146.58204678 238.52421586 -146.74609375 240.6953125 C-146.8707436 242.17071344 -146.99702784 243.64597727 -147.125 245.12109375 C-147.43430942 248.72777197 -147.72117014 252.33583161 -147.99609375 255.9453125 C-147.33609375 255.9453125 -146.67609375 255.9453125 -145.99609375 255.9453125 C-145.66609375 259.9053125 -145.33609375 263.8653125 -144.99609375 267.9453125 C-151.86125237 268.20935706 -158.25456092 267.20373196 -164.99609375 265.9453125 C-164.99609375 265.2853125 -164.99609375 264.6253125 -164.99609375 263.9453125 C-165.65609375 263.8421875 -166.31609375 263.7390625 -166.99609375 263.6328125 C-174.05795007 262.01447043 -181.05781541 259.44984675 -185.99609375 253.9453125 C-188.2823571 248.84518657 -189.37812488 244.39088706 -189.78515625 238.828125 C-189.89637195 236.85738059 -189.89637195 236.85738059 -190.99609375 234.9453125 C-191.09215326 233.46599601 -191.12684035 231.98243059 -191.12890625 230.5 C-191.13108154 229.59580322 -191.13325684 228.69160645 -191.13549805 227.76000977 C-191.13074463 226.78990967 -191.12599121 225.81980957 -191.12109375 224.8203125 C-191.11493042 223.32939087 -191.11493042 223.32939087 -191.10864258 221.80834961 C-191.01620503 209.46843337 -190.38784951 197.62512594 -187.7421875 185.5234375 C-187.04634716 182.1863184 -186.55804297 178.88688648 -186.12109375 175.5078125 C-185.17483133 169.01228231 -183.27707269 162.97768306 -181.21484375 156.76953125 C-180.32555492 154.07511883 -179.58109344 151.37800153 -178.91015625 148.62109375 C-178.18785655 145.71646121 -177.48746004 143.50194043 -175.99609375 140.9453125 C-175.33609375 140.9453125 -174.67609375 140.9453125 -173.99609375 140.9453125 C-173.8259375 140.35363281 -173.65578125 139.76195312 -173.48046875 139.15234375 C-171.96551314 134.21262146 -170.37173628 130.91665665 -166.99609375 126.9453125 C-164.76717578 123.29310957 -162.57368464 119.62557692 -161.1796875 115.5703125 C-159.58680386 112.03758046 -157.20911567 109.33641462 -154.68359375 106.4453125 C-154.20986328 105.88972656 -153.73613281 105.33414063 -153.24804688 104.76171875 C-150.30209433 101.33619254 -147.19727695 98.1357894 -143.99609375 94.9453125 C-142.96440394 93.70425777 -141.9427593 92.4547511 -140.93359375 91.1953125 C-134.8930241 84.21421556 -127.2655873 78.94203435 -118.99609375 74.9453125 C-118.66609375 74.6153125 -118.33609375 74.2853125 -117.99609375 73.9453125 C-118.06013673 71.83670893 -118.06013673 71.83670893 -118.37109375 69.4453125 C-118.46132813 68.630625 -118.5515625 67.8159375 -118.64453125 66.9765625 C-118.79334663 64.95600728 -118.79334663 64.95600728 -119.99609375 63.9453125 C-121.5785616 54.27467562 -122.73798484 41.9059453 -118.55859375 32.8203125 C-117.78515625 31.8921875 -117.78515625 31.8921875 -116.99609375 30.9453125 C-116.33609375 30.9453125 -115.67609375 30.9453125 -114.99609375 30.9453125 C-114.61710937 29.84896484 -114.61710937 29.84896484 -114.23046875 28.73046875 C-111.20616863 21.90665234 -105.29646952 16.72553796 -98.99609375 12.9453125 C-98.21234375 12.2853125 -97.42859375 11.6253125 -96.62109375 10.9453125 C-93.95229843 8.91194464 -91.3819238 7.5194273 -88.36328125 6.08984375 C-86.59644195 5.23557986 -84.85510923 4.32818599 -83.12890625 3.39453125 C-77.72540553 0.51403914 -73.21609402 -1.70856033 -67.03125 -1.8515625 C-64.90407144 -1.96380891 -64.90407144 -1.96380891 -62.734375 -3 C-59.2536372 -4.34065507 -55.80205508 -4.77421443 -52.12109375 -5.1796875 C-51.37150391 -5.2631543 -50.62191406 -5.34662109 -49.84960938 -5.43261719 C-34.08869092 -7.06191045 -14.44068082 -7.63010533 0 0 Z " fill="#FEFDFD" transform="translate(582.99609375,487.0546875)"/>
<path d="M0 0 C1.1450576 -0.00628418 1.1450576 -0.00628418 2.31324768 -0.01269531 C4.80784149 -0.02254046 7.30226484 -0.02247487 9.796875 -0.01953125 C11.06439102 -0.01912338 11.06439102 -0.01912338 12.35751343 -0.01870728 C25.17406617 0.00036747 37.84639469 0.28746188 50.546875 2.16796875 C51.30774414 2.28043945 52.06861328 2.39291016 52.85253906 2.50878906 C59.8993878 3.59683929 66.18133612 4.79848841 72.546875 8.16796875 C74.16532322 8.78947316 75.79016752 9.39465901 77.421875 9.98046875 C81.78564563 11.68148879 85.05467658 13.88603948 88.69140625 16.796875 C91.41062653 18.80623567 94.4311213 19.87869136 97.546875 21.16796875 C100.93950454 23.07318928 104.23785437 25.12201277 107.546875 27.16796875 C108.24039062 27.57015625 108.93390625 27.97234375 109.6484375 28.38671875 C114.36844241 31.16982922 118.22932928 34.49215353 122.2578125 38.1953125 C124.45256025 40.08669068 126.66187051 41.62461111 129.109375 43.16796875 C133.1357376 45.74735729 136.29194723 48.72555428 139.5859375 52.17578125 C141.46609668 54.08590312 143.41947213 55.77467942 145.484375 57.48046875 C150.51738871 61.80014194 154.44878215 66.9823051 158.546875 72.16796875 C159.43797343 73.23444294 160.33279235 74.29784295 161.234375 75.35546875 C163.66518802 78.31186296 165.94962402 81.34954789 168.21484375 84.43359375 C169.57628635 86.28411017 169.57628635 86.28411017 171.546875 88.16796875 C172.22545501 90.00013476 172.90130993 91.83336179 173.5625 93.671875 C176.85490751 102.3711059 176.85490751 102.3711059 182.19140625 109.79296875 C184.48267728 112.11725522 184.25196543 115.04192731 184.546875 118.16796875 C185.206875 118.16796875 185.866875 118.16796875 186.546875 118.16796875 C187.48778306 120.47913127 188.42463169 122.79181332 189.359375 125.10546875 C189.62041016 125.74548828 189.88144531 126.38550781 190.15039062 127.04492188 C193.51433353 135.39248391 195.98825044 143.5584897 197.609375 152.41796875 C198.67813018 158.69561252 198.67813018 158.69561252 200.6015625 164.734375 C202.00570768 168.34917849 202.23475129 172.01476133 202.609375 175.85546875 C202.95406402 181.17320908 202.95406402 181.17320908 204.546875 186.16796875 C204.86335891 189.50863225 205.05816025 192.85014486 205.265625 196.19921875 C205.35975562 199.09444885 205.35975562 199.09444885 206.546875 201.16796875 C206.77476131 203.64288523 206.94889765 206.09773714 207.08203125 208.578125 C207.12537094 209.32882767 207.16871063 210.07953033 207.21336365 210.85298157 C207.68495093 219.20014614 208.08072066 227.55133057 208.44610596 235.90374756 C208.53647542 237.9342963 208.63467248 239.96449311 208.73388672 241.99462891 C209.42867111 257.36201664 208.81526229 274.23859604 201.47607422 288.20581055 C200.2586592 290.77658419 200.20893976 293.25803362 200.0859375 296.0703125 C199.32297944 299.03921452 197.48286606 300.8355971 195.546875 303.16796875 C195.50199951 302.34296875 195.45712402 301.51796875 195.41088867 300.66796875 C196.01927422 276.97646462 196.01927422 276.97646462 189.546875 256.16796875 C189.27055232 254.73529571 189.02667829 253.2963354 188.796875 251.85546875 C187.77897919 246.42930109 185.81184541 241.66397174 183.5703125 236.63671875 C182.546875 234.16796875 182.546875 234.16796875 182.546875 232.16796875 C181.556875 231.83796875 180.566875 231.50796875 179.546875 231.16796875 C178.6328125 228.76953125 178.6328125 228.76953125 177.921875 225.79296875 C177.68210937 224.81585937 177.44234375 223.83875 177.1953125 222.83203125 C176.87433594 221.51332031 176.87433594 221.51332031 176.546875 220.16796875 C176.216875 219.17796875 175.886875 218.18796875 175.546875 217.16796875 C174.886875 217.16796875 174.226875 217.16796875 173.546875 217.16796875 C173.34707031 216.50539063 173.14726563 215.8428125 172.94140625 215.16015625 C170.99887141 210.99214032 168.18328826 207.79500781 165.234375 204.29296875 C158.72180153 196.4896814 158.72180153 196.4896814 155.87109375 192.3828125 C153.92174554 189.68648717 152.20951737 187.70613121 149.671875 185.60546875 C148.99382812 185.033125 148.31578125 184.46078125 147.6171875 183.87109375 C146.93398438 183.3090625 146.25078125 182.74703125 145.546875 182.16796875 C144.20994748 181.06815667 142.87635805 179.96426838 141.546875 178.85546875 C140.969375 178.38496094 140.391875 177.91445313 139.796875 177.4296875 C138.546875 176.16796875 138.546875 176.16796875 138.546875 174.16796875 C137.5775 174.04421875 136.608125 173.92046875 135.609375 173.79296875 C134.59875 173.58671875 133.588125 173.38046875 132.546875 173.16796875 C132.216875 172.50796875 131.886875 171.84796875 131.546875 171.16796875 C130.556875 170.83796875 129.566875 170.50796875 128.546875 170.16796875 C128.546875 168.84796875 128.546875 167.52796875 128.546875 166.16796875 C129.206875 166.16796875 129.866875 166.16796875 130.546875 166.16796875 C135.00421205 154.87604823 135.07825963 141.34989301 130.546875 130.16796875 C130.0828125 128.74484375 130.0828125 128.74484375 129.609375 127.29296875 C128.6773123 125.03287298 128.6773123 125.03287298 126.546875 123.66796875 C124.546875 122.16796875 124.546875 122.16796875 123.703125 119.83984375 C122.3224992 116.64947874 120.68183614 115.15939674 118.046875 112.91796875 C117.2528125 112.2321875 116.45875 111.54640625 115.640625 110.83984375 C113.65506546 109.13513128 113.65506546 109.13513128 111.546875 108.16796875 C111.546875 107.50796875 111.546875 106.84796875 111.546875 106.16796875 C110.50466797 105.99974609 110.50466797 105.99974609 109.44140625 105.828125 C106.17654536 105.0835076 103.31087295 103.92396787 100.234375 102.60546875 C99.16574219 102.15042969 98.09710937 101.69539063 96.99609375 101.2265625 C96.18785156 100.87722656 95.37960937 100.52789062 94.546875 100.16796875 C94.546875 99.50796875 94.546875 98.84796875 94.546875 98.16796875 C93.495 98.22984375 92.443125 98.29171875 91.359375 98.35546875 C87.546875 98.16796875 87.546875 98.16796875 85.22265625 96.7578125 C71.23843821 88.44894135 49.02917143 90.27976607 33.421875 92.04296875 C32.71144043 92.12135986 32.00100586 92.19975098 31.26904297 92.28051758 C27.37987692 92.76538492 24.14825065 93.67630986 20.546875 95.16796875 C18.63650537 95.48013809 16.71870937 95.74913683 14.796875 95.98046875 C8.77158777 96.92950667 4.66489479 98.98885748 -0.453125 102.16796875 C-2.34524407 103.1749789 -4.24122848 104.17475332 -6.140625 105.16796875 C-10.41608588 107.49895716 -13.85668825 109.8984808 -17.453125 113.16796875 C-18.02675781 113.61785156 -18.60039062 114.06773437 -19.19140625 114.53125 C-23.1918674 117.70934655 -25.8138506 120.87532043 -28.3125 125.3359375 C-29.50028132 127.24370955 -30.85057542 128.60504265 -32.453125 130.16796875 C-36.53135299 138.32442473 -34.93627159 151.41740388 -33.453125 160.16796875 C-32.7931571 161.83729933 -32.12753631 163.50442085 -31.453125 165.16796875 C-31.1124614 168.02954301 -30.96684058 169.47693299 -32.640625 171.85546875 C-34.453125 173.16796875 -34.453125 173.16796875 -36.640625 173.9375 C-40.25175901 175.51737113 -43.19227265 177.74345838 -46.265625 180.16796875 C-46.8836499 180.65346191 -47.5016748 181.13895508 -48.13842773 181.63916016 C-52.70076174 185.32851773 -56.35798945 189.31059275 -59.86328125 194.03125 C-61.82985426 196.67428547 -64.09638612 198.87014834 -66.453125 201.16796875 C-71.34498631 206.24351655 -74.88945735 210.52573892 -77.453125 217.16796875 C-78.3861261 218.78700007 -79.34712621 220.39006162 -80.328125 221.98046875 C-82.97731974 226.27717266 -85.23613632 230.66433626 -87.375 235.234375 C-88.453125 237.16796875 -88.453125 237.16796875 -90.453125 238.16796875 C-92.40076377 242.20723515 -93.35987447 246.51306991 -94.390625 250.85546875 C-95.4489575 255.29349681 -96.59572704 259.65511288 -97.98046875 264.00390625 C-99.59799918 269.31326001 -100.38858934 274.60877256 -101.078125 280.10546875 C-101.31787594 281.94823531 -101.55995924 283.79070035 -101.8046875 285.6328125 C-101.90604004 286.43323975 -102.00739258 287.23366699 -102.11181641 288.05834961 C-102.453125 290.16796875 -102.453125 290.16796875 -103.453125 293.16796875 C-104.42353892 302.42883244 -104.55301888 311.73924762 -104.578125 321.04296875 C-104.58271729 322.01210205 -104.58730957 322.98123535 -104.59204102 323.97973633 C-104.59002686 324.8848999 -104.5880127 325.79006348 -104.5859375 326.72265625 C-104.58424561 327.93671143 -104.58424561 327.93671143 -104.58251953 329.17529297 C-104.57781408 331.24218734 -104.57781408 331.24218734 -103.453125 333.16796875 C-103.29831701 334.49817071 -103.17828219 335.83253949 -103.078125 337.16796875 C-102.55949834 342.39674577 -101.1033268 347.19660609 -99.453125 352.16796875 C-101.433125 351.50796875 -103.413125 350.84796875 -105.453125 350.16796875 C-105.453125 349.50796875 -105.453125 348.84796875 -105.453125 348.16796875 C-106.4121875 347.79671875 -106.4121875 347.79671875 -107.390625 347.41796875 C-108.40125 347.00546875 -109.411875 346.59296875 -110.453125 346.16796875 C-111.07316406 345.94625 -111.69320312 345.72453125 -112.33203125 345.49609375 C-122.40184006 341.56460302 -131.4813273 334.16792589 -138.0859375 325.6640625 C-139.4882159 323.88572298 -139.4882159 323.88572298 -142.453125 323.16796875 C-143.17403544 321.43122997 -143.89089639 319.69239597 -144.56640625 317.9375 C-145.89479943 315.28656559 -148.13379438 313.95206923 -150.453125 312.16796875 C-151.578125 309.66796875 -151.578125 309.66796875 -152.453125 307.16796875 C-152.9275 306.59046875 -153.401875 306.01296875 -153.890625 305.41796875 C-155.91839419 302.49798111 -156.67227406 299.50189689 -157.609375 296.09375 C-158.02703125 295.14048828 -158.02703125 295.14048828 -158.453125 294.16796875 C-159.443125 293.83796875 -160.433125 293.50796875 -161.453125 293.16796875 C-165.28999286 258.84170448 -165.28999286 258.84170448 -160.453125 249.16796875 C-160.29677055 246.96163369 -160.17748762 244.75260406 -160.078125 242.54296875 C-159.7056305 236.78999813 -158.9887304 232.34060377 -156.453125 227.16796875 C-155.793125 226.83796875 -155.133125 226.50796875 -154.453125 226.16796875 C-153.81113018 224.67095357 -153.23860617 223.14380282 -152.703125 221.60546875 C-149.81510455 214.10091004 -145.75226315 209.08436926 -139.453125 204.16796875 C-137.0249386 201.58046696 -134.72297139 198.89483119 -132.453125 196.16796875 C-131.72996094 195.40484375 -131.00679688 194.64171875 -130.26171875 193.85546875 C-127.93061828 190.39154408 -127.9822107 188.25158237 -128.078125 184.10546875 C-128.09174072 183.44571045 -128.10535645 182.78595215 -128.11938477 182.10620117 C-128.27964796 177.05394959 -128.96446783 172.19195872 -129.91918945 167.23754883 C-132.81555122 150.58644846 -132.34237176 132.56494042 -130.703125 115.79296875 C-130.6414917 115.06899902 -130.5798584 114.3450293 -130.51635742 113.59912109 C-129.97618194 108.96471836 -128.7084711 107.32703844 -125.453125 104.16796875 C-124.18865418 101.43600562 -123.29898475 98.59755574 -122.390625 95.73046875 C-120.80870903 90.84205468 -119.26869066 86.51288066 -116.453125 82.16796875 C-115.73522005 80.50373455 -115.01862248 78.83888328 -114.31640625 77.16796875 C-108.9227839 64.67233687 -102.00271396 54.37369194 -92.453125 44.73046875 C-91.78885498 44.05612793 -91.12458496 43.38178711 -90.44018555 42.68701172 C-86.65227853 38.96472639 -82.87637165 35.99450943 -78.30566406 33.29663086 C-75.6114985 31.65520659 -73.2433083 29.69130815 -70.828125 27.66796875 C-69.89226562 26.889375 -68.95640625 26.11078125 -67.9921875 25.30859375 C-66.54827805 24.09126701 -65.10506722 22.87310757 -63.6640625 21.65234375 C-62.27242612 20.47652264 -60.8631739 19.32164512 -59.453125 18.16796875 C-58.91429687 17.72582031 -58.37546875 17.28367187 -57.8203125 16.828125 C-53.47152898 13.46415569 -49.81045963 12.32872459 -44.453125 11.16796875 C-43.463125 10.50796875 -42.473125 9.84796875 -41.453125 9.16796875 C-39.19140625 8.75390625 -39.19140625 8.75390625 -36.765625 8.54296875 C-35.95738281 8.46820313 -35.14914062 8.3934375 -34.31640625 8.31640625 C-33.70152344 8.26742188 -33.08664062 8.2184375 -32.453125 8.16796875 C-32.453125 7.50796875 -32.453125 6.84796875 -32.453125 6.16796875 C-27.40582845 4.28440574 -22.43771287 3.40831527 -17.140625 2.60546875 C-0.07899264 0.00012943 -0.07899264 0.00012943 0 0 Z " fill="#FD7304" transform="translate(497.453125,390.83203125)"/>
<path d="M0 0 C1.11181641 0.36544922 1.11181641 0.36544922 2.24609375 0.73828125 C11.04066725 3.63321886 19.07321687 9.7850563 23.6875 17.9375 C26.45879034 25.30083183 25.28292396 34.27460419 25 42 C23.92492187 42.43828125 22.84984375 42.8765625 21.7421875 43.328125 C18.92214403 44.53894306 16.54348265 45.8367115 14.125 47.75 C13.45339844 48.27464844 12.78179687 48.79929687 12.08984375 49.33984375 C11.40019531 49.88769531 10.71054687 50.43554688 10 51 C9.30003906 51.53753906 8.60007812 52.07507813 7.87890625 52.62890625 C3.7023174 55.83765811 -0.3839336 59.13725266 -4.4375 62.5 C-8.81238806 66.10466129 -13.31049605 69.41334373 -18.00390625 72.58984375 C-20.09699469 73.98397574 -20.09699469 73.98397574 -22 76 C-32.25374568 77.04067867 -44.48873248 76.63311765 -53.18359375 70.5703125 C-55.94303259 68.18473311 -58.26498693 65.50471385 -60.5546875 62.671875 C-61.91427976 60.88279082 -61.91427976 60.88279082 -64 60 C-67.19237333 50.42288002 -65.65448389 35.47862168 -63 26 C-61.07683635 22.26282522 -58.72689108 19.18412736 -56 16 C-55.39285156 15.23429687 -54.78570312 14.46859375 -54.16015625 13.6796875 C-51.04301515 9.87363776 -48.79545805 7.50714396 -44 6 C-43.34 5.01 -42.68 4.02 -42 3 C-39.71484375 2.15625 -39.71484375 2.15625 -36.9375 1.5 C-33.40680045 0.63673711 -30.11437264 -0.32252596 -26.75 -1.6875 C-18.11079302 -4.63481069 -7.99891686 -4.3915622 0 0 Z " fill="#FA7305" transform="translate(412,345)"/>
<path d="M0 0 C1.24007812 -0.02578125 2.48015625 -0.0515625 3.7578125 -0.078125 C4.78648437 0.03015625 5.81515625 0.1384375 6.875 0.25 C7.535 1.24 8.195 2.23 8.875 3.25 C11.51132971 4.48390156 11.51132971 4.48390156 14.5 5.4375 C16.00433594 5.95376953 16.00433594 5.95376953 17.5390625 6.48046875 C18.30992187 6.73441406 19.08078125 6.98835938 19.875 7.25 C19.875 7.91 19.875 8.57 19.875 9.25 C21.03 9.435625 22.185 9.62125 23.375 9.8125 C28.70318999 11.17530525 32.41826938 14.00910364 35.875 18.25 C36.93534667 20.56561001 37.64867703 22.79111021 38.30078125 25.25 C39.01220367 27.72787946 40.24209287 29.27690388 41.875 31.25 C47.44967613 39.61201419 46.37794914 51.03507494 44.66015625 60.5 C43.57511123 64.30035669 42.08052734 65.97051389 38.875 68.25 C38.33488281 68.68699219 37.79476562 69.12398438 37.23828125 69.57421875 C32.03554812 73.65456451 26.57373829 75.76528756 19.875 75.25 C17.41796875 74.15625 17.41796875 74.15625 15.0625 72.75 C14.27230469 72.2859375 13.48210938 71.821875 12.66796875 71.34375 C12.07628906 70.9828125 11.48460937 70.621875 10.875 70.25 C10.875 69.59 10.875 68.93 10.875 68.25 C9.885 68.1571875 9.885 68.1571875 8.875 68.0625 C4.72276482 66.93793631 1.30849744 64.82512308 -2.125 62.25 C-2.455 61.59 -2.785 60.93 -3.125 60.25 C-5.03933278 59.48516702 -5.03933278 59.48516702 -7.3125 58.875 C-11.48928492 57.56566303 -14.47279553 55.68480298 -18.125 53.25 C-25.60071919 49.78779377 -33.35987981 46.98613487 -41.125 44.25 C-41.72664854 30.62934563 -40.31750081 21.86570525 -31.125 11.25 C-25.71171443 5.43071802 -18.54910718 3.57562394 -11.125 1.25 C-10.47015625 1.04375 -9.8153125 0.8375 -9.140625 0.625 C-6.09031179 0.05749987 -3.09916169 0.0388204 0 0 Z " fill="#FA7305" transform="translate(606.125,330.75)"/>
<path d="M0 0 C0.474375 0.45375 0.94875 0.9075 1.4375 1.375 C1.00263414 3.81024884 0.52040181 5.2668672 -1 7.25 C-4.54188431 12.06696266 -4.88697849 17.41899603 -5.31640625 23.203125 C-5.5625 25.375 -5.5625 25.375 -6.5625 27.375 C-6.76864251 28.76163047 -6.92884384 30.15529753 -7.0625 31.55078125 C-7.145 32.37900391 -7.2275 33.20722656 -7.3125 34.06054688 C-7.395 34.92744141 -7.4775 35.79433594 -7.5625 36.6875 C-7.72692691 38.39214461 -7.89353202 40.09658077 -8.0625 41.80078125 C-8.1346875 42.55786377 -8.206875 43.31494629 -8.28125 44.0949707 C-8.5625 46.375 -8.5625 46.375 -9.07397461 48.74755859 C-9.65060236 51.84884189 -9.77813054 54.83544128 -9.87890625 57.98828125 C-9.94174805 59.8590332 -9.94174805 59.8590332 -10.00585938 61.76757812 C-10.04517578 63.06115234 -10.08449219 64.35472656 -10.125 65.6875 C-10.18977539 67.65686523 -10.18977539 67.65686523 -10.25585938 69.66601562 C-10.36177227 72.90224288 -10.46384885 76.13854458 -10.5625 79.375 C-12.75769093 79.41079733 -14.95305491 79.43605626 -17.1484375 79.45703125 C-18.37095215 79.4722583 -19.5934668 79.48748535 -20.85302734 79.50317383 C-27.77240002 79.26408796 -35.29043909 78.1891589 -40.5625 73.375 C-40.5625 72.715 -40.5625 72.055 -40.5625 71.375 C-41.614375 71.313125 -42.66625 71.25125 -43.75 71.1875 C-48.33281438 70.21083464 -49.57757135 68.90978392 -52.5625 65.375 C-53.03042969 64.86066406 -53.49835938 64.34632813 -53.98046875 63.81640625 C-57.5625 59.79289216 -57.5625 59.79289216 -57.5625 56.375 C-58.2225 56.375 -58.8825 56.375 -59.5625 56.375 C-63.44638866 49.78626031 -63.97323847 43.41199501 -64 35.9375 C-64.00966797 35.04901367 -64.01933594 34.16052734 -64.02929688 33.24511719 C-64.01833984 32.40239258 -64.00738281 31.55966797 -63.99609375 30.69140625 C-63.98634521 29.93287354 -63.97659668 29.17434082 -63.96655273 28.39282227 C-63.46240726 25.87514108 -62.44548807 25.05525151 -60.5625 23.375 C-59.88872602 21.44246579 -59.88872602 21.44246579 -59.4375 19.3125 C-57.25055207 12.34160346 -52.28597505 6.65240848 -46.078125 2.85546875 C-42.71965533 1.30245091 -40.2874146 0.375 -36.5625 0.375 C-36.5625 -0.285 -36.5625 -0.945 -36.5625 -1.625 C-25.20302601 -3.91736232 -10.41439188 -6.60424851 0 0 Z " fill="#F97203" transform="translate(324.5625,600.625)"/>
<path d="M0 0 C0.72058594 -0.02835937 1.44117188 -0.05671875 2.18359375 -0.0859375 C8.29861268 1.09891017 12.45606315 6.05334091 16.4375 10.5 C16.93507813 11.03753906 17.43265625 11.57507813 17.9453125 12.12890625 C21.5625 16.1137749 21.5625 16.1137749 21.5625 18.375 C22.29984375 18.62121094 23.0371875 18.86742187 23.796875 19.12109375 C28.60367085 21.30044611 31.65364474 25.04538441 34.5625 29.375 C35.69119806 32.49403617 36.07808473 35.09053433 35.5625 38.375 C33.79746686 41.29643417 32.60402365 42.85423817 29.5625 44.375 C24.50666728 44.75657228 21.55223488 44.5667879 17.5625 41.375 C15.74464559 39.39303374 14.00008188 37.363251 12.26953125 35.3046875 C10.24755265 33.01897256 7.97390178 31.23522423 5.5625 29.375 C4.9025 28.385 4.2425 27.395 3.5625 26.375 C2.2425 26.375 0.9225 26.375 -0.4375 26.375 C-0.746875 27.365 -0.746875 27.365 -1.0625 28.375 C-2.95442359 32.50283329 -5.63817222 35.82200705 -8.4375 39.375 C-9.55125 40.8290625 -9.55125 40.8290625 -10.6875 42.3125 C-12.61302578 44.58186966 -13.52655889 45.26772701 -16.4609375 45.61328125 C-22.85089001 45.81495749 -22.85089001 45.81495749 -25.9375 43.5 C-28.68771172 39.60386673 -28.89512981 37.18011302 -28.4375 32.375 C-26.19344221 27.12390478 -23.01669587 22.78934157 -19.4375 18.375 C-18.7878125 17.0446875 -18.7878125 17.0446875 -18.125 15.6875 C-16.5887803 12.67195763 -14.93680798 9.93848607 -13.0625 7.125 C-12.21558594 5.84882813 -12.21558594 5.84882813 -11.3515625 4.546875 C-8.1987509 0.96939898 -4.66297539 0.08311899 0 0 Z " fill="#0B0E33" transform="translate(550.4375,488.625)"/>
<path d="M0 0 C1.09441406 -0.01417969 2.18882812 -0.02835937 3.31640625 -0.04296875 C6.46619231 0.18961871 8.63439692 0.75806949 11.4375 2.1875 C12.4375 4 12.4375 4 13.4375 6.1875 C14.6440625 7.363125 14.6440625 7.363125 15.875 8.5625 C18.53079747 11.28307302 19.87547125 13.75103676 21.4375 17.1875 C21.7675 17.5175 22.0975 17.8475 22.4375 18.1875 C23.0625 20.8125 23.0625 20.8125 22.4375 24.1875 C20.49832196 26.14536891 18.40679671 27.65492088 16.16015625 29.25 C13.17584585 31.37369865 10.37937214 33.65948307 7.5625 36 C0.10350263 42.17332973 0.10350263 42.17332973 -3.5 42.25 C-9.81758147 41.08659099 -16.99914419 37.4334886 -21 32.3671875 C-23.38335976 26.89004343 -23.38212344 20.01325486 -22.5625 14.1875 C-20.84198266 10.79241385 -18.67759761 7.8617785 -16.25 4.9375 C-15.69699219 4.25171875 -15.14398438 3.5659375 -14.57421875 2.859375 C-10.51570441 -0.51352624 -5.063156 0.02988876 0 0 Z " fill="#FDFBF9" transform="translate(399.5625,371.8125)"/>
<path d="M0 0 C5.37554903 3.95070471 8.69489861 7.70331908 10.25 14.3125 C10.38086831 17.06073445 10.38757897 19.58737814 10.25 22.3125 C10.270625 23.50875 10.29125 24.705 10.3125 25.9375 C8.89798286 30.43067209 6.776714 31.96577861 2.796875 34.3359375 C-0.79056833 35.71149092 -3.14934192 35.42382719 -6.765625 34.2890625 C-9.65622569 32.86652279 -11.51298525 30.60544012 -13.75 28.3125 C-15.85847317 27.41567632 -15.85847317 27.41567632 -18.1875 26.75 C-22.33807306 25.4729006 -25.60216174 24.46033826 -28.75 21.3125 C-29.68773331 16.32815176 -29.54769213 10.62560869 -26.75 6.3125 C-19.25096823 -1.53052406 -10.01975051 -6.40013621 0 0 Z " fill="#FCF8F6" transform="translate(616.75,362.6875)"/>
<path d="M0 0 C4.75800147 2.59770812 7.25384671 5.73621249 9.1484375 10.796875 C10.42815005 16.30053385 9.51624254 20.58079616 7.01953125 25.57421875 C3.64374996 29.4061867 1.04321863 30.90308232 -4.06640625 31.55078125 C-10.19042846 31.84387047 -14.74589022 31.39508921 -19.734375 27.671875 C-22.86964429 24.7094777 -24.11085241 22.0562083 -24.53125 17.76953125 C-24.7789626 8.98225286 -24.7789626 8.98225286 -22.29296875 5.19921875 C-15.80603622 -0.40894214 -8.43062336 -2.94425518 0 0 Z " fill="#0C0C2D" transform="translate(490.29296875,465.80078125)"/>
<path d="M0 0 C5.3772569 2.50714603 10.6634205 4.99513075 14 10 C15.16301844 15.21720244 15.68776151 19.54511989 13.375 24.4375 C7.47060778 30.80802845 7.47060778 30.80802845 2.73828125 31.42578125 C1.04251953 31.36970703 1.04251953 31.36970703 -0.6875 31.3125 C-1.82574219 31.28800781 -2.96398437 31.26351563 -4.13671875 31.23828125 C-7 31 -7 31 -9 30 C-9 29.34 -9 28.68 -9 28 C-9.66 28 -10.32 28 -11 28 C-15.68738108 22.72669628 -17.6212014 18.6526052 -17.52734375 11.61328125 C-16.59115108 6.97392644 -13.49159473 4.02552213 -10 1 C-6.63782818 -0.68108591 -3.6062747 -0.70435053 0 0 Z " fill="#0B0C2E" transform="translate(601,461)"/>
<path d="M0 0 C2.5 2.75 2.5 2.75 4 6 C4.53753906 6.81984375 4.53753906 6.81984375 5.0859375 7.65625 C6.50655132 11.29884954 6.20842048 14.8805732 6.125 18.75 C6.11597656 19.54277344 6.10695313 20.33554687 6.09765625 21.15234375 C6.07417012 23.10169281 6.03830137 25.05088575 6 27 C6.66 27.33 7.32 27.66 8 28 C6.68 28.33 5.36 28.66 4 29 C4.02320313 27.92621094 4.04640625 26.85242188 4.0703125 25.74609375 C4.08908624 24.30990285 4.1072847 22.87370435 4.125 21.4375 C4.14175781 20.73302734 4.15851562 20.02855469 4.17578125 19.30273438 C4.22012186 14.49177777 3.75860989 10.50571944 2 6 C-2.26474133 4.1136721 -6.36158647 3.47290755 -11 4 C-13.30398876 5.69069679 -13.92898244 6.65575456 -14.51171875 9.48046875 C-14.56972656 10.37378906 -14.62773438 11.26710938 -14.6875 12.1875 C-14.75324219 13.08855469 -14.81898438 13.98960937 -14.88671875 14.91796875 C-14.92410156 15.60503906 -14.96148438 16.29210937 -15 17 C-15.33 17 -15.66 17 -16 17 C-16.87953464 7.8463247 -16.87953464 7.8463247 -15.015625 3.93359375 C-11.02257395 -0.721227 -5.82334381 -1.5208733 0 0 Z " fill="#60627A" transform="translate(665,704)"/>
<path d="M0 0 C2.93423195 1.79646854 4.47205355 2.9441071 6 6 C6.09631854 7.65795097 6.13075074 9.31972361 6.1328125 10.98046875 C6.13474609 12.4799707 6.13474609 12.4799707 6.13671875 14.00976562 C6.13285156 15.05841797 6.12898438 16.10707031 6.125 17.1875 C6.13080078 18.73147461 6.13080078 18.73147461 6.13671875 20.30664062 C6.12987861 25.64537015 5.93716735 30.74144987 5 36 C4.67 36 4.34 36 4 36 C4.01571045 35.23856689 4.0314209 34.47713379 4.04760742 33.69262695 C4.11008453 30.2326606 4.14903172 26.7728131 4.1875 23.3125 C4.21263672 22.11431641 4.23777344 20.91613281 4.26367188 19.68164062 C4.27333984 18.52470703 4.28300781 17.36777344 4.29296875 16.17578125 C4.3086792 15.11270752 4.32438965 14.04963379 4.34057617 12.9543457 C3.95396383 9.60065683 2.84295232 7.78492597 1 5 C1 4.34 1 3.68 1 3 C-1.97 2.67 -4.94 2.34 -8 2 C-8.66 3.32 -9.32 4.64 -10 6 C-10.99 6.33 -11.98 6.66 -13 7 C-13.73323796 9.01508358 -13.73323796 9.01508358 -14 11 C-14.33 11 -14.66 11 -15 11 C-15.44823695 7.14516221 -15.27280781 5.41830531 -13.125 2.125 C-8.76889695 -0.83715007 -5.12690381 -0.9344603 0 0 Z " fill="#5A5D75" transform="translate(452,707)"/>
<path d="M0 0 C2.9375 2 2.9375 2 5 4 C4.67 4.66 4.34 5.32 4 6 C3.195625 5.649375 2.39125 5.29875 1.5625 4.9375 C-2.85075856 3.77611617 -6.55672644 4.07392825 -11 5 C-12.88631543 6.88631543 -12.24265292 10.14200693 -12.31640625 12.66015625 C-12.33718735 13.32462265 -12.35796844 13.98908905 -12.37937927 14.6736908 C-12.44493658 16.80318543 -12.50378785 18.93280668 -12.5625 21.0625 C-12.60567939 22.50326847 -12.64929349 23.94402399 -12.69335938 25.38476562 C-12.80062393 28.9230404 -12.90187371 32.46145869 -13 36 C-13.33 36 -13.66 36 -14 36 C-14.26745392 31.82031713 -14.50031898 27.64053146 -14.7019043 23.45727539 C-14.77519973 22.03586183 -14.85777402 20.61489416 -14.94995117 19.19458008 C-15.08118892 17.14712779 -15.17846818 15.10036613 -15.26953125 13.05078125 C-15.33760986 11.82012939 -15.40568848 10.58947754 -15.47583008 9.3215332 C-14.86063861 5.02718741 -13.34530553 3.65783439 -10 1 C-6.39427296 -0.20190901 -3.7897565 -0.32670315 0 0 Z " fill="#6A6C83" transform="translate(531,709)"/>
<path d="M0 0 C1.09441406 -0.01417969 2.18882812 -0.02835937 3.31640625 -0.04296875 C6.43689486 0.18745531 8.6241095 0.86201062 11.4375 2.1875 C11.4375 2.8475 11.4375 3.5075 11.4375 4.1875 C10.85645508 4.03031494 10.27541016 3.87312988 9.67675781 3.71118164 C3.65728513 2.30344408 -3.4646906 1.98914789 -9.5625 3.1875 C-12.39035008 4.94838821 -14.02519456 6.59886238 -16.01953125 9.2421875 C-17.69902308 11.35962277 -19.08953194 12.16827238 -21.5625 13.1875 C-20.1498663 10.10601963 -18.48152008 7.60380113 -16.3125 5 C-15.75046875 4.30519531 -15.1884375 3.61039062 -14.609375 2.89453125 C-10.52812624 -0.50910559 -5.10047576 0.03010907 0 0 Z " fill="#FFCDA5" transform="translate(399.5625,371.8125)"/>
<path d="M0 0 C3.62624871 5.43937307 3.38746054 10.65516555 3.6875 17 C3.74744141 17.99128906 3.80738281 18.98257812 3.86914062 20.00390625 C4.19931893 26.94217356 3.530505 33.22811943 2 40 C1.34 40 0.68 40 0 40 C0.061875 40.94875 0.12375 41.8975 0.1875 42.875 C0.125625 43.90625 0.06375 44.9375 0 46 C-0.99 46.66 -1.98 47.32 -3 48 C-2.52264214 45.89542225 -2.04305171 43.79135078 -1.5625 41.6875 C-1.16224609 39.92986328 -1.16224609 39.92986328 -0.75390625 38.13671875 C0 35 0 35 1 32 C1.09414232 30.16333656 1.13071104 28.32344839 1.1328125 26.484375 C1.13410156 25.39769531 1.13539063 24.31101562 1.13671875 23.19140625 C1.13285156 22.05574219 1.12898437 20.92007812 1.125 19.75 C1.12886719 18.62980469 1.13273438 17.50960938 1.13671875 16.35546875 C1.13015856 10.79899033 0.99617159 5.4710376 0 0 Z " fill="#4F526C" transform="translate(669,357)"/>
<path d="M0 0 C1.1551826 3.69333029 0.54583154 6.06317284 -0.45678711 9.78417969 C-2.93800726 19.9053276 -2.11471677 30.78410864 -2.0625 41.125 C-2.05747515 42.86197788 -2.05291398 44.59895716 -2.04882812 46.3359375 C-2.03790014 50.55732688 -2.02068978 54.77864764 -2 59 C-2.33 59 -2.66 59 -3 59 C-3.7996724 50.77874201 -4.1937302 42.63436997 -4.1875 34.375 C-4.18669434 33.252146 -4.18588867 32.12929199 -4.18505859 30.97241211 C-4.13526156 24.1302027 -3.8654197 17.36585878 -3.125 10.5625 C-3.04660889 9.83015137 -2.96821777 9.09780273 -2.88745117 8.34326172 C-2.45073648 4.86712997 -1.98046244 2.97069367 0 0 Z " fill="#A04B13" transform="translate(370,496)"/>
<path d="M0 0 C1.125 3.75 1.125 3.75 0 6 C-0.26976218 9.70228154 -0.23167409 13.41400413 -0.25 17.125 C-0.270625 18.1459375 -0.29125 19.166875 -0.3125 20.21875 C-0.34522766 26.58428034 0.39532882 31.19008184 3 37 C3.67735217 38.99640639 4.34838935 40.99504414 5 43 C4.34 43 3.68 43 3 43 C2.72285156 42.43410156 2.44570312 41.86820313 2.16015625 41.28515625 C1.61681641 40.18494141 1.61681641 40.18494141 1.0625 39.0625 C0.70285156 38.33160156 0.34320313 37.60070312 -0.02734375 36.84765625 C-0.86371827 35.03750973 -0.86371827 35.03750973 -2 34 C-2.21866473 29.77921942 -2.1857902 25.55277598 -2.18530273 21.3269043 C-2.18748032 19.20666166 -2.20560675 17.08694673 -2.22460938 14.96679688 C-2.22754507 13.61718928 -2.22952869 12.26757921 -2.23046875 10.91796875 C-2.23457764 9.68844482 -2.23868652 8.4589209 -2.24291992 7.19213867 C-2.014064 4.1848108 -1.58443874 2.52010928 0 0 Z " fill="#8E90A1" transform="translate(241,622)"/>
<path d="M0 0 C0.33 0 0.66 0 1 0 C1.06058594 1.258125 1.12117188 2.51625 1.18359375 3.8125 C1.70688256 14.54781733 2.29598071 25.27494023 3 36 C0.03 36 -2.94 36 -6 36 C-6 35.67 -6 35.34 -6 35 C-3.36 35 -0.72 35 2 35 C1.835 34.505 1.67 34.01 1.5 33.5 C0.79311182 29.96555911 0.93994845 26.60309299 1 23 C0.34 23 -0.32 23 -1 23 C-1.1567564 15.28410183 -0.67453101 7.68483539 0 0 Z " fill="#4D4F6A" transform="translate(436,720)"/>
<path d="M0 0 C23.99516389 -0.61916858 23.99516389 -0.61916858 33 3 C33 3.33 33 3.66 33 4 C20.66752577 3.09149485 20.66752577 3.09149485 14.875 2.4375 C9.58169029 1.8803095 4.31677015 1.90902865 -1 2 C-0.67 1.34 -0.34 0.68 0 0 Z " fill="#707388" transform="translate(295,575)"/>
<path d="M0 0 C0.66 0.33 1.32 0.66 2 1 C0.02208206 3.79235474 -1.12271151 5.26153322 -4 7 C-12.13724842 8.28169114 -19.46119155 7.11950695 -27 4 C-23.38348288 2.74812869 -20.71563962 3.3165058 -17 4 C-14.7949902 4.15974537 -12.58524178 4.263326 -10.375 4.3125 C-8.71597656 4.36857422 -8.71597656 4.36857422 -7.0234375 4.42578125 C-3.38303167 3.91311428 -2.27096182 2.80823815 0 0 Z " fill="#813E19" transform="translate(394,416)"/>
<path d="M0 0 C3.16115776 1.36983503 3.9927092 1.9890638 6 5 C6.24291992 7.34082031 6.24291992 7.34082031 6.23046875 10.078125 C6.22853516 11.07457031 6.22660156 12.07101562 6.22460938 13.09765625 C6.21236328 14.13792969 6.20011719 15.17820312 6.1875 16.25 C6.18685547 17.27480469 6.18621094 18.29960938 6.18554688 19.35546875 C6.15476282 24.67084932 5.92449628 29.76365309 5 35 C4.67 35 4.34 35 4 35 C4.02094727 34.25427734 4.04189453 33.50855469 4.06347656 32.74023438 C4.14716634 29.32696275 4.19882794 25.91390776 4.25 22.5 C4.28351563 21.32695313 4.31703125 20.15390625 4.3515625 18.9453125 C4.43248374 11.74332239 3.79358939 7.15338122 0 1 C0 0.67 0 0.34 0 0 Z " fill="#717388" transform="translate(452,708)"/>
<path d="M0 0 C0.66 0.33 1.32 0.66 2 1 C0.61240749 2.61130023 -0.78545623 4.21375841 -2.1875 5.8125 C-2.96480469 6.70582031 -3.74210937 7.59914063 -4.54296875 8.51953125 C-6.89417119 10.8931617 -9.06791184 12.43240047 -12 14 C-10.60089587 9.47301364 -8.4384826 7.24844018 -4.875 4.1875 C-3.96492188 3.39730469 -3.05484375 2.60710938 -2.1171875 1.79296875 C-1.06917969 0.90544922 -1.06917969 0.90544922 0 0 Z " fill="#FFD8B9" transform="translate(451,570)"/>
<path d="M0 0 C0.33 0 0.66 0 1 0 C1.33 3.96 1.66 7.92 2 12 C-4.86515862 12.26404456 -11.25846717 11.25841946 -18 10 C-18 9.67 -18 9.34 -18 9 C-11.8894576 8.88730557 -6.04829486 9.10395632 0 10 C0 6.7 0 3.4 0 0 Z " fill="#ACAEBA" transform="translate(436,743)"/>
<path d="M0 0 C2.3125 0.6875 2.3125 0.6875 4 2 C5.25 4.625 5.25 4.625 6 7 C5.34 6.525625 4.68 6.05125 4 5.5625 C0.35099387 3.66197598 -2.86300629 2.6830529 -7 3 C-9.98788033 4.76997412 -9.98788033 4.76997412 -12 7 C-9.18130238 0.71213608 -7.07963257 -0.6210204 0 0 Z " fill="#676A80" transform="translate(584,705)"/>
<path d="M0 0 C4.08926872 0.56403706 5.70241131 1.6659746 8.625 4.5 C8.295 5.16 7.965 5.82 7.625 6.5 C6.8 6.17 5.975 5.84 5.125 5.5 C1.0376017 4.33217191 -2.14423344 4.3541115 -6.375 4.5 C-4.59664868 1.15251516 -3.83793714 0.56858328 0 0 Z " fill="#51546E" transform="translate(527.375,708.5)"/>
<path d="M0 0 C1.23816075 3.74262227 0.99631716 7.15837296 0.75 11.0625 C0.68296875 12.29097656 0.6159375 13.51945312 0.546875 14.78515625 C-0.00845284 18.04969064 -0.38592503 19.08160627 -3 21 C-2.58169634 13.77875787 -2.04538889 6.95432222 0 0 Z " fill="#7E8093" transform="translate(348,494)"/>
<path d="M0 0 C3.44822212 1.72411106 3.88818115 5.5661125 5.11328125 9.0546875 C6.22408432 12.74431532 6.7105326 16.16455695 7 20 C5 18 5 18 4.875 15.375 C4.91625 14.59125 4.9575 13.8075 5 13 C4.01 12.67 3.02 12.34 2 12 C1.34 8.04 0.68 4.08 0 0 Z " fill="#8E4417" transform="translate(686,517)"/>
<path d="M0 0 C1.34326102 4.34736876 0.31931837 7.83560022 -0.8125 12.125 C-0.99103516 12.85332031 -1.16957031 13.58164062 -1.35351562 14.33203125 C-2.7373059 19.7373059 -2.7373059 19.7373059 -5 22 C-4.125 14.25 -4.125 14.25 -3 12 C-2.72904124 9.73340843 -2.55512003 7.46718841 -2.37890625 5.19140625 C-2 3 -2 3 0 0 Z " fill="#9C4914" transform="translate(703,657)"/>
<path d="M0 0 C2.78381283 3.63106021 4.15814183 5.76678201 4.25 10.375 C4.27578125 11.14585937 4.3015625 11.91671875 4.328125 12.7109375 C3.92541664 15.52030769 2.83696133 16.88266036 1 19 C1.01160156 18.13117188 1.02320313 17.26234375 1.03515625 16.3671875 C1.04417969 15.21476562 1.05320312 14.06234375 1.0625 12.875 C1.07990234 11.16957031 1.07990234 11.16957031 1.09765625 9.4296875 C1.005327 6.1870844 0.61389906 3.18067388 0 0 Z " fill="#FFA65E" transform="translate(625,371)"/>
<path d="M0 0 C0.33 0 0.66 0 1 0 C3.28584898 6.55276707 3.60594368 13.10401439 4 20 C-0.01984912 13.97022631 -0.25729264 7.07554765 0 0 Z " fill="#74768B" transform="translate(717,546)"/>
<path d="M0 0 C1.2380014 3.57644848 0.74926071 6.33694766 0 10 C-0.66 10 -1.32 10 -2 10 C-1.938125 10.94875 -1.87625 11.8975 -1.8125 12.875 C-1.874375 13.90625 -1.93625 14.9375 -2 16 C-2.99 16.66 -3.98 17.32 -5 18 C-4.54678672 15.93636888 -4.08720894 13.87413493 -3.625 11.8125 C-3.36976563 10.66394531 -3.11453125 9.51539063 -2.8515625 8.33203125 C-2.10527548 5.41192652 -1.19568212 2.76046611 0 0 Z " fill="#74778B" transform="translate(671,387)"/>
<path d="M0 0 C0 0.66 0 1.32 0 2 C-0.99 2.33 -1.98 2.66 -3 3 C-4.23142754 4.49067545 -5.46075744 5.98343494 -6.66015625 7.5 C-8.48732457 9.5455762 -10.5775605 10.75417397 -13 12 C-11.60609461 8.84280428 -9.96365028 6.7187347 -7.5 4.3125 C-6.8915625 3.71050781 -6.283125 3.10851562 -5.65625 2.48828125 C-3.70055766 0.73092563 -2.65294241 0 0 0 Z " fill="#4C4F69" transform="translate(354,335)"/>
<path d="M0 0 C-0.51949219 0.23074219 -1.03898438 0.46148437 -1.57421875 0.69921875 C-6.24375905 2.88294093 -9.46660475 5.15483458 -13 9 C-13.99 9.495 -13.99 9.495 -15 10 C-13.63310446 6.84930578 -12.14342115 4.99108226 -9.5 2.8125 C-8.8915625 2.30332031 -8.283125 1.79414063 -7.65625 1.26953125 C-4.69541941 -0.99997333 -3.51169027 -1.05350708 0 0 Z " fill="#9C4914" transform="translate(587,337)"/>
<path d="M0 0 C1.51553092 3.97450493 0.49888623 7.20481149 -0.4375 11.25 C-0.72496094 12.51328125 -1.01242187 13.7765625 -1.30859375 15.078125 C-1.53675781 16.04234375 -1.76492188 17.0065625 -2 18 C-2.33 18 -2.66 18 -3 18 C-3.2661431 11.47949413 -2.97164571 5.94329141 0 0 Z " fill="#6C351D" transform="translate(370,496)"/>
<path d="M0 0 C0.33 0 0.66 0 1 0 C1 5.61 1 11.22 1 17 C1.66 17.33 2.32 17.66 3 18 C1.68 18.33 0.36 18.66 -1 19 C-0.67 12.73 -0.34 6.46 0 0 Z " fill="#5F6279" transform="translate(670,714)"/>
<path d="M0 0 C2.15925951 5.39814878 -0.86745567 10.97328838 -3 16 C-4.47928703 13.04142593 -3.45088625 11.15200625 -2.625 8 C-2.34914063 6.9275 -2.07328125 5.855 -1.7890625 4.75 C-1 2 -1 2 0 0 Z " fill="#75778C" transform="translate(722,670)"/>
<path d="M0 0 C0 0.66 0 1.32 0 2 C-0.99 2 -1.98 2 -3 2 C-3.2475 2.61875 -3.495 3.2375 -3.75 3.875 C-5.20628639 6.35068687 -6.37812506 6.95125002 -9 8 C-8.01437243 4.68470727 -7.34552581 3.25050621 -4.5 1.1875 C-2 0 -2 0 0 0 Z " fill="#3F435F" transform="translate(348,576)"/>
<path d="M0 0 C0.66 0.33 1.32 0.66 2 1 C-0.87494471 4.98069267 -3.82117329 7.43571997 -8 10 C-6.34908222 5.70761377 -3.26245434 3.1206085 0 0 Z " fill="#565972" transform="translate(565,322)"/>
<path d="M0 0 C0.99 0.495 0.99 0.495 2 1 C2 1.66 2 2.32 2 3 C2.66 3 3.32 3 4 3 C5.2890625 4.53125 5.2890625 4.53125 6.625 6.5 C7.07101562 7.1496875 7.51703125 7.799375 7.9765625 8.46875 C8.48316406 9.22671875 8.48316406 9.22671875 9 10 C6.03874657 8.62513234 3.39878817 7.23335451 1 5 C0.25 2.3125 0.25 2.3125 0 0 Z " fill="#5E6178" transform="translate(336,721)"/>
<path d="M0 0 C3.12270126 2.51830747 3.94523098 3.7261549 4.75 7.75 C4.8325 8.8225 4.915 9.895 5 11 C3 8 3 8 2.625 5.9375 C2.16676943 3.79331795 2.16676943 3.79331795 -0.0625 2.75 C-0.701875 2.5025 -1.34125 2.255 -2 2 C-1.34 2 -0.68 2 0 2 C0 1.34 0 0.68 0 0 Z " fill="#303352" transform="translate(665,706)"/>
<path d="M0 0 C0.66 0.33 1.32 0.66 2 1 C-2.625 6.875 -2.625 6.875 -6 8 C-4.55746343 4.63408134 -2.66735273 2.48952921 0 0 Z " fill="#FFDABC" transform="translate(478,504)"/>
<path d="M0 0 C-1.875 5.75 -1.875 5.75 -3 8 C-3.66 7.34 -4.32 6.68 -5 6 C-4.75 3.4375 -4.75 3.4375 -4 1 C-2 0 -2 0 0 0 Z " fill="#C7C8D0" transform="translate(653,419)"/>
<path d="M0 0 C-1.45255699 3.82946843 -3.42895561 5.12050295 -7 7 C-3.86206897 0 -3.86206897 0 0 0 Z " fill="#CF600B" transform="translate(278,605)"/>
<path d="M0 0 C0.86625 0.37125 0.86625 0.37125 1.75 0.75 C1.1725 0.9975 0.595 1.245 0 1.5 C-2.5502997 2.91683317 -4.26785701 4.62627537 -6.25 6.75 C-6.25 3.75 -6.25 3.75 -4.5 1.5 C-2.25 -0.25 -2.25 -0.25 0 0 Z " fill="#232646" transform="translate(579.25,707.25)"/>
<path d="M0 0 C0 3.69418201 -1.28179295 5.77836178 -3 9 C-3.33 9 -3.66 9 -4 9 C-4.25 6.75 -4.25 6.75 -4 4 C-2 1.6875 -2 1.6875 0 0 Z " fill="#FFAD6A" transform="translate(418,608)"/>
</svg>
