<?xml version="1.0" standalone="no"?>
<!DOCTYPE svg PUBLIC "-//W3C//DTD SVG 20010904//EN"
 "http://www.w3.org/TR/2001/REC-SVG-20010904/DTD/svg10.dtd">
<svg version="1.0" xmlns="http://www.w3.org/2000/svg"
 width="1024.000000pt" height="1024.000000pt" viewBox="0 0 1024.000000 1024.000000"
 preserveAspectRatio="xMidYMid meet">

<g transform="translate(0.000000,1024.000000) scale(0.100000,-0.100000)"
fill="#000000" stroke="none">
<path d="M0 5120 l0 -5120 5120 0 5120 0 0 5120 0 5120 -5120 0 -5120 0 0
-5120z m6678 3930 c29 -11 116 -52 195 -91 371 -186 668 -383 972 -644 54 -46
127 -81 146 -70 4 3 10 -2 13 -11 3 -8 2 -12 -4 -9 -6 3 -7 -1 -4 -10 4 -9 13
-14 20 -11 7 3 16 1 19 -4 4 -6 1 -10 -6 -10 -7 0 -9 -3 -6 -6 4 -4 26 9 49
28 60 48 77 56 48 22 -14 -16 -28 -30 -33 -32 -4 -2 -12 -13 -18 -24 -10 -18
-9 -20 5 -15 9 4 16 2 16 -3 0 -6 -4 -10 -10 -10 -5 0 -10 -4 -10 -10 0 -5 7
-10 16 -10 10 0 14 -6 11 -14 -4 -9 2 -17 13 -21 10 -3 21 -13 25 -23 5 -14 7
-14 15 -2 8 12 10 9 10 -11 0 -15 7 -29 15 -33 8 -3 15 -10 15 -16 0 -6 -5 -8
-12 -4 -7 4 -8 3 -4 -4 4 -6 14 -8 22 -5 14 5 14 3 6 -14 -9 -17 -7 -24 12
-42 12 -11 28 -21 35 -21 7 0 9 -5 6 -10 -5 -8 30 -59 80 -116 6 -7 18 -22 27
-35 9 -13 48 -67 85 -119 295 -407 487 -817 652 -1390 57 -197 113 -478 110
-551 -1 -26 -3 -28 -6 -9 -40 263 -61 363 -129 595 -104 362 -242 694 -402
975 -30 51 -155 243 -172 262 -6 7 -34 45 -62 83 -27 39 -55 69 -60 67 -5 -1
-7 2 -4 7 6 10 -31 62 -42 58 -4 -1 -7 0 -7 3 0 11 -30 38 -37 33 -5 -2 -8 5
-8 16 0 12 -4 22 -10 22 -5 1 -14 2 -19 3 -5 0 -13 5 -18 10 -5 5 -3 6 5 2 15
-9 15 -1 0 24 -12 18 -13 18 -32 2 -20 -17 -20 -17 -4 9 12 19 14 29 6 37 -12
12 -38 5 -38 -10 0 -6 7 -8 14 -5 10 4 13 1 9 -9 -3 -7 -9 -14 -13 -14 -11 0
-20 28 -14 43 3 9 -9 18 -36 26 -29 8 -40 17 -40 31 0 11 -6 20 -13 20 -7 0
-21 17 -32 38 -25 46 -40 63 -50 54 -5 -4 -5 1 -2 11 6 16 5 16 -16 2 -12 -8
-69 -62 -126 -120 -58 -58 -108 -105 -113 -105 -4 0 32 42 81 93 106 111 146
157 134 157 -5 0 -14 -5 -20 -11 -8 -8 -13 -5 -18 10 -3 11 -3 25 0 31 3 5 2
10 -3 10 -6 0 -8 9 -5 20 3 11 0 20 -6 20 -5 0 -8 7 -4 16 4 10 -1 17 -16 21
-11 3 -21 10 -21 15 0 17 -63 77 -73 71 -6 -3 -7 -1 -4 4 6 9 -100 106 -184
169 -14 10 -50 37 -80 60 -241 182 -488 326 -869 506 -48 23 -35 22 28 -2z
m1492 -754 c0 -2 -8 -10 -17 -17 -16 -13 -17 -12 -4 4 13 16 21 21 21 13z
m-168 -246 c12 -11 18 -20 12 -20 -11 1 -44 25 -44 34 0 11 10 7 32 -14z m78
-84 c0 -2 -7 -6 -15 -10 -8 -3 -15 -1 -15 4 0 6 7 10 15 10 8 0 15 -2 15 -4z
m-350 -120 c0 -7 -42 -49 -65 -66 -11 -8 -2 5 20 28 38 41 45 47 45 38z m444
-4 c2 -4 -4 -8 -14 -8 -10 0 -16 4 -14 8 3 4 9 8 14 8 5 0 11 -4 14 -8z m-723
-119 c13 -16 12 -17 -3 -4 -10 7 -18 15 -18 17 0 8 8 3 21 -13z m139 -16 c0
-2 -10 -12 -22 -23 l-23 -19 19 23 c18 21 26 27 26 19z m-75 -37 c3 -6 -1 -7
-9 -4 -18 7 -21 14 -7 14 6 0 13 -4 16 -10z m66 -77 c13 -16 12 -17 -3 -4 -10
7 -18 15 -18 17 0 8 8 3 21 -13z m-1886 -476 c182 -33 350 -92 468 -164 33
-20 66 -36 73 -36 7 0 11 -4 9 -8 -7 -10 70 -70 79 -62 3 3 6 1 6 -5 0 -7 7
-12 15 -12 8 0 15 -9 15 -19 0 -11 4 -21 8 -23 5 -1 30 -30 57 -63 26 -33 51
-62 54 -65 4 -3 32 -54 63 -115 57 -111 98 -230 117 -339 18 -100 11 -117 -9
-21 -24 114 -59 215 -106 305 -45 86 -57 86 -15 1 71 -147 102 -292 101 -471
0 -69 -4 -143 -9 -165 -5 -27 -7 6 -7 95 1 139 -4 200 -14 200 -4 0 -7 6 -7
13 -2 57 -88 276 -151 383 -34 59 -123 163 -180 212 -236 202 -454 286 -782
299 -95 4 -158 10 -162 17 -5 8 -8 7 -8 -1 0 -9 -19 -13 -60 -13 -33 0 -60 4
-60 10 0 6 -77 10 -211 10 -137 0 -208 -3 -204 -10 3 -5 1 -10 -4 -10 -6 0
-11 4 -11 10 0 6 -178 10 -502 10 -275 0 -503 2 -506 5 -3 3 141 5 319 5 178
0 599 1 934 2 537 2 622 0 712 -15 57 -10 114 -22 128 -27 15 -6 32 -10 38 -9
24 1 -70 31 -163 52 -93 20 -119 21 -1180 24 -712 3 -1088 7 -1095 14 -7 7
345 9 1075 6 959 -3 1096 -5 1175 -20z m-1955 -33 c0 -2 -17 -4 -37 -3 -29 0
-33 2 -18 8 18 7 55 4 55 -5z m-117 -1 c-24 -2 -62 -2 -85 0 -24 2 -5 4 42 4
47 0 66 -2 43 -4z m1444 -19 c-3 -3 -12 -4 -19 -1 -8 3 -5 6 6 6 11 1 17 -2
13 -5z m40 0 c-3 -3 -12 -4 -19 -1 -8 3 -5 6 6 6 11 1 17 -2 13 -5z m70 0 c-3
-3 -12 -4 -19 -1 -8 3 -5 6 6 6 11 1 17 -2 13 -5z m-1629 -815 c-1 -418 -4
-755 -8 -749 -5 8 -12 313 -11 440 1 55 0 382 -2 707 -2 299 1 379 10 371 10
-8 12 -183 11 -769z m2767 661 c3 -6 -1 -7 -9 -4 -18 7 -21 14 -7 14 6 0 13
-4 16 -10z m52 -30 c14 -11 22 -20 18 -20 -4 0 -18 9 -32 20 -14 11 -22 20
-18 20 4 0 18 -9 32 -20z m-936 -153 c-10 -9 -11 -8 -5 6 3 10 9 15 12 12 3
-3 0 -11 -7 -18z m449 -42 c0 -2 -10 -9 -22 -15 -22 -11 -22 -10 -4 4 21 17
26 19 26 11z m-125 -105 c-3 -5 -12 -10 -18 -10 -7 0 -6 4 3 10 19 12 23 12
15 0z m-272 -93 c149 -43 252 -126 320 -254 78 -149 89 -361 26 -496 -11 -23
-17 -33 -14 -22 52 172 47 333 -13 465 -9 19 -21 38 -26 42 -6 4 -8 8 -3 8 27
0 -105 142 -171 184 -21 13 -70 34 -108 47 -68 23 -75 23 -639 26 -333 2 -574
8 -579 13 -6 6 212 8 570 7 507 -3 586 -6 637 -20z m287 -11 c0 -2 -8 -10 -17
-17 -16 -13 -17 -12 -4 4 13 16 21 21 21 13z m73 -41 c-3 -9 -8 -14 -10 -11
-3 3 -2 9 2 15 9 16 15 13 8 -4z m-129 -23 c2 -4 -4 -8 -14 -8 -10 0 -16 4
-14 8 3 4 9 8 14 8 5 0 11 -4 14 -8z m-1327 -119 c-2 -16 -4 -5 -4 22 0 28 2
40 4 28 2 -13 2 -35 0 -50z m-40 -35 c-3 -7 -5 -2 -5 12 0 14 2 19 5 13 2 -7
2 -19 0 -25z m40 -105 c-2 -21 -4 -4 -4 37 0 41 2 58 4 38 2 -21 2 -55 0 -75z
m-40 -85 c-3 -8 -6 -5 -6 6 -1 11 2 17 5 13 3 -3 4 -12 1 -19z m40 -35 c-3
-10 -5 -2 -5 17 0 19 2 27 5 18 2 -10 2 -26 0 -35z m2290 -45 c-2 -18 -4 -4
-4 32 0 36 2 50 4 33 2 -18 2 -48 0 -65z m-4522 32 c-3 -5 -10 -10 -16 -10 -5
0 -9 5 -9 10 0 6 7 10 16 10 8 0 12 -4 9 -10z m2232 -67 c-3 -10 -5 -4 -5 12
0 17 2 24 5 18 2 -7 2 -21 0 -30z m-40 -45 c-3 -8 -6 -5 -6 6 -1 11 2 17 5 13
3 -3 4 -12 1 -19z m40 -10 c-3 -7 -5 -2 -5 12 0 14 2 19 5 13 2 -7 2 -19 0
-25z m0 -40 c-3 -8 -6 -5 -6 6 -1 11 2 17 5 13 3 -3 4 -12 1 -19z m0 -40 c-3
-8 -6 -5 -6 6 -1 11 2 17 5 13 3 -3 4 -12 1 -19z m2220 -30 c-3 -8 -6 -5 -6 6
-1 11 2 17 5 13 3 -3 4 -12 1 -19z m-2220 -40 c-2 -13 -4 -5 -4 17 -1 22 1 32
4 23 2 -10 2 -28 0 -40z m0 -70 c-3 -8 -6 -5 -6 6 -1 11 2 17 5 13 3 -3 4 -12
1 -19z m1413 -8 c-6 -11 -13 -20 -16 -20 -2 0 0 9 6 20 6 11 13 20 16 20 2 0
0 -9 -6 -20z m3417 -57 c-3 -10 -5 -4 -5 12 0 17 2 24 5 18 2 -7 2 -21 0 -30z
m-2656 4 c-10 -9 -11 -8 -5 6 3 10 9 15 12 12 3 -3 0 -11 -7 -18z m-1013 -130
c-15 -12 -60 -35 -100 -52 l-73 -30 -492 -5 c-270 -3 -489 -2 -486 3 2 4 211
7 463 7 505 0 517 1 633 60 87 44 89 45 55 17z m-2004 -22 c3 -8 1 -15 -4 -15
-6 0 -10 7 -10 15 0 8 2 15 4 15 2 0 6 -7 10 -15z m6 -70 c0 -8 -2 -15 -4 -15
-2 0 -6 7 -10 15 -3 8 -1 15 4 15 6 0 10 -7 10 -15z m-2 -50 c-3 -3 -9 2 -12
12 -6 14 -5 15 5 6 7 -7 10 -15 7 -18z m5710 -167 c15 3 15 1 -4 -48 l-16 -41
-14 27 c-8 15 -12 29 -10 32 3 2 0 14 -6 25 -9 17 -8 19 6 14 14 -5 16 3 18
61 l2 67 5 -70 c4 -48 10 -69 19 -67z m-5711 90 c-3 -8 -6 -5 -6 6 -1 11 2 17
5 13 3 -3 4 -12 1 -19z m2743 -31 c0 -2 -10 -12 -22 -23 l-23 -19 19 23 c18
21 26 27 26 19z m-2743 -29 c-3 -8 -6 -5 -6 6 -1 11 2 17 5 13 3 -3 4 -12 1
-19z m2693 8 c0 -2 -8 -10 -17 -17 -16 -13 -17 -12 -4 4 13 16 21 21 21 13z
m-46 -40 c-3 -8 -13 -17 -22 -21 -13 -5 -13 -2 3 15 21 24 26 25 19 6z m-62
-59 c-12 -13 -20 -26 -17 -29 15 -14 -180 -138 -217 -138 -19 0 -20 -2 -8 -11
13 -9 13 -10 -2 -6 -9 3 -22 -1 -29 -9 -6 -8 -14 -12 -17 -9 -3 3 -11 0 -18
-6 -10 -9 -3 -28 38 -92 28 -45 80 -131 116 -192 35 -60 71 -121 79 -135 14
-22 14 -23 0 -10 -8 8 -24 31 -35 50 -80 144 -226 370 -244 376 -16 5 -6 11
44 28 77 26 154 71 251 148 79 62 92 70 59 35z m38 9 c0 -2 -8 -10 -17 -17
-16 -13 -17 -12 -4 4 13 16 21 21 21 13z m-1793 -322 c-3 -3 -12 -4 -19 -1 -8
3 -5 6 6 6 11 1 17 -2 13 -5z m110 0 c-3 -3 -12 -4 -19 -1 -8 3 -5 6 6 6 11 1
17 -2 13 -5z m390 0 c-3 -3 -12 -4 -19 -1 -8 3 -5 6 6 6 11 1 17 -2 13 -5z
m193 -28 c17 -24 90 -147 90 -151 0 -2 50 -91 111 -197 119 -206 223 -389 271
-478 17 -30 36 -64 42 -75 48 -80 58 -99 48 -90 -9 9 -95 153 -177 300 -301
536 -391 689 -420 707 -27 18 -28 19 -5 12 14 -4 32 -16 40 -28z m954 -126
c85 -143 219 -370 303 -515 38 -66 102 -176 142 -245 88 -152 93 -160 87 -160
-2 0 -19 26 -37 58 -18 31 -74 127 -124 212 -50 85 -123 209 -162 275 -38 66
-120 205 -182 308 -61 104 -111 192 -111 195 0 9 10 -6 84 -128z m90 -256 c3
-8 2 -12 -4 -9 -6 3 -10 10 -10 16 0 14 7 11 14 -7z m-4434 -429 c0 -8 -4 -15
-10 -15 -5 0 -10 7 -10 15 0 8 5 15 10 15 6 0 10 -7 10 -15z m3981 -217 c11
-21 11 -22 -4 -9 -10 7 -17 17 -17 22 0 15 9 10 21 -13z m23 -44 c3 -8 2 -12
-4 -9 -6 3 -10 10 -10 16 0 14 7 11 14 -7z m949 -96 c21 -37 36 -68 33 -68 -4
0 -33 50 -88 150 -17 30 -17 32 -1 11 10 -14 35 -55 56 -93z m-909 25 c15 -25
25 -48 23 -50 -2 -2 -16 19 -31 47 -15 27 -25 50 -22 50 2 0 16 -21 30 -47z
m966 -123 c6 -11 8 -20 6 -20 -3 0 -10 9 -16 20 -6 11 -8 20 -6 20 3 0 10 -9
16 -20z m101 -175 c7 -13 3 -12 -10 5 -11 14 -21 30 -21 35 0 11 14 -7 31 -40z
m-353 -132 c-21 -2 -57 -2 -80 0 -24 2 -7 4 37 4 44 0 63 -2 43 -4z m120 0
c-16 -2 -40 -2 -55 0 -16 2 -3 4 27 4 30 0 43 -2 28 -4z m1652 -469 c0 -8 -4
-12 -10 -9 -5 3 -10 13 -10 21 0 8 5 12 10 9 6 -3 10 -13 10 -21z m-1885 -524
c3 -5 1 -10 -4 -10 -6 0 -11 5 -11 10 0 6 2 10 4 10 3 0 8 -4 11 -10z m-2569
-597 c-10 -10 -19 5 -10 18 6 11 8 11 12 0 2 -7 1 -15 -2 -18z"/>
<path d="M8126 8045 c4 -8 11 -15 16 -15 6 0 5 6 -2 15 -7 8 -14 15 -16 15 -2
0 -1 -7 2 -15z"/>
<path d="M5218 7073 c12 -2 32 -2 45 0 12 2 2 4 -23 4 -25 0 -35 -2 -22 -4z"/>
<path d="M5348 7073 c12 -2 32 -2 45 0 12 2 2 4 -23 4 -25 0 -35 -2 -22 -4z"/>
</g>
</svg>
