<?xml version="1.0" encoding="UTF-8"?>
<svg version="1.1" xmlns="http://www.w3.org/2000/svg" width="64" height="64">
<path d="M0 0 C21.12 0 42.24 0 64 0 C64 21.12 64 42.24 64 64 C42.88 64 21.76 64 0 64 C0 42.88 0 21.76 0 0 Z " fill="#030303" transform="translate(0,0)"/>
<path d="M0 0 C4.24332412 1.74725111 5.36680113 3.85940242 7.25 7.890625 C8.23720136 10.66712882 8.29151293 13.08487068 8 16 C7.34 16 6.68 16 6 16 C6 15.34 6 14.68 6 14 C1.71 14.99 -2.58 15.98 -7 17 C-6.01329463 9.64455996 -5.35305081 5.21218105 0 0 Z " fill="#D5D5D5" transform="translate(31,23)"/>
<path d="M0 0 C-0.42925781 1.04220703 -0.42925781 1.04220703 -0.8671875 2.10546875 C-2.05730592 5.1464265 -3.10263453 8.21132475 -4.125 11.3125 C-4.47820313 12.38113281 -4.83140625 13.44976562 -5.1953125 14.55078125 C-5.59363281 15.76314453 -5.59363281 15.76314453 -6 17 C-6.60328125 16.91621094 -7.2065625 16.83242188 -7.828125 16.74609375 C-8.62734375 16.64425781 -9.4265625 16.54242188 -10.25 16.4375 C-11.03890625 16.33308594 -11.8278125 16.22867188 -12.640625 16.12109375 C-15.00532874 15.99972651 -16.7511037 16.30366743 -19 17 C-18.19362392 11.13080699 -15.28128869 7.92110379 -11 4 C-7.37763101 1.62261341 -4.37066853 0 0 0 Z " fill="#D1D1D1" transform="translate(28,23)"/>
<path d="M0 0 C5.73681953 1.28785745 9.46625506 3.20645832 14 7 C14 7.99 14 8.98 14 10 C14.639375 10.226875 15.27875 10.45375 15.9375 10.6875 C18 12 18 12 18.75 14.625 C18.87375 15.800625 18.87375 15.800625 19 17 C18.31292969 16.91621094 17.62585938 16.83242188 16.91796875 16.74609375 C16.01691406 16.64425781 15.11585937 16.54242188 14.1875 16.4375 C13.29417969 16.33308594 12.40085937 16.22867188 11.48046875 16.12109375 C8.86624428 15.84341291 8.86624428 15.84341291 6 17 C5.18710947 14.72930578 4.37467262 12.45845099 3.5625 10.1875 C3.21735352 9.22360352 3.21735352 9.22360352 2.86523438 8.24023438 C1.88582149 5.50071717 0.92004638 2.76013914 0 0 Z " fill="#DEDEDE" transform="translate(36,23)"/>
<path d="M0 0 C0.99 0.33 1.98 0.66 3 1 C4.046875 3.1484375 4.046875 3.1484375 5 6 C5.37640625 7.06476562 5.7528125 8.12953125 6.140625 9.2265625 C6.50671875 10.34804688 6.8728125 11.46953125 7.25 12.625 C7.62640625 13.75164063 8.0028125 14.87828125 8.390625 16.0390625 C8.59171875 17.01617187 8.7928125 17.99328125 9 19 C8.34 19.99 7.68 20.98 7 22 C6.34 21.67 5.68 21.34 5 21 C5 20.34 5 19.68 5 19 C1.73045798 19.56371414 0.17424117 20.49962266 -2 23 C-2.2475 22.195625 -2.495 21.39125 -2.75 20.5625 C-3.1625 19.716875 -3.575 18.87125 -4 18 C-5.32 17.67 -6.64 17.34 -8 17 C-2.555 16.01 -2.555 16.01 3 15 C3 15.66 3 16.32 3 17 C3.66 17 4.32 17 5 17 C3.94513949 10.87903309 2.34782974 6.24493326 -1 1 C-0.67 0.67 -0.34 0.34 0 0 Z " fill="#303030" transform="translate(34,22)"/>
<path d="M0 0 C0.66 0 1.32 0 2 0 C2 0.66 2 1.32 2 2 C2.66 2.33 3.32 2.66 4 3 C3.67 3.66 3.34 4.32 3 5 C3.66 6.32 4.32 7.64 5 9 C1.37 9.66 -2.26 10.32 -6 11 C-4.86150546 5.3075273 -3.84374786 4.03124775 0 0 Z " fill="#D5D5D5" transform="translate(15,29)"/>
<path d="M0 0 C2.33294775 -0.04241723 4.66702567 -0.04092937 7 0 C8 1 8 1 8.0625 4.0625 C8.041875 5.031875 8.02125 6.00125 8 7 C7.34 7 6.68 7 6 7 C6 6.34 6 5.68 6 5 C5.01 5.495 5.01 5.495 4 6 C1.6670134 6.04022391 -0.66706666 6.04320247 -3 6 C-3 5.34 -3 4.68 -3 4 C-2.34 4 -1.68 4 -1 4 C-0.67 2.68 -0.34 1.36 0 0 Z " fill="#E3E3E3" transform="translate(31,32)"/>
<path d="M0 0 C0.66 0.33 1.32 0.66 2 1 C2 1.66 2 2.32 2 3 C2.66 3 3.32 3 4 3 C4 4.32 4 5.64 4 7 C3.34 7 2.68 7 2 7 C2.33 7.99 2.66 8.98 3 10 C1.35 10.33 -0.3 10.66 -2 11 C-1.34 7.37 -0.68 3.74 0 0 Z " fill="#C5C5C5" transform="translate(26,29)"/>
<path d="M0 0 C-0.28875 0.70125 -0.5775 1.4025 -0.875 2.125 C-2.02133588 5.05452503 -3.02625654 8.00921653 -4 11 C-6 8 -6 8 -6 6 C-6.66 6 -7.32 6 -8 6 C-8 4 -8 4 -6 2 C-3 0 -3 0 0 0 Z " fill="#B7B7B7" transform="translate(28,23)"/>
<path d="M0 0 C2.4375 1.1875 2.4375 1.1875 5 3 C5.8125 5.6875 5.8125 5.6875 6 8 C4.68 7.67 3.36 7.34 2 7 C2 6.34 2 5.68 2 5 C0.68 4.67 -0.64 4.34 -2 4 C-2 3.34 -2 2.68 -2 2 C-1.34 2 -0.68 2 0 2 C0 1.34 0 0.68 0 0 Z " fill="#CACACA" transform="translate(49,32)"/>
<path d="M0 0 C0.66 0 1.32 0 2 0 C2 0.66 2 1.32 2 2 C2.66 2.33 3.32 2.66 4 3 C2.37660195 4.70884005 0.70680947 6.37446717 -1 8 C-1.66 8 -2.32 8 -3 8 C-1.125 1.125 -1.125 1.125 0 0 Z " fill="#E4E4E4" transform="translate(15,29)"/>
<path d="M0 0 C3 1 3 1 4.125 3.125 C5.12243007 6.40227023 5.6002138 9.60181728 6 13 C4.0417761 11.0417761 3.10584703 9.51051799 1.875 7.0625 C1.52179687 6.37285156 1.16859375 5.68320312 0.8046875 4.97265625 C0 3 0 3 0 0 Z " fill="#1E1E1E" transform="translate(34,22)"/>
<path d="M0 0 C1.40416706 2.62111184 2.6169847 5.03163146 3 8 C2.01 9.485 2.01 9.485 1 11 C-1 10 -1 10 -1.75 8.3125 C-2.08937645 5.17326781 -1.12469641 2.91097894 0 0 Z " fill="#404040" transform="translate(40,33)"/>
<path d="M0 0 C0 0.66 0 1.32 0 2 C-1.32 1.67 -2.64 1.34 -4 1 C-4 1.66 -4 2.32 -4 3 C-6.5 4.625 -6.5 4.625 -9 6 C-9.33 4.35 -9.66 2.7 -10 1 C-6.59437148 0.22157062 -3.49234244 -0.09978121 0 0 Z " fill="#252525" transform="translate(18,38)"/>
<path d="M0 0 C2.31 0.66 4.62 1.32 7 2 C6.67 2.99 6.34 3.98 6 5 C4.68 5 3.36 5 2 5 C1.34 3.35 0.68 1.7 0 0 Z " fill="#CDCDCD" transform="translate(36,23)"/>
<path d="M0 0 C2.475 0.99 2.475 0.99 5 2 C3.35 3.65 1.7 5.3 0 7 C-0.33 6.34 -0.66 5.68 -1 5 C-0.67 4.34 -0.34 3.68 0 3 C-0.66 2.67 -1.32 2.34 -2 2 C-1.34 2 -0.68 2 0 2 C0 1.34 0 0.68 0 0 Z " fill="#282828" transform="translate(28,20)"/>
</svg>
