<svg width="200" height="200" viewBox="0 0 200 200" fill="none" xmlns="http://www.w3.org/2000/svg">
<g filter="url(#filter0_d_202_93)">
<rect x="25" y="15" width="150" height="150" rx="75" fill="#1B4D3E"/>
<path d="M100.753 114.99C97.1594 114.99 93.9394 114.407 91.0927 113.24C88.2461 112.073 85.9594 110.347 84.2327 108.06C82.5527 105.773 81.6661 103.02 81.5727 99.8H94.3127C94.4994 101.62 95.1294 103.02 96.2027 104C97.2761 104.933 98.6761 105.4 100.403 105.4C102.176 105.4 103.576 105.003 104.603 104.21C105.629 103.37 106.143 102.227 106.143 100.78C106.143 99.5667 105.723 98.5633 104.883 97.77C104.089 96.9767 103.086 96.3233 101.873 95.81C100.706 95.2967 99.0261 94.7133 96.8327 94.06C93.6594 93.08 91.0694 92.1 89.0627 91.12C87.0561 90.14 85.3294 88.6933 83.8827 86.78C82.4361 84.8667 81.7127 82.37 81.7127 79.29C81.7127 74.7167 83.3694 71.1467 86.6827 68.58C89.9961 65.9667 94.3127 64.66 99.6327 64.66C105.046 64.66 109.409 65.9667 112.723 68.58C116.036 71.1467 117.809 74.74 118.043 79.36H105.093C104.999 77.7733 104.416 76.5367 103.343 75.65C102.269 74.7167 100.893 74.25 99.2127 74.25C97.7661 74.25 96.5994 74.6467 95.7127 75.44C94.8261 76.1867 94.3827 77.2833 94.3827 78.73C94.3827 80.3167 95.1294 81.5533 96.6227 82.44C98.1161 83.3267 100.449 84.2833 103.623 85.31C106.796 86.3833 109.363 87.41 111.323 88.39C113.329 89.37 115.056 90.7933 116.503 92.66C117.949 94.5267 118.673 96.93 118.673 99.87C118.673 102.67 117.949 105.213 116.503 107.5C115.103 109.787 113.049 111.607 110.343 112.96C107.636 114.313 104.439 114.99 100.753 114.99Z" fill="#E9E1CA"/>
</g>
<defs>
<filter id="filter0_d_202_93" x="0" y="0" width="200" height="200" filterUnits="userSpaceOnUse" color-interpolation-filters="sRGB">
<feFlood flood-opacity="0" result="BackgroundImageFix"/>
<feColorMatrix in="SourceAlpha" type="matrix" values="0 0 0 0 0 0 0 0 0 0 0 0 0 0 0 0 0 0 127 0" result="hardAlpha"/>
<feOffset dy="10"/>
<feGaussianBlur stdDeviation="12.5"/>
<feComposite in2="hardAlpha" operator="out"/>
<feColorMatrix type="matrix" values="0 0 0 0 0 0 0 0 0 0 0 0 0 0 0 0 0 0 0.2 0"/>
<feBlend mode="normal" in2="BackgroundImageFix" result="effect1_dropShadow_202_93"/>
<feBlend mode="normal" in="SourceGraphic" in2="effect1_dropShadow_202_93" result="shape"/>
</filter>
</defs>
</svg>
