<?xml version="1.0" encoding="UTF-8"?>
<svg version="1.1" xmlns="http://www.w3.org/2000/svg" width="64" height="64">
<path d="M0 0 C21.12 0 42.24 0 64 0 C64 21.12 64 42.24 64 64 C42.88 64 21.76 64 0 64 C0 42.88 0 21.76 0 0 Z " fill="#040404" transform="translate(0,0)"/>
<path d="M0 0 C2.64 0 5.28 0 8 0 C8.33 2.64 8.66 5.28 9 8 C10.134375 8.24234375 11.26875 8.4846875 12.4375 8.734375 C31.0215404 12.82113361 31.0215404 12.82113361 35.68359375 17.796875 C37.29549394 20.49453585 37.3104666 22.13484626 37.1875 25.25 C37.14689453 26.58804688 37.14689453 26.58804688 37.10546875 27.953125 C37.07066406 28.62859375 37.03585938 29.3040625 37 30 C34.03 30 31.06 30 28 30 C28 27.69 28 25.38 28 23 C23.52488721 20.8144798 19.32240976 19.57972377 14.4375 18.5625 C9.3776396 17.44584115 5.8752381 16.45629344 2 13 C0.12956512 9.98545031 -0.22856882 7.77133981 -0.125 4.25 C-0.10695313 3.45078125 -0.08890625 2.6515625 -0.0703125 1.828125 C-0.04710937 1.22484375 -0.02390625 0.6215625 0 0 Z " fill="#F7F7F7" transform="translate(14,17)"/>
<path d="M0 0 C5.27415144 -0.52741514 5.27415144 -0.52741514 8 0 C10.375 2.9375 10.375 2.9375 12 6 C15.00313748 7.50156874 17.79067522 7.09281204 21.125 7.0625 C22.40632813 7.05347656 23.68765625 7.04445313 25.0078125 7.03515625 C26.48894531 7.01775391 26.48894531 7.01775391 28 7 C28.04241723 9.33294775 28.04092937 11.66702567 28 14 C25.97424846 16.02575154 22.07797783 15.2757576 19.3125 15.3125 C18.60416016 15.34150391 17.89582031 15.37050781 17.16601562 15.40039062 C11.97076033 15.46275288 9.14914936 14.36500952 5 11 C1.56260513 7.46970256 0.45579932 4.89984267 0 0 Z " fill="#F3F3F3" transform="translate(13,42)"/>
<path d="M0 0 C16.12140886 -0.81512741 16.12140886 -0.81512741 22 4 C25.10103182 7.72123818 26 9.11353925 26 14 C20.64086809 14.43927311 20.64086809 14.43927311 18 14 C16.125 11.5625 16.125 11.5625 15 9 C12.11584117 7.55792059 9.58278472 7.90605113 6.375 7.9375 C4.59222656 7.95103516 4.59222656 7.95103516 2.7734375 7.96484375 C1.40058594 7.98224609 1.40058594 7.98224609 0 8 C0 5.36 0 2.72 0 0 Z " fill="#F4F4F4" transform="translate(24,7)"/>
</svg>
