<?xml version="1.0" encoding="UTF-8"?>
<svg version="1.1" xmlns="http://www.w3.org/2000/svg" width="48" height="48">
<path d="M0 0 C15.84 0 31.68 0 48 0 C48 15.84 48 31.68 48 48 C32.16 48 16.32 48 0 48 C0 32.16 0 16.32 0 0 Z " fill="#000101" transform="translate(0,0)"/>
<path d="M0 0 C3.58305992 -0.11627503 7.16563417 -0.1872736 10.75 -0.25 C11.76578125 -0.28351562 12.7815625 -0.31703125 13.828125 -0.3515625 C21.35573934 -0.45061006 21.35573934 -0.45061006 24.703125 1.890625 C26 4 26 4 26 6 C22.22942453 6.11597653 18.45930607 6.18717396 14.6875 6.25 C13.61564453 6.28351562 12.54378906 6.31703125 11.43945312 6.3515625 C9.89741211 6.37089844 9.89741211 6.37089844 8.32421875 6.390625 C7.37635498 6.41157227 6.42849121 6.43251953 5.4519043 6.45410156 C3 6 3 6 1.16723633 4.10058594 C0 2 0 2 0 0 Z " fill="#568097" transform="translate(11,21)"/>
<path d="M0 0 C7.59 0 15.18 0 23 0 C21 4 21 4 19 6 C16.75341797 6.22705078 16.75341797 6.22705078 13.9921875 6.1953125 C12.51298828 6.18564453 12.51298828 6.18564453 11.00390625 6.17578125 C9.45509766 6.15064453 9.45509766 6.15064453 7.875 6.125 C6.83472656 6.11597656 5.79445313 6.10695313 4.72265625 6.09765625 C2.14820908 6.07403747 -0.42578212 6.04110149 -3 6 C-2 4 -1 2 0 0 Z " fill="#4D9FA0" transform="translate(14,13)"/>
<path d="M0 0 C0.9583374 0.00523682 1.9166748 0.01047363 2.90405273 0.01586914 C4.45576172 0.02070313 4.45576172 0.02070313 6.03881836 0.02563477 C7.12743164 0.03401367 8.21604492 0.04239258 9.33764648 0.05102539 C10.97636719 0.05779297 10.97636719 0.05779297 12.64819336 0.06469727 C15.35723144 0.07652713 18.06616248 0.09300996 20.77514648 0.11352539 C19.47827148 2.59399414 19.47827148 2.59399414 16.77514648 5.11352539 C13.01576259 5.76182731 9.32595705 5.58278471 5.52514648 5.42602539 C4.49389648 5.4034668 3.46264648 5.3809082 2.40014648 5.35766602 C-0.14299417 5.29879702 -2.68318464 5.21662604 -5.22485352 5.11352539 C-2.82019773 0.14390343 -2.82019773 0.14390343 0 0 Z " fill="#A273D7" transform="translate(16.224853515625,29.886474609375)"/>
<path d="M0 0 C6.6 0 13.2 0 20 0 C20 0.66 20 1.32 20 2 C20.99 2.33 21.98 2.66 23 3 C22.31373535 3.02505615 21.6274707 3.0501123 20.92041016 3.07592773 C17.82174183 3.19171427 14.72339077 3.31451885 11.625 3.4375 C10.54476563 3.47681641 9.46453125 3.51613281 8.3515625 3.55664062 C7.3203125 3.59853516 6.2890625 3.64042969 5.2265625 3.68359375 C4.27346191 3.72025146 3.32036133 3.75690918 2.33837891 3.79467773 C-0.02132349 3.85763465 -0.02132349 3.85763465 -2 5 C-2 4.01 -2 3.02 -2 2 C-1.34 2 -0.68 2 0 2 C0 1.34 0 0.68 0 0 Z " fill="#1A152D" transform="translate(14,27)"/>
<path d="M0 0 C1.79158489 -0.02696365 3.58328473 -0.04637917 5.375 -0.0625 C6.37273438 -0.07410156 7.37046875 -0.08570312 8.3984375 -0.09765625 C11 0 11 0 13 1 C13 1.66 13 2.32 13 3 C15.31 3 17.62 3 20 3 C20 3.33 20 3.66 20 4 C17.22813012 4.10787818 14.46044463 4.18723327 11.6875 4.25 C10.90181641 4.28351562 10.11613281 4.31703125 9.30664062 4.3515625 C7.13339453 4.38855392 5.14030099 4.38367634 3 4 C0.95703125 1.984375 0.95703125 1.984375 0 0 Z " fill="#8293CC" transform="translate(11,22)"/>
<path d="M0 0 C4.29 0 8.58 0 13 0 C9 5 9 5 6.52636719 5.56762695 C5.62563477 5.54144287 4.72490234 5.51525879 3.796875 5.48828125 C2.32734375 5.46411133 2.32734375 5.46411133 0.828125 5.43945312 C-0.18765625 5.39755859 -1.2034375 5.35566406 -2.25 5.3125 C-3.28125 5.28994141 -4.3125 5.26738281 -5.375 5.24414062 C-7.91814065 5.18527163 -10.45833113 5.10310065 -13 5 C-13 4.67 -13 4.34 -13 4 C-6.4 4 0.2 4 7 4 C7 3.34 7 2.68 7 2 C4.69 1.67 2.38 1.34 0 1 C0 0.67 0 0.34 0 0 Z " fill="#7F6DAD" transform="translate(24,30)"/>
<path d="M0 0 C-0.99 1.485 -0.99 1.485 -2 3 C-4.75 3.36328125 -4.75 3.36328125 -8 3.3125 C-9.60875 3.30669922 -9.60875 3.30669922 -11.25 3.30078125 C-14 3 -14 3 -16 1 C-10.63904667 -0.12862175 -5.44693314 -0.09688221 0 0 Z " fill="#37D4B9" transform="translate(37,14)"/>
<path d="M0 0 C2.64 0.66 5.28 1.32 8 2 C4.91111478 4.05925681 4.29064073 4.2390374 0.8125 4.125 C-1.0746875 4.063125 -1.0746875 4.063125 -3 4 C-2.01 2.68 -1.02 1.36 0 0 Z " fill="#B25ED7" transform="translate(14,30)"/>
</svg>
