<svg version="1.1" id="Layer_1" xmlns="http://www.w3.org/2000/svg" xmlns:xlink="http://www.w3.org/1999/xlink" x="0px" y="0px"
	 width="100%" viewBox="0 0 200 200" enable-background="new 0 0 200 200" xml:space="preserve">
<path fill="#EAAC08" opacity="1.000000" stroke="none" 
	d="
M83.000000,1.000000 
	C94.687561,1.000000 106.375122,1.000000 118.191040,1.309995 
	C118.976669,2.066787 119.585922,2.798768 120.298210,2.918668 
	C138.130615,5.920401 153.685211,13.882561 167.049652,25.713858 
	C183.917953,40.647068 195.003586,59.193478 199.101318,81.617035 
	C199.203308,82.175049 200.343842,82.543266 201.000000,83.000000 
	C201.000000,94.687561 201.000000,106.375122 200.689941,118.191116 
	C199.933167,118.976799 199.201294,119.586044 199.081406,120.298309 
	C196.079849,138.131256 188.116379,153.685776 176.284927,167.050186 
	C161.351913,183.918030 142.805374,195.003326 120.382294,199.101349 
	C119.824501,199.203293 119.456520,200.343842 119.000000,201.000000 
	C107.312439,201.000000 95.624878,201.000000 83.808876,200.689941 
	C83.023109,199.933167 82.413773,199.201294 81.701424,199.081390 
	C63.868801,196.079803 48.314602,188.116745 34.950069,176.285522 
	C18.081728,161.352448 6.996686,142.805908 2.898699,120.382668 
	C2.796736,119.824753 1.656168,119.456642 0.999999,119.000000 
	C1.000000,107.312439 1.000000,95.624878 1.310048,83.808876 
	C2.066830,83.023109 2.798693,82.413788 2.918600,81.701447 
	C5.920324,63.868919 13.882858,48.314369 25.714203,34.949955 
	C40.647392,18.081772 59.193615,6.995905 81.617348,2.898751 
	C82.175255,2.796813 82.543365,1.656190 83.000000,1.000000 
M16.720787,69.677551 
	C16.134384,71.774635 15.547981,73.871727 14.538445,76.567474 
	C14.002145,79.028809 13.465844,81.490135 12.490030,84.593925 
	C12.292929,86.976837 12.095826,89.359756 11.471776,92.479752 
	C11.361448,95.664474 11.251120,98.849205 11.068161,102.897156 
	C11.334993,105.608398 11.601825,108.319649 11.956308,111.876740 
	C12.356917,114.592278 12.757527,117.307816 13.153646,120.787590 
	C14.387468,124.530884 15.621290,128.274170 16.976578,132.761612 
	C18.606659,136.182587 20.236740,139.603561 22.017803,143.728912 
	C30.863070,160.518143 43.510796,173.354279 61.410534,181.710007 
	C65.269150,183.178482 69.127762,184.646973 73.471970,186.657516 
	C76.640297,187.382309 79.808617,188.107117 83.691040,189.225494 
	C86.137039,189.475784 88.583046,189.726059 91.680542,190.455994 
	C94.775391,190.587036 97.870247,190.718079 101.840187,190.943756 
	C104.616508,190.690155 107.392822,190.436539 110.982559,190.125000 
	C113.316475,189.739685 115.650391,189.354370 118.775047,188.980881 
	C121.195984,188.332077 123.616920,187.683289 126.769646,186.971359 
	C128.838577,186.306519 130.907516,185.641663 133.674530,184.848846 
	C140.520157,182.154541 140.595642,181.971451 137.398117,176.395309 
	C142.282837,173.294449 147.167572,170.193604 152.627151,166.745987 
	C158.789597,159.836899 164.952042,152.927795 171.612869,145.582977 
	C173.381622,142.700974 175.150375,139.818985 177.525162,137.310776 
	C180.653732,139.782913 182.954346,139.033783 184.229721,135.386627 
	C185.298492,132.330338 186.105743,129.182602 187.436096,125.452797 
	C187.948563,122.964073 188.461029,120.475342 189.300095,117.305801 
	C189.804276,114.845383 190.308441,112.384956 190.894958,109.028084 
	C190.885498,106.005585 190.876038,102.983093 190.926422,99.079071 
	C190.566742,95.705315 190.207047,92.331558 189.912186,88.148438 
	C189.214661,84.752747 188.517151,81.357048 187.812119,77.216515 
	C184.924545,70.470894 182.036957,63.725266 178.977097,56.292191 
	C177.006241,53.238358 175.166000,50.090210 173.041229,47.147511 
	C165.154053,36.224144 155.198181,27.716696 142.590744,21.338968 
	C137.735870,19.278078 132.880981,17.217186 127.261673,14.953123 
	C122.852280,14.016891 118.442879,13.080659 113.202904,12.006900 
	C109.481407,11.715467 105.759903,11.424035 101.142113,11.049282 
	C98.022606,11.329582 94.903107,11.609882 90.974831,11.934490 
	C88.637787,12.276667 86.300751,12.618844 83.183121,12.993119 
	C80.763397,13.652489 78.343666,14.311858 75.161263,15.034114 
	C72.619789,15.804560 70.021904,16.427940 67.548767,17.376547 
	C62.636818,19.260593 62.341373,20.336113 64.554359,25.516674 
	C59.357685,28.992790 54.161007,32.468906 48.397907,36.302212 
	C45.583263,38.850185 42.768623,41.398159 39.415012,44.339622 
	C34.627693,51.236698 29.840372,58.133770 24.450392,64.665901 
	C19.737715,62.329163 19.077885,62.716549 16.720787,69.677551 
z"/>
<path fill="#000000" opacity="1.000000" stroke="none" 
	d="
M82.531342,1.000000 
	C82.543365,1.656190 82.175255,2.796813 81.617348,2.898751 
	C59.193615,6.995905 40.647392,18.081772 25.714203,34.949955 
	C13.882858,48.314369 5.920324,63.868919 2.918600,81.701447 
	C2.798693,82.413788 2.066830,83.023109 1.310048,83.340218 
	C1.000000,55.739769 1.000000,28.479540 1.000000,1.000000 
	C28.020498,1.000000 55.041592,1.000000 82.531342,1.000000 
z"/>
<path fill="#000000" opacity="1.000000" stroke="none" 
	d="
M201.000000,82.531342 
	C200.343842,82.543266 199.203308,82.175049 199.101318,81.617035 
	C195.003586,59.193478 183.917953,40.647068 167.049652,25.713858 
	C153.685211,13.882561 138.130615,5.920401 120.298210,2.918668 
	C119.585922,2.798768 118.976669,2.066787 118.659698,1.309995 
	C146.260223,1.000000 173.520447,1.000000 201.000000,1.000000 
	C201.000000,28.020498 201.000000,55.041592 201.000000,82.531342 
z"/>
<path fill="#000000" opacity="1.000000" stroke="none" 
	d="
M0.999999,119.468658 
	C1.656168,119.456642 2.796736,119.824753 2.898699,120.382668 
	C6.996686,142.805908 18.081728,161.352448 34.950069,176.285522 
	C48.314602,188.116745 63.868801,196.079803 81.701424,199.081390 
	C82.413773,199.201294 83.023109,199.933167 83.340218,200.689941 
	C55.739769,201.000000 28.479540,201.000000 1.000000,201.000000 
	C1.000000,173.979507 1.000000,146.958405 0.999999,119.468658 
z"/>
<path fill="#000000" opacity="1.000000" stroke="none" 
	d="
M119.468658,201.000000 
	C119.456520,200.343842 119.824501,199.203293 120.382294,199.101349 
	C142.805374,195.003326 161.351913,183.918030 176.284927,167.050186 
	C188.116379,153.685776 196.079849,138.131256 199.081406,120.298309 
	C199.201294,119.586044 199.933167,118.976799 200.689941,118.659775 
	C201.000000,146.260223 201.000000,173.520462 201.000000,201.000000 
	C173.979507,201.000000 146.958405,201.000000 119.468658,201.000000 
z"/>
<path fill="#CA8404" opacity="1.000000" stroke="none" 
	d="
M25.053051,65.030846 
	C29.840372,58.133770 34.627693,51.236698 39.927494,44.385643 
	C50.002796,49.637955 59.565613,54.844246 69.085297,60.373810 
	C69.083046,61.128494 69.123947,61.559917 69.097610,62.435841 
	C69.364685,65.972412 69.698990,69.064484 70.223488,72.457397 
	C72.784706,73.391594 75.329544,74.904137 77.490891,74.476860 
	C82.114388,73.562828 86.539513,71.645363 91.193237,70.469772 
	C94.166054,73.277359 94.218628,76.612595 94.110497,80.426743 
	C94.082039,83.914787 94.124367,86.951767 94.101402,90.442375 
	C94.079803,94.259605 94.123489,97.623199 94.103745,101.437698 
	C94.076492,104.921669 94.112663,107.954727 94.086090,111.452621 
	C93.964172,117.299919 93.904984,122.682373 93.570465,128.237244 
	C92.479347,128.972931 91.541794,129.418793 90.867332,130.118317 
	C86.151375,135.009583 81.489807,139.953308 76.442627,144.883408 
	C73.905609,146.237823 71.658661,147.479691 69.583466,148.962006 
	C64.521591,152.577667 59.651299,156.473099 54.477371,159.915436 
	C51.913601,161.621140 48.850128,162.575790 45.689865,163.796509 
	C42.858089,160.850891 40.349186,157.979004 38.130814,154.920776 
	C45.250599,148.683472 52.156990,142.715256 58.827995,136.494568 
	C59.857731,135.534348 59.806908,133.415314 60.255806,131.832199 
	C58.670448,132.222824 56.712589,132.151138 55.560455,133.079437 
	C48.328182,138.906677 41.275322,144.956589 34.077560,150.980316 
	C33.992004,151.027771 33.799156,151.060928 33.741478,150.727936 
	C31.173065,146.245911 28.662333,142.096863 26.427746,137.773071 
	C28.025238,136.651978 29.656446,135.936111 30.580257,134.694092 
	C31.493382,133.466431 31.691853,131.707245 32.203819,130.181213 
	C30.722521,130.182922 29.183718,129.934280 27.776264,130.257538 
	C26.397453,130.574203 25.152380,131.473190 23.579990,131.883942 
	C22.151134,128.772476 20.990902,125.893654 19.886681,122.674637 
	C19.700895,121.231613 19.459099,120.128792 19.552395,118.939362 
	C31.418007,112.510223 42.948528,106.167686 54.479053,99.825150 
	C54.341290,99.354286 54.203526,98.883415 54.065762,98.412552 
	C42.097195,95.970299 30.128628,93.528046 18.117302,90.685181 
	C18.142023,89.215240 18.209503,88.145905 18.465137,86.754379 
	C19.162731,83.628723 19.672171,80.825264 20.386108,77.746361 
	C21.084656,75.659431 21.578707,73.847954 22.312874,71.791428 
	C23.386343,69.374535 24.219696,67.202690 25.053051,65.030846 
z"/>
<path fill="#A86407" opacity="1.000000" stroke="none" 
	d="
M46.012741,163.870239 
	C48.850128,162.575790 51.913601,161.621140 54.477371,159.915436 
	C59.651299,156.473099 64.521591,152.577667 69.583466,148.962006 
	C71.658661,147.479691 73.905609,146.237823 76.930313,144.917023 
	C83.134003,144.967209 88.481796,144.986923 93.885345,145.455231 
	C93.977356,148.911148 94.013618,151.918472 94.216904,155.239517 
	C97.830292,159.266479 102.597534,160.484421 107.713875,157.552322 
	C109.398888,156.586639 109.452271,152.575684 110.004463,149.906067 
	C110.334404,148.310974 110.184525,146.616638 110.702667,144.972870 
	C117.934738,145.110016 124.714256,145.254227 131.494263,145.369659 
	C144.700867,145.594543 157.907730,145.803284 171.114487,146.018707 
	C164.952042,152.927795 158.789597,159.836899 152.094788,166.607819 
	C149.536392,165.980011 147.511627,165.069946 145.484161,165.063828 
	C115.222595,164.972519 84.960625,164.980225 54.698948,165.048843 
	C52.784477,165.053177 50.871582,165.751221 48.676239,165.994202 
	C47.600590,165.197983 46.806664,164.534103 46.012741,163.870239 
z"/>
<path fill="#AE6906" opacity="1.000000" stroke="none" 
	d="
M171.363678,145.800842 
	C157.907730,145.803284 144.700867,145.594543 131.494263,145.369659 
	C124.714256,145.254227 117.934738,145.110016 110.653137,144.508942 
	C110.247482,135.622360 110.343689,127.205681 110.823135,118.828102 
	C115.501114,118.585190 119.870987,117.675438 124.071800,118.178230 
	C129.460068,118.823158 134.669556,121.421448 140.033371,121.702515 
	C147.949524,122.117310 155.668549,122.054222 161.535446,130.238144 
	C161.800491,127.539238 161.924866,126.272766 162.452087,124.915771 
	C168.930099,124.558304 175.005264,124.291359 181.050385,124.407852 
	C179.653275,128.839844 178.286209,132.888412 176.919128,136.936981 
	C175.150375,139.818985 173.381622,142.700974 171.363678,145.800842 
z"/>
<path fill="#C47E05" opacity="1.000000" stroke="none" 
	d="
M69.128433,60.050541 
	C59.565613,54.844246 50.002796,49.637955 40.196980,44.188896 
	C42.768623,41.398159 45.583263,38.850185 49.035576,36.346474 
	C51.802391,36.593803 53.931301,36.970856 56.060715,36.973690 
	C85.455208,37.012825 114.849792,36.985718 144.244263,37.029163 
	C146.570694,37.032600 149.547333,36.189384 149.756653,40.233372 
	C136.670013,47.310310 123.827942,54.154701 110.947296,60.534710 
	C110.885818,56.816544 111.350090,53.459343 110.688118,50.341236 
	C110.144325,47.779762 108.262558,45.502338 106.516708,43.054562 
	C102.339500,43.228649 98.074120,42.380035 95.035675,43.932606 
	C91.132370,45.927105 88.214378,49.849884 84.516418,52.972187 
	C79.150093,55.351788 74.139267,57.701164 69.128433,60.050541 
z"/>
<path fill="#C78104" opacity="1.000000" stroke="none" 
	d="
M150.001221,40.000824 
	C149.547333,36.189384 146.570694,37.032600 144.244263,37.029163 
	C114.849792,36.985718 85.455208,37.012825 56.060715,36.973690 
	C53.931301,36.970856 51.802391,36.593803 49.318787,36.167881 
	C54.161007,32.468906 59.357685,28.992790 65.160370,25.202562 
	C70.160286,23.243876 74.554207,21.599298 79.341293,19.941082 
	C82.160736,19.292152 84.587006,18.656864 87.447975,18.017416 
	C90.593269,17.691988 93.303848,17.370718 96.463348,17.042131 
	C99.606384,17.028681 102.300507,17.022545 105.338058,17.221823 
	C109.463158,17.924383 113.244835,18.421534 117.418091,18.958361 
	C122.542183,20.327051 127.274704,21.656065 132.279694,23.198231 
	C138.023834,26.301109 143.495483,29.190836 149.151703,32.350914 
	C151.262039,34.389893 153.187805,36.158516 154.800446,38.084091 
	C152.991959,38.827633 151.496597,39.414227 150.001221,40.000824 
z"/>
<path fill="#A46007" opacity="1.000000" stroke="none" 
	d="
M48.957958,166.126556 
	C50.871582,165.751221 52.784477,165.053177 54.698948,165.048843 
	C84.960625,164.980225 115.222595,164.972519 145.484161,165.063828 
	C147.511627,165.069946 149.536392,165.980011 151.807343,166.781189 
	C147.167572,170.193604 142.282837,173.294449 136.824493,176.724701 
	C134.151550,178.004044 132.052231,178.954010 129.583313,179.950348 
	C127.141685,180.702301 125.069641,181.407883 122.594879,182.095734 
	C119.791550,182.442902 117.390938,182.807816 114.609810,183.289062 
	C111.811905,183.681870 109.394524,183.958344 106.580528,184.213989 
	C103.786201,184.520477 101.388489,184.847809 98.579666,185.114349 
	C95.109482,184.759232 92.050385,184.464890 88.603485,184.089050 
	C85.140427,183.395721 82.065178,182.783905 78.657982,181.999252 
	C75.230247,180.850479 72.134468,179.874557 68.844994,178.610245 
	C63.781063,175.844940 58.910824,173.368027 53.897102,170.598801 
	C52.155071,168.913193 50.556515,167.519867 48.957958,166.126556 
z"/>
<path fill="#F1D895" opacity="1.000000" stroke="none" 
	d="
M48.676239,165.994202 
	C50.556515,167.519867 52.155071,168.913193 53.963516,170.940613 
	C56.437542,174.780701 58.701679,177.986679 60.965820,181.192657 
	C43.510796,173.354279 30.863070,160.518143 22.286667,143.445374 
	C23.965797,144.203476 25.354063,145.276657 26.791340,146.279572 
	C29.110296,147.897690 31.461548,149.469543 33.799156,151.060928 
	C33.799156,151.060928 33.992004,151.027771 34.107914,151.297180 
	C35.429310,152.746780 36.634796,153.926941 37.840279,155.107101 
	C40.349186,157.979004 42.858089,160.850891 45.689865,163.796509 
	C46.806664,164.534103 47.600590,165.197983 48.676239,165.994202 
z"/>
<path fill="#876B27" opacity="1.000000" stroke="none" 
	d="
M155.113571,37.927139 
	C153.187805,36.158516 151.262039,34.389893 149.083694,32.007545 
	C146.895111,28.217325 144.959091,25.040829 143.023071,21.864334 
	C155.198181,27.716696 165.154053,36.224144 173.041229,47.147511 
	C175.166000,50.090210 177.006241,53.238358 178.715607,56.567436 
	C174.938950,54.572983 171.423798,52.303288 167.632050,49.853333 
	C163.274841,45.757763 159.194199,41.842453 155.113571,37.927139 
z"/>
<path fill="#8E7025" opacity="1.000000" stroke="none" 
	d="
M167.908646,50.033592 
	C171.423798,52.303288 174.938950,54.572983 178.801727,56.911160 
	C182.036957,63.725266 184.924545,70.470894 187.493591,77.506599 
	C185.106689,76.867683 183.038315,75.938690 180.755844,74.766922 
	C179.751038,72.989014 178.960342,71.453873 178.107513,69.568466 
	C177.317749,67.474426 176.590088,65.730659 175.748871,63.665085 
	C173.059753,58.906719 170.484207,54.470154 167.908646,50.033592 
z"/>
<path fill="#8E7025" opacity="1.000000" stroke="none" 
	d="
M142.806915,21.601650 
	C144.959091,25.040829 146.895111,28.217325 148.899139,31.737192 
	C143.495483,29.190836 138.023834,26.301109 132.196411,22.864777 
	C130.569122,19.930878 129.297607,17.543589 128.026108,15.156297 
	C132.880981,17.217186 137.735870,19.278078 142.806915,21.601650 
z"/>
<path fill="#DEA40C" opacity="1.000000" stroke="none" 
	d="
M78.948120,19.954720 
	C74.554207,21.599298 70.160286,23.243876 65.406425,24.967630 
	C62.341373,20.336113 62.636818,19.260593 67.548767,17.376547 
	C70.021904,16.427940 72.619789,15.804560 75.725967,15.281178 
	C77.176491,17.003733 78.062309,18.479227 78.948120,19.954720 
z"/>
<path fill="#9A7821" opacity="1.000000" stroke="none" 
	d="
M127.643890,15.054710 
	C129.297607,17.543589 130.569122,19.930878 131.923935,22.651625 
	C127.274704,21.656065 122.542183,20.327051 117.325638,18.632061 
	C115.905571,16.225534 114.969528,14.184981 114.033478,12.144428 
	C118.442879,13.080659 122.852280,14.016891 127.643890,15.054710 
z"/>
<path fill="#F0D58D" opacity="1.000000" stroke="none" 
	d="
M61.188179,181.451324 
	C58.701679,177.986679 56.437542,174.780701 54.106995,171.232910 
	C58.910824,173.368027 63.781063,175.844940 68.911469,178.952148 
	C70.443222,181.760086 71.714798,183.937775 72.986382,186.115448 
	C69.127762,184.646973 65.269150,183.178482 61.188179,181.451324 
z"/>
<path fill="#DEA40C" opacity="1.000000" stroke="none" 
	d="
M177.222137,137.123871 
	C178.286209,132.888412 179.653275,128.839844 181.259735,124.389977 
	C181.499146,123.988670 181.918243,123.946220 182.269516,123.983116 
	C184.090118,124.705124 185.559464,125.390236 187.028793,126.075348 
	C186.105743,129.182602 185.298492,132.330338 184.229721,135.386627 
	C182.954346,139.033783 180.653732,139.782913 177.222137,137.123871 
z"/>
<path fill="#F0D58D" opacity="1.000000" stroke="none" 
	d="
M33.741478,150.727936 
	C31.461548,149.469543 29.110296,147.897690 26.791340,146.279572 
	C25.354063,145.276657 23.965797,144.203476 22.211174,143.093201 
	C20.236740,139.603561 18.606659,136.182587 17.263004,132.459610 
	C19.977066,133.443390 22.404701,134.729172 24.959738,136.280945 
	C25.441959,137.013885 25.796782,137.480850 26.151602,137.947830 
	C28.662333,142.096863 31.173065,146.245911 33.741478,150.727936 
z"/>
<path fill="#F0D180" opacity="1.000000" stroke="none" 
	d="
M24.832336,136.014969 
	C22.404701,134.729172 19.977066,133.443390 17.202271,132.087540 
	C15.621290,128.274170 14.387468,124.530884 13.497610,120.428589 
	C15.837939,121.051338 17.834303,122.033089 19.830669,123.014839 
	C20.990902,125.893654 22.151134,128.772476 23.621906,132.219788 
	C24.232407,133.863831 24.532372,134.939407 24.832336,136.014969 
z"/>
<path fill="#A7801D" opacity="1.000000" stroke="none" 
	d="
M113.618195,12.075665 
	C114.969528,14.184981 115.905571,16.225534 116.934067,18.592384 
	C113.244835,18.421534 109.463158,17.924383 105.262863,16.891581 
	C103.908981,14.614818 102.973694,12.873709 102.038406,11.132601 
	C105.759903,11.424035 109.481407,11.715467 113.618195,12.075665 
z"/>
<path fill="#A7801D" opacity="1.000000" stroke="none" 
	d="
M189.847351,88.957802 
	C190.207047,92.331558 190.566742,95.705315 190.577728,99.444595 
	C188.480087,98.873634 186.731125,97.937157 184.776855,96.662666 
	C184.037308,93.210930 183.503082,90.097206 182.992950,86.729034 
	C183.041183,86.305908 183.065353,86.137238 183.438385,86.001923 
	C185.807312,87.009453 187.827332,87.983627 189.847351,88.957802 
z"/>
<path fill="#9A7821" opacity="1.000000" stroke="none" 
	d="
M189.879776,88.553116 
	C187.827332,87.983627 185.807312,87.009453 183.409912,85.599823 
	C182.345016,81.779472 181.657486,78.394577 180.969971,75.009689 
	C183.038315,75.938690 185.106689,76.867683 187.497345,77.879021 
	C188.517151,81.357048 189.214661,84.752747 189.879776,88.553116 
z"/>
<path fill="#F0D180" opacity="1.000000" stroke="none" 
	d="
M73.229172,186.386475 
	C71.714798,183.937775 70.443222,181.760086 69.105164,179.240509 
	C72.134468,179.874557 75.230247,180.850479 78.746140,182.315887 
	C80.436485,184.814209 81.706711,186.823059 82.976944,188.831909 
	C79.808617,188.107117 76.640297,187.382309 73.229172,186.386475 
z"/>
<path fill="#EEC864" opacity="1.000000" stroke="none" 
	d="
M88.991295,184.170547 
	C92.050385,184.464890 95.109482,184.759232 98.658081,185.441010 
	C99.753426,187.501999 100.359261,189.175568 100.965096,190.849121 
	C97.870247,190.718079 94.775391,190.587036 91.498199,189.975586 
	C90.541008,187.720306 89.766151,185.945435 88.991295,184.170547 
z"/>
<path fill="#EFCD72" opacity="1.000000" stroke="none" 
	d="
M88.603485,184.089050 
	C89.766151,185.945435 90.541008,187.720306 91.172455,189.735779 
	C88.583046,189.726059 86.137039,189.475784 83.333992,189.028702 
	C81.706711,186.823059 80.436485,184.814209 79.078094,182.488724 
	C82.065178,182.783905 85.140427,183.395721 88.603485,184.089050 
z"/>
<path fill="#B2871A" opacity="1.000000" stroke="none" 
	d="
M184.982178,97.000671 
	C186.731125,97.937157 188.480087,98.873634 190.547821,99.885353 
	C190.876038,102.983093 190.885498,106.005585 190.541763,109.406799 
	C188.148804,108.518204 186.109024,107.250877 184.044373,105.989983 
	C184.019516,105.996414 183.972458,106.012489 184.133621,105.641548 
	C184.523926,102.513962 184.753052,99.757317 184.982178,97.000671 
z"/>
<path fill="#EDC048" opacity="1.000000" stroke="none" 
	d="
M18.276981,87.076576 
	C18.209503,88.145905 18.142023,89.215240 18.071693,91.056190 
	C17.738588,93.222908 17.408335,94.618004 16.772793,95.868881 
	C14.944578,94.397331 13.421652,93.070000 11.898726,91.742668 
	C12.095826,89.359756 12.292929,86.976837 13.043967,84.358665 
	C15.157596,85.107796 16.717289,86.092186 18.276981,87.076576 
z"/>
<path fill="#EEC864" opacity="1.000000" stroke="none" 
	d="
M11.868658,111.030884 
	C11.601825,108.319649 11.334993,105.608398 11.429574,102.544212 
	C13.483685,102.798279 15.176383,103.405281 16.952873,104.411018 
	C17.300442,107.544601 17.564217,110.279442 17.478203,112.980911 
	C15.375161,112.308647 13.621910,111.669769 11.868658,111.030884 
z"/>
<path fill="#EFCD72" opacity="1.000000" stroke="none" 
	d="
M11.912483,111.453812 
	C13.621910,111.669769 15.375161,112.308647 17.558945,113.359848 
	C18.398754,115.523430 18.808029,117.274704 19.217304,119.025970 
	C19.459099,120.128792 19.700895,121.231613 19.886681,122.674637 
	C17.834303,122.033089 15.837939,121.051338 13.499856,120.046471 
	C12.757527,117.307816 12.356917,114.592278 11.912483,111.453812 
z"/>
<path fill="#B2871A" opacity="1.000000" stroke="none" 
	d="
M101.590256,11.090941 
	C102.973694,12.873709 103.908981,14.614818 104.919449,16.686169 
	C102.300507,17.022545 99.606384,17.028681 96.293396,16.754898 
	C94.377563,14.946716 93.080582,13.418450 91.783600,11.890184 
	C94.903107,11.609882 98.022606,11.329582 101.590256,11.090941 
z"/>
<path fill="#BD8F16" opacity="1.000000" stroke="none" 
	d="
M184.069244,105.983551 
	C186.109024,107.250877 188.148804,108.518204 190.500580,109.855026 
	C190.308441,112.384956 189.804276,114.845383 188.815063,117.572937 
	C186.855392,116.878319 185.380737,115.916550 183.927765,114.509583 
	C183.989365,111.370773 184.029312,108.677170 184.069244,105.983551 
z"/>
<path fill="#BD8F16" opacity="1.000000" stroke="none" 
	d="
M91.379211,11.912338 
	C93.080582,13.418450 94.377563,14.946716 95.844490,16.762215 
	C93.303848,17.370718 90.593269,17.691988 87.371674,17.693790 
	C85.895012,15.903220 84.929359,14.432120 83.963707,12.961020 
	C86.300751,12.618844 88.637787,12.276667 91.379211,11.912338 
z"/>
<path fill="#ECBB38" opacity="1.000000" stroke="none" 
	d="
M18.465136,86.754379 
	C16.717289,86.092186 15.157596,85.107796 13.263723,84.037437 
	C13.465844,81.490135 14.002145,79.028809 15.090032,76.354507 
	C17.154949,76.768303 18.668282,77.395058 20.181610,78.021812 
	C19.672171,80.825264 19.162731,83.628723 18.465136,86.754379 
z"/>
<path fill="#EDC048" opacity="1.000000" stroke="none" 
	d="
M106.977135,184.234818 
	C109.394524,183.958344 111.811905,183.681870 114.698273,183.605011 
	C116.106277,185.526108 117.045296,187.247574 117.984314,188.969055 
	C115.650391,189.354370 113.316475,189.739685 110.375610,189.858749 
	C108.838158,187.806610 107.907646,186.020706 106.977135,184.234818 
z"/>
<path fill="#EEC559" opacity="1.000000" stroke="none" 
	d="
M16.869080,104.012283 
	C15.176383,103.405281 13.483685,102.798279 11.465889,102.112595 
	C11.251120,98.849205 11.361448,95.664474 11.685251,92.111206 
	C13.421652,93.070000 14.944578,94.397331 16.759834,96.312653 
	C16.991138,99.271194 16.930109,101.641739 16.869080,104.012283 
z"/>
<path fill="#EEC559" opacity="1.000000" stroke="none" 
	d="
M106.580528,184.213989 
	C107.907646,186.020706 108.838158,187.806610 109.968903,189.887726 
	C107.392822,190.436539 104.616508,190.690155 101.402641,190.896439 
	C100.359261,189.175568 99.753426,187.501999 99.069183,185.501801 
	C101.388489,184.847809 103.786201,184.520477 106.580528,184.213989 
z"/>
<path fill="#C89613" opacity="1.000000" stroke="none" 
	d="
M83.573410,12.977070 
	C84.929359,14.432120 85.895012,15.903220 86.936966,17.697948 
	C84.587006,18.656864 82.160736,19.292152 79.341293,19.941080 
	C78.062309,18.479227 77.176491,17.003733 76.107307,15.249734 
	C78.343666,14.311858 80.763397,13.652489 83.573410,12.977070 
z"/>
<path fill="#C89613" opacity="1.000000" stroke="none" 
	d="
M183.906082,114.954788 
	C185.380737,115.916550 186.855392,116.878319 188.651764,117.913345 
	C188.461029,120.475342 187.948563,122.964073 187.232452,125.764069 
	C185.559464,125.390236 184.090118,124.705124 182.294815,123.586807 
	C182.614594,120.420670 183.260345,117.687729 183.906082,114.954788 
z"/>
<path fill="#ECBB38" opacity="1.000000" stroke="none" 
	d="
M118.379684,188.974976 
	C117.045296,187.247574 116.106277,185.526108 115.078796,183.488678 
	C117.390938,182.807816 119.791550,182.442902 122.674316,182.407349 
	C124.116943,184.169312 125.077400,185.601898 126.037865,187.034500 
	C123.616920,187.683289 121.195984,188.332077 118.379684,188.974976 
z"/>
<path fill="#EBB118" opacity="1.000000" stroke="none" 
	d="
M129.952911,179.903961 
	C132.052231,178.954010 134.151550,178.004044 136.599792,176.981247 
	C140.595642,181.971451 140.520157,182.154541 133.256287,184.591095 
	C131.876328,182.856873 130.914627,181.380417 129.952911,179.903961 
z"/>
<path fill="#EBB628" opacity="1.000000" stroke="none" 
	d="
M129.583313,179.950348 
	C130.914627,181.380417 131.876328,182.856873 132.907242,184.655060 
	C130.907516,185.641663 128.838577,186.306519 126.403755,187.002930 
	C125.077400,185.601898 124.116943,184.169312 123.077042,182.425095 
	C125.069641,181.407883 127.141685,180.702301 129.583313,179.950348 
z"/>
<path fill="#EBB118" opacity="1.000000" stroke="none" 
	d="
M24.751720,64.848373 
	C24.219696,67.202690 23.386343,69.374535 22.027992,71.615860 
	C20.010380,70.798645 18.517761,69.911949 17.025143,69.025253 
	C19.077885,62.716549 19.737715,62.329163 24.751720,64.848373 
z"/>
<path fill="#EBB628" opacity="1.000000" stroke="none" 
	d="
M16.872965,69.351402 
	C18.517761,69.911949 20.010380,70.798645 21.787878,71.860909 
	C21.578707,73.847954 21.084656,75.659431 20.386108,77.746361 
	C18.668282,77.395058 17.154949,76.768303 15.301598,76.055176 
	C15.547981,73.871727 16.134384,71.774635 16.872965,69.351402 
z"/>
<path fill="#B57006" opacity="1.000000" stroke="none" 
	d="
M16.952873,104.411018 
	C16.930109,101.641739 16.991138,99.271194 17.065125,96.456879 
	C17.408335,94.618004 17.738588,93.222908 18.114450,91.456802 
	C30.128628,93.528046 42.097195,95.970299 54.065762,98.412552 
	C54.203526,98.883415 54.341290,99.354286 54.479053,99.825150 
	C42.948528,106.167686 31.418007,112.510223 19.552393,118.939362 
	C18.808029,117.274704 18.398754,115.523430 17.908735,113.393227 
	C17.564217,110.279442 17.300442,107.544601 16.952873,104.411018 
z"/>
<path fill="#FEF3B2" opacity="1.000000" stroke="none" 
	d="
M69.085297,60.373810 
	C74.139267,57.701164 79.150093,55.351788 84.910019,53.134171 
	C92.717026,53.508808 99.774956,53.751682 106.905106,54.439987 
	C106.929092,57.588402 106.880836,60.291389 106.381729,62.995480 
	C102.009628,62.995384 98.088387,62.994186 94.024857,62.709152 
	C92.960571,62.631573 92.038574,62.837841 90.723328,62.884682 
	C83.275009,62.480614 76.219925,62.235977 69.164841,61.991337 
	C69.123947,61.559917 69.083046,61.128494 69.085297,60.373810 
z"/>
<path fill="#FDE269" opacity="1.000000" stroke="none" 
	d="
M93.845802,128.064835 
	C93.904984,122.682373 93.964172,117.299919 94.537384,111.458458 
	C98.981865,111.001282 102.912308,111.003105 106.912224,111.467758 
	C106.932220,117.951431 106.882751,123.972290 106.383850,129.994690 
	C102.011749,129.993973 98.089073,129.991730 94.103775,129.670044 
	C93.976036,128.922028 93.910919,128.493439 93.845802,128.064835 
z"/>
<path fill="#FEF1A8" opacity="1.000000" stroke="none" 
	d="
M94.167145,62.992992 
	C98.088387,62.994186 102.009628,62.995384 106.453423,63.458633 
	C106.925354,69.273407 106.874725,74.626137 106.373688,79.980156 
	C102.009277,79.979530 98.095284,79.977600 94.181282,79.975677 
	C94.218628,76.612595 94.166054,73.277359 91.521507,70.299042 
	C92.524010,67.529289 93.345573,65.261139 94.167145,62.992992 
z"/>
<path fill="#AE6906" opacity="1.000000" stroke="none" 
	d="
M93.570465,128.237244 
	C93.910919,128.493439 93.976036,128.922028 94.041061,130.124893 
	C94.084175,134.263046 94.127380,137.626938 94.109161,141.389771 
	C93.975029,142.861374 93.902306,143.934006 93.829590,145.006653 
	C88.481796,144.986923 83.134003,144.967209 77.298523,144.913849 
	C81.489807,139.953308 86.151375,135.009583 90.867332,130.118317 
	C91.541794,129.418793 92.479347,128.972931 93.570465,128.237244 
z"/>
<path fill="#AE6906" opacity="1.000000" stroke="none" 
	d="
M38.130814,154.920776 
	C36.634796,153.926941 35.429310,152.746780 34.193470,151.249725 
	C41.275322,144.956589 48.328182,138.906677 55.560455,133.079437 
	C56.712589,132.151138 58.670448,132.222824 60.255806,131.832199 
	C59.806908,133.415314 59.857731,135.534348 58.827995,136.494568 
	C52.156990,142.715256 45.250599,148.683472 38.130814,154.920776 
z"/>
<path fill="#FEF1A8" opacity="1.000000" stroke="none" 
	d="
M69.097610,62.435841 
	C76.219925,62.235977 83.275009,62.480614 90.557358,63.195084 
	C84.477615,67.986382 77.895561,71.635719 70.033295,72.156555 
	C69.698990,69.064484 69.364685,65.972412 69.097610,62.435841 
z"/>
<path fill="#FDE989" opacity="1.000000" stroke="none" 
	d="
M94.167168,100.986794 
	C94.123489,97.623199 94.079803,94.259605 94.551720,90.444839 
	C98.989426,89.993568 102.911522,89.993469 106.903915,90.447227 
	C106.927353,94.265213 106.880508,97.629333 106.382416,100.994888 
	C102.009834,100.993134 98.088501,100.989960 94.167168,100.986794 
z"/>
<path fill="#FEEC95" opacity="1.000000" stroke="none" 
	d="
M106.833626,89.993370 
	C102.911522,89.993469 98.989426,89.993568 94.617004,89.991203 
	C94.124367,86.951767 94.082039,83.914787 94.110497,80.426743 
	C98.095284,79.977600 102.009277,79.979530 106.447807,80.430977 
	C106.926094,83.918121 106.879860,86.955750 106.833626,89.993370 
z"/>
<path fill="#FDE77D" opacity="1.000000" stroke="none" 
	d="
M94.103745,101.437698 
	C98.088501,100.989960 102.009834,100.993134 106.451782,101.444931 
	C106.929192,104.930679 106.885971,107.967804 106.842758,111.004936 
	C102.912308,111.003105 98.981865,111.001282 94.600121,110.993622 
	C94.112663,107.954727 94.076492,104.921669 94.103745,101.437698 
z"/>
<path fill="#85490E" opacity="1.000000" stroke="none" 
	d="
M70.223488,72.457397 
	C77.895561,71.635719 84.477615,67.986382 90.950600,63.354511 
	C92.038574,62.837841 92.960571,62.631573 94.024857,62.709152 
	C93.345573,65.261139 92.524010,67.529289 91.374161,69.968170 
	C86.539513,71.645363 82.114388,73.562828 77.490891,74.476860 
	C75.329544,74.904137 72.784706,73.391594 70.223488,72.457397 
z"/>
<path fill="#AE6906" opacity="1.000000" stroke="none" 
	d="
M24.959736,136.280945 
	C24.532372,134.939407 24.232407,133.863831 23.890528,132.452438 
	C25.152380,131.473190 26.397453,130.574203 27.776264,130.257538 
	C29.183718,129.934280 30.722521,130.182922 32.203819,130.181213 
	C31.691853,131.707245 31.493382,133.466431 30.580257,134.694092 
	C29.656446,135.936111 28.025238,136.651978 26.427748,137.773071 
	C25.796782,137.480850 25.441959,137.013885 24.959736,136.280945 
z"/>
<path fill="#85490E" opacity="1.000000" stroke="none" 
	d="
M106.912224,111.467758 
	C106.885971,107.967804 106.929192,104.930679 106.903030,101.443504 
	C106.880508,97.629333 106.927353,94.265213 106.903915,90.447227 
	C106.879860,86.955750 106.926094,83.918121 106.898224,80.429680 
	C106.874725,74.626137 106.925354,69.273407 106.904282,63.457531 
	C106.880836,60.291389 106.929092,57.588402 106.973068,53.987793 
	C106.970467,49.759785 106.972145,46.429401 106.973824,43.099014 
	C108.262558,45.502338 110.144325,47.779762 110.688118,50.341236 
	C111.350090,53.459343 110.885818,56.816544 110.900917,60.984634 
	C110.780037,67.539879 110.666954,73.180817 110.436066,79.196884 
	C110.499405,81.032791 110.680557,82.493576 110.836700,84.425377 
	C110.687752,96.193932 110.563828,107.491470 110.439896,118.789001 
	C110.343689,127.205681 110.247482,135.622360 110.200806,144.502975 
	C110.184525,146.616638 110.334404,148.310974 110.004463,149.906067 
	C109.452271,152.575684 109.398888,156.586639 107.713875,157.552322 
	C102.597534,160.484421 97.830292,159.266479 94.676498,155.264587 
	C98.858673,154.975922 102.748268,154.975922 106.832710,154.975922 
	C106.832710,149.844818 106.832710,145.419006 106.894287,140.539276 
	C106.915009,136.721283 106.874146,133.357208 106.833282,129.993149 
	C106.882751,123.972290 106.932220,117.951431 106.912224,111.467758 
z"/>
<path fill="#FDDC50" opacity="1.000000" stroke="none" 
	d="
M106.832710,140.993210 
	C106.832710,145.419006 106.832710,149.844818 106.832710,154.975922 
	C102.748268,154.975922 98.858673,154.975922 94.509476,154.950867 
	C94.013618,151.918472 93.977356,148.911148 93.885345,145.455231 
	C93.902306,143.934006 93.975029,142.861374 94.557617,141.391907 
	C98.989227,140.994461 102.910973,140.993835 106.832710,140.993210 
z"/>
<path fill="#CA8404" opacity="1.000000" stroke="none" 
	d="
M110.823135,118.828102 
	C110.563828,107.491470 110.687752,96.193932 111.165985,84.577408 
	C125.338371,91.839836 139.156464,99.421257 153.052063,107.366104 
	C154.476196,110.051605 155.927475,112.320335 157.144333,114.708534 
	C158.869843,118.094978 160.422638,121.569435 162.049240,125.006287 
	C161.924866,126.272766 161.800491,127.539238 161.535446,130.238144 
	C155.668549,122.054222 147.949524,122.117310 140.033371,121.702515 
	C134.669556,121.421448 129.460068,118.823158 124.071800,118.178230 
	C119.870987,117.675438 115.501114,118.585190 110.823135,118.828102 
z"/>
<path fill="#B26E06" opacity="1.000000" stroke="none" 
	d="
M162.452087,124.915771 
	C160.422638,121.569435 158.869843,118.094978 157.144333,114.708534 
	C155.927475,112.320335 154.476196,110.051605 153.492752,107.364655 
	C160.623199,106.667480 167.388489,106.284012 174.158539,106.024994 
	C177.425232,105.900017 180.700867,106.009285 183.972458,106.012482 
	C183.972458,106.012489 184.019516,105.996414 184.044373,105.989990 
	C184.029312,108.677170 183.989365,111.370773 183.927765,114.509583 
	C183.260345,117.687729 182.614594,120.420670 181.943542,123.549911 
	C181.918243,123.946220 181.499146,123.988670 181.289795,124.006546 
	C175.005264,124.291359 168.930099,124.558304 162.452087,124.915771 
z"/>
<path fill="#CA8404" opacity="1.000000" stroke="none" 
	d="
M110.553879,78.821754 
	C110.666954,73.180817 110.780037,67.539879 110.939499,61.449020 
	C123.827942,54.154701 136.670013,47.310310 149.756653,40.233368 
	C151.496597,39.414227 152.991959,38.827633 154.800446,38.084091 
	C159.194199,41.842453 163.274841,45.757763 167.632050,49.853333 
	C170.484207,54.470154 173.059753,58.906719 175.352478,63.678673 
	C173.105164,64.366035 170.948013,64.335068 169.239090,65.194931 
	C167.944794,65.846169 167.222168,67.633583 166.245148,68.915390 
	C167.582947,69.591469 168.910873,70.804565 170.260605,70.829338 
	C172.890488,70.877609 175.532608,70.260361 178.169647,69.918732 
	C178.960342,71.453873 179.751038,72.989014 180.755859,74.766922 
	C181.657486,78.394577 182.345016,81.779472 183.061035,85.566467 
	C183.065353,86.137238 183.041183,86.305908 182.593506,86.767700 
	C171.594711,89.043655 160.918365,90.612457 150.480927,93.160004 
	C143.907883,94.764343 138.750107,93.148674 133.172165,89.952034 
	C125.896172,85.782272 118.116707,82.491020 110.553879,78.821754 
z"/>
<path fill="#FEF5BC" opacity="1.000000" stroke="none" 
	d="
M106.516708,43.054562 
	C106.972145,46.429401 106.970467,49.759785 106.900833,53.542366 
	C99.774956,53.751682 92.717026,53.508808 85.265503,53.103951 
	C88.214378,49.849884 91.132370,45.927105 95.035675,43.932606 
	C98.074120,42.380035 102.339500,43.228649 106.516708,43.054562 
z"/>
<path fill="#C47E05" opacity="1.000000" stroke="none" 
	d="
M178.107513,69.568466 
	C175.532608,70.260361 172.890488,70.877609 170.260605,70.829338 
	C168.910873,70.804565 167.582947,69.591469 166.245148,68.915390 
	C167.222168,67.633583 167.944794,65.846169 169.239090,65.194931 
	C170.948013,64.335068 173.105164,64.366035 175.466034,64.000481 
	C176.590088,65.730659 177.317749,67.474426 178.107513,69.568466 
z"/>
<path fill="#B67106" opacity="1.000000" stroke="none" 
	d="
M110.436066,79.196884 
	C118.116707,82.491020 125.896172,85.782272 133.172165,89.952034 
	C138.750107,93.148674 143.907883,94.764343 150.480927,93.160004 
	C160.918365,90.612457 171.594711,89.043655 182.569427,87.022148 
	C183.503082,90.097206 184.037308,93.210930 184.776855,96.662659 
	C184.753052,99.757317 184.523926,102.513962 184.133621,105.641541 
	C180.700867,106.009285 177.425232,105.900017 174.158539,106.024994 
	C167.388489,106.284012 160.623199,106.667480 153.415253,107.001228 
	C139.156464,99.421257 125.338371,91.839836 111.190994,84.106384 
	C110.680557,82.493576 110.499405,81.032791 110.436066,79.196884 
z"/>
<path fill="#FDDF5E" opacity="1.000000" stroke="none" 
	d="
M106.894287,140.539276 
	C102.910973,140.993835 98.989227,140.994461 94.619034,140.992950 
	C94.127380,137.626938 94.084175,134.263046 94.103683,130.444305 
	C98.089073,129.991730 102.011749,129.993973 106.383850,129.994690 
	C106.874146,133.357208 106.915009,136.721283 106.894287,140.539276 
z"/>
</svg>