<?xml version="1.0" encoding="UTF-8"?>
<svg version="1.1" xmlns="http://www.w3.org/2000/svg" width="200" height="200">
<path d="M0 0 C1.7464396 1.50096639 3.47649166 3.02126613 5.1875 4.5625 C5.96738281 5.25988281 6.74726563 5.95726563 7.55078125 6.67578125 C21.19412879 19.56509231 30.75923532 37.40661482 35.1875 55.5625 C35.52394531 56.89861328 35.52394531 56.89861328 35.8671875 58.26171875 C41.15729421 83.66147767 35.7418869 110.35881939 22.3203125 132.3125 C18.97569322 137.40906271 15.26448627 142.03641369 11.1875 146.5625 C10.49011719 147.34238281 9.79273438 148.12226563 9.07421875 148.92578125 C-3.81509231 162.56912879 -21.65661482 172.13423532 -39.8125 176.5625 C-41.14861328 176.89894531 -41.14861328 176.89894531 -42.51171875 177.2421875 C-67.91147767 182.53229421 -94.60881939 177.1168869 -116.5625 163.6953125 C-121.65906271 160.35069322 -126.28641369 156.63948627 -130.8125 152.5625 C-131.98232422 151.51642578 -131.98232422 151.51642578 -133.17578125 150.44921875 C-146.81912879 137.55990769 -156.38423532 119.71838518 -160.8125 101.5625 C-161.03679687 100.67175781 -161.26109375 99.78101562 -161.4921875 98.86328125 C-166.78229421 73.46352233 -161.3668869 46.76618061 -147.9453125 24.8125 C-144.60069322 19.71593729 -140.88948627 15.08858631 -136.8125 10.5625 C-136.11511719 9.78261719 -135.41773438 9.00273437 -134.69921875 8.19921875 C-121.80990769 -5.44412879 -103.96838518 -15.00923532 -85.8125 -19.4375 C-84.92175781 -19.66179688 -84.03101562 -19.88609375 -83.11328125 -20.1171875 C-54.05028816 -26.17025025 -23.07592188 -18.39663772 0 0 Z " fill="#171412" transform="translate(162.8125,21.4375)"/>
<path d="M0 0 C8.3701787 1.39293963 16.73240824 2.82664589 25.08740234 4.30761719 C27.54777614 4.74301093 30.00893778 5.17399884 32.47119141 5.59863281 C44.81663993 7.7558728 55.8315563 10.27888865 66.69287109 16.64990234 C69.51096437 18.29900878 72.35935404 19.89082468 75.20703125 21.48828125 C77.41046331 22.73935766 79.6122875 23.99327011 81.8125 25.25 C82.87017578 25.85255615 83.92785156 26.4551123 85.01757812 27.07592773 C86.50354492 27.94326538 86.50354492 27.94326538 88.01953125 28.828125 C88.90745361 29.3427832 89.79537598 29.85744141 90.71020508 30.38769531 C93.09686696 32.06820657 94.56227737 33.4605324 96 36 C95.67 36.99 95.34 37.98 95 39 C93.515 38.505 93.515 38.505 92 38 C86.03987415 36.39749357 86.03987415 36.39749357 80 37 C76.36552992 39.34517794 73.21880795 42.12250121 70 45 C65.42594719 48.96785304 65.42594719 48.96785304 61.6875 49.25 C60.800625 49.1675 59.91375 49.085 59 49 C61.2135536 46.17581093 63.43438995 43.50679951 66 41 C65.18595703 41.72316406 65.18595703 41.72316406 64.35546875 42.4609375 C63.64003906 43.09257813 62.92460938 43.72421875 62.1875 44.375 C61.47980469 45.00148437 60.77210937 45.62796875 60.04296875 46.2734375 C55.8148654 49.84671031 53.47455505 50.20658698 48 50 C48 49.34 48 48.68 48 48 C49.782129 46.55925285 51.62660276 45.19489351 53.5 43.875 C54.5209375 43.15054688 55.541875 42.42609375 56.59375 41.6796875 C57.3878125 41.12539062 58.181875 40.57109375 59 40 C58.26394531 40.47050781 57.52789062 40.94101563 56.76953125 41.42578125 C55.79371094 42.04839844 54.81789062 42.67101562 53.8125 43.3125 C52.36810547 44.23482422 52.36810547 44.23482422 50.89453125 45.17578125 C49.93933594 45.77777344 48.98414063 46.37976563 48 47 C47.13375 47.5671875 46.2675 48.134375 45.375 48.71875 C42.17566906 50.44470485 39.57365402 50.21021494 36 50 C35.67 49.34 35.34 48.68 35 48 C35.70084717 47.59160889 36.40169434 47.18321777 37.1237793 46.76245117 C40.31187828 44.90446349 43.49969186 43.04598665 46.6875 41.1875 C47.79029297 40.54490234 48.89308594 39.90230469 50.02929688 39.24023438 C51.6293457 38.30727539 51.6293457 38.30727539 53.26171875 37.35546875 C54.24100342 36.78465576 55.22028809 36.21384277 56.22924805 35.62573242 C58.82952741 34.10002441 61.41773085 32.55595627 64 31 C58.12471701 28.84445786 52.12905559 27.77405349 45.98828125 26.67578125 C40.77353383 25.65604527 37.1143117 24.42425309 33 21 C32.505 19.515 32.505 19.515 32 18 C39.26 19.32 46.52 20.64 54 22 C54 21.34 54 20.68 54 20 C53.44957031 19.97421875 52.89914063 19.9484375 52.33203125 19.921875 C45.52988896 19.45785289 38.8360127 18.41753472 32.125 17.25 C31.20952393 17.10530273 30.29404785 16.96060547 29.35083008 16.81152344 C23.63067379 15.770252 20.64001094 14.59951174 17 10 C23.27178298 10.51697994 29.38237008 11.36499228 35.5546875 12.59765625 C38.24478981 13.10823585 38.24478981 13.10823585 42 13 C41.03175293 12.83395264 40.06350586 12.66790527 39.06591797 12.49682617 C35.45239845 11.87454226 31.84116415 11.23976733 28.23046875 10.60131836 C26.67148851 10.32743035 25.11191934 10.05687175 23.55175781 9.78979492 C21.30107789 9.40390248 19.05283233 9.00583423 16.8046875 8.60546875 C15.76838699 8.43183052 15.76838699 8.43183052 14.71115112 8.25468445 C9.35762223 7.28248478 4.74894132 6.04043154 1.125 1.8125 C0.75375 1.214375 0.3825 0.61625 0 0 Z " fill="#E8AA08" transform="translate(25,78)"/>
<path d="M0 0 C-4.48865965 6.02186475 -10.06698685 6.47929631 -17.1875 7.6875 C-18.27353516 7.88666016 -19.35957031 8.08582031 -20.47851562 8.29101562 C-22.62155698 8.68358476 -24.76592011 9.06901541 -26.91162109 9.44677734 C-31.2881522 10.23074726 -35.64461583 11.10688609 -40 12 C-34.06506478 11.41623588 -28.31712953 10.53434475 -22.48046875 9.3046875 C-19.97837403 8.99734358 -18.37275263 9.21461335 -16 10 C-21.55826091 14.57969385 -27.53589401 15.46989266 -34.5 16.75 C-36.17255859 17.08064453 -36.17255859 17.08064453 -37.87890625 17.41796875 C-43.01296269 18.40316909 -47.75648915 19.11855232 -53 19 C-53 19.66 -53 20.32 -53 21 C-52.40985107 20.87359131 -51.81970215 20.74718262 -51.21166992 20.61694336 C-48.53858294 20.04908005 -45.86314723 19.49316903 -43.1875 18.9375 C-42.25873047 18.73833984 -41.32996094 18.53917969 -40.37304688 18.33398438 C-39.48037109 18.15029297 -38.58769531 17.96660156 -37.66796875 17.77734375 C-36.84578857 17.60452881 -36.0236084 17.43171387 -35.17651367 17.25366211 C-33 17 -33 17 -30 18 C-35.19540337 23.42312046 -39.80209783 25.22062187 -47.125 26.4375 C-48.00542969 26.60958984 -48.88585937 26.78167969 -49.79296875 26.95898438 C-56.9565005 28.27175829 -61.04174628 27.86717233 -67.3125 23.9375 C-68.19550781 23.38964844 -69.07851562 22.84179688 -69.98828125 22.27734375 C-70.65214844 21.85582031 -71.31601563 21.43429688 -72 21 C-59.16719249 10.33244141 -45.71542712 7.03389698 -29.6159668 4.0690918 C-26.14437848 3.42955616 -22.68071915 2.75590239 -19.21679688 2.07617188 C-17.0133942 1.65170307 -14.80963006 1.22910537 -12.60546875 0.80859375 C-11.56915817 0.60979111 -10.5328476 0.41098846 -9.46513367 0.2061615 C-8.51266251 0.03169998 -7.56019135 -0.14276154 -6.57885742 -0.32250977 C-5.74029709 -0.47824966 -4.90173676 -0.63398956 -4.0377655 -0.79444885 C-2 -1 -2 -1 0 0 Z " fill="#E8AA08" transform="translate(175,79)"/>
</svg>
