<?xml version="1.0" encoding="UTF-8"?>
<svg version="1.1" xmlns="http://www.w3.org/2000/svg" width="1081" height="1081">
<path d="M0 0 C0.78624756 0.63180176 0.78624756 0.63180176 1.58837891 1.27636719 C16.68361535 13.48916482 31.39380712 27.39561075 43 43 C43.84870975 44.10826333 44.69768635 45.21632233 45.546875 46.32421875 C90.26398438 105.34281794 108.3539205 178.39881476 98.50048828 251.6015625 C90.89863929 303.21997123 67.89935986 353.19637941 32.30859375 391.5078125 C30.28059379 393.69709164 28.31788817 395.92299995 26.375 398.1875 C20.43095667 405.00853333 13.93494207 411.19843843 7 417 C6.51241211 417.4120166 6.02482422 417.8240332 5.52246094 418.24853516 C-10.61776788 431.81195654 -28.27049887 443.3402458 -47 453 C-47.66854004 453.34724121 -48.33708008 453.69448242 -49.02587891 454.05224609 C-112.15441698 486.41277271 -186.84344912 489.78120375 -254 469 C-283.66383002 459.36483896 -311.5940585 444.35907681 -336 425 C-336.98226562 424.23042969 -337.96453125 423.46085937 -338.9765625 422.66796875 C-353.9949892 410.65755547 -368.15933401 397.15300664 -380 382 C-380.99734772 380.75516978 -381.99474677 379.51038069 -382.9921875 378.265625 C-391.59873435 367.39860124 -398.99658955 355.95460202 -406 344 C-406.39026367 343.33822754 -406.78052734 342.67645508 -407.18261719 341.99462891 C-422.41515603 315.84660716 -432.0335975 285.73585375 -437 256 C-437.16371094 255.02111816 -437.32742188 254.04223633 -437.49609375 253.03369141 C-441.94450038 224.96001776 -441.85123152 195.00440244 -437 167 C-436.83371094 166.02530762 -436.66742188 165.05061523 -436.49609375 164.04638672 C-427.59657069 113.62399634 -404.65578508 66.14075914 -369.5625 28.75 C-367.25457931 26.27320706 -365.02673791 23.74771258 -362.8125 21.1875 C-359.7831344 17.7648699 -356.59292539 14.73838493 -353.1015625 11.79296875 C-350.83801946 9.86180471 -348.67715618 7.84038627 -346.5 5.8125 C-310.12995947 -26.8485714 -262.86224978 -47.69711855 -215 -56 C-214.10716309 -56.16371094 -213.21432617 -56.32742188 -212.29443359 -56.49609375 C-138.13623356 -69.68461803 -58.04709716 -47.17121001 0 0 Z M-192 41 C-192 55.85 -192 70.7 -192 86 C-216.09 86 -240.18 86 -265 86 C-265 103.82 -265 121.64 -265 140 C-209.065 140.495 -209.065 140.495 -152 141 C-159.24308187 151.02888259 -166.46872122 161.00460817 -173.90625 170.87890625 C-181.93788171 181.55591794 -189.82262397 192.34215049 -197.625 203.1875 C-202.1517772 209.47854911 -206.7503151 215.70863438 -211.41503906 221.89794922 C-217.07602442 229.4132678 -222.64460722 236.99611921 -228.21777344 244.57666016 C-230.56180588 247.76390208 -232.9087873 250.94896511 -235.25610352 254.13378906 C-236.41568983 255.70717707 -237.57503357 257.28074388 -238.73413086 258.85449219 C-241.73440482 262.92788759 -244.73779915 266.99892988 -247.74609375 271.06640625 C-248.67325195 272.32130859 -248.67325195 272.32130859 -249.61914062 273.6015625 C-250.78479215 275.179136 -251.95137484 276.75602215 -253.11914062 278.33203125 C-254.20660894 279.80461739 -255.27930976 281.28822056 -256.3371582 282.78222656 C-258 285 -258 285 -259.94995117 287.03808594 C-267.33505619 295.44462458 -265.76467272 305.60335682 -265.4375 316.125 C-265.293125 322.68375 -265.14875 329.2425 -265 336 C-240.91 336 -216.82 336 -192 336 C-192 350.85 -192 365.7 -192 381 C-177.15 381 -162.3 381 -147 381 C-147 366.15 -147 351.3 -147 336 C-122.91 336 -98.82 336 -74 336 C-74 318.51 -74 301.02 -74 283 C-111.62 283 -149.24 283 -188 283 C-183.94658804 276.91988206 -179.85406352 270.9785751 -175.5 265.125 C-174.2603609 263.45056212 -173.02077919 261.77608175 -171.78125 260.1015625 C-171.15347656 259.2549707 -170.52570313 258.40837891 -169.87890625 257.53613281 C-166.91104903 253.53014259 -163.95591159 249.51480776 -161 245.5 C-159.83340003 243.91661752 -158.66673322 242.33328429 -157.5 240.75 C-156.63375 239.574375 -156.63375 239.574375 -155.75 238.375 C-108.5 174.25 -108.5 174.25 -106.74902344 171.8737793 C-105.58547866 170.2946132 -104.42206662 168.71534928 -103.25878906 167.13598633 C-100.29545312 163.11307101 -97.32964146 159.09202036 -94.359375 155.07421875 C-93.75480469 154.25566406 -93.15023437 153.43710937 -92.52734375 152.59375 C-91.40062971 151.06835253 -90.27312203 149.5435407 -89.14453125 148.01953125 C-88.0517035 146.53927069 -86.9740407 145.04772626 -85.90966797 143.546875 C-84 141 -84 141 -81.37548828 138.0625 C-72.58724633 127.83834375 -72.78443206 118.68334562 -73.375 105.625 C-73.58125 99.14875 -73.7875 92.6725 -74 86 C-98.09 86 -122.18 86 -147 86 C-147 71.15 -147 56.3 -147 41 C-161.85 41 -176.7 41 -192 41 Z " fill="#F4B728" transform="translate(710,329)"/>
</svg>
